/* XPM */
static char *result[] = {
/* columns rows colors chars-per-pixel */
"64 64 183 2 ",
"   c #3C1A27",
".  c #3C1D29",
"X  c #3C1725",
"o  c #3D222D",
"O  c #3F2731",
"+  c #3F2A32",
"@  c #471926",
"#  c #5A1926",
"$  c #561C28",
"%  c #631E26",
"&  c #651A29",
"*  c #661929",
"=  c #721C27",
"-  c #73172D",
";  c #73192E",
":  c #7A192B",
">  c #7B1E27",
",  c #721D31",
"<  c #691E39",
"1  c #4B212D",
"2  c #57222C",
"3  c #5B242D",
"4  c #412E35",
"5  c #4C2C35",
"6  c #572C33",
"7  c #582931",
"8  c #45373B",
"9  c #593136",
"0  c #593439",
"q  c #652124",
"w  c #6E2126",
"e  c #612E2F",
"r  c #61232C",
"t  c #742126",
"y  c #6F2C3B",
"u  c #642735",
"i  c #722334",
"p  c #7F2635",
"a  c #7E2836",
"s  c #702B3A",
"d  c #7A2A39",
"f  c #6F333E",
"g  c #70303D",
"h  c #78353E",
"j  c #55335D",
"k  c #6F3742",
"l  c #693942",
"z  c #7B3552",
"x  c #5C3761",
"c  c #5F3961",
"v  c #643D60",
"b  c #7B3960",
"n  c #464444",
"m  c #474E4B",
"M  c #524948",
"N  c #544143",
"B  c #48504C",
"V  c #55544D",
"C  c #555953",
"Z  c #724B4D",
"A  c #75524F",
"S  c #6E5F59",
"D  c #725351",
"F  c #4E6A5E",
"G  c #4C675B",
"H  c #55685D",
"J  c #68625E",
"K  c #5A4064",
"L  c #4E4D7F",
"P  c #504B7A",
"I  c #6A4060",
"U  c #70497F",
"Y  c #755B77",
"T  c #556F61",
"R  c #547364",
"E  c #517B6A",
"W  c #626D62",
"Q  c #686A63",
"!  c #657167",
"~  c #657569",
"^  c #657A6B",
"/  c #841A2C",
"(  c #8B1E2B",
")  c #961E29",
"_  c #9B1E29",
"`  c #A31E2B",
"'  c #AC1F2A",
"]  c #83212B",
"[  c #8E212A",
"{  c #9E2327",
"}  c #92212C",
"|  c #99212C",
" . c #9B2D24",
".. c #802535",
"X. c #882E34",
"o. c #8D2636",
"O. c #97283C",
"+. c #9F2D3B",
"@. c #9B3326",
"#. c #A42427",
"$. c #AE2F24",
"%. c #A42328",
"&. c #AC2429",
"*. c #A22828",
"=. c #B22F25",
"-. c #BB2F26",
";. c #B4202A",
":. c #BF2728",
">. c #B63423",
",. c #BA3423",
"<. c #B13329",
"1. c #A72C36",
"2. c #BE3C32",
"3. c #AF3938",
"4. c #C72D26",
"5. c #C43425",
"6. c #CA3325",
"7. c #CC3C2D",
"8. c #C5332A",
"9. c #D43624",
"0. c #D73823",
"q. c #DF3E22",
"w. c #C33931",
"e. c #A33E4A",
"r. c #A43345",
"t. c #844059",
"y. c #904057",
"u. c #984555",
"i. c #B54848",
"p. c #B0524F",
"a. c #A85152",
"s. c #B05651",
"d. c #548670",
"f. c #558A73",
"g. c #608471",
"h. c #38578E",
"j. c #375C94",
"k. c #33639C",
"l. c #3365A1",
"z. c #3576B3",
"x. c #56549B",
"c. c #6E6F8D",
"v. c #66698F",
"b. c #435BA7",
"n. c #5561A0",
"m. c #487FB1",
"M. c #537AAA",
"N. c #276DCA",
"B. c #2773CC",
"V. c #2779CB",
"C. c #3683BA",
"Z. c #3E91B8",
"A. c #5CAE8D",
"S. c #5287AF",
"D. c #4781B2",
"F. c #2B86C3",
"G. c #288FCC",
"H. c #2789C7",
"J. c #258ED7",
"K. c #249CD5",
"L. c #2590D8",
"P. c #249FDF",
"I. c #2493C7",
"U. c #22BBCD",
"Y. c #2BB6C6",
"T. c #23ADD8",
"R. c #24A5D5",
"E. c #22B7D4",
"W. c #22B0D8",
"Q. c #23ADCA",
"!. c #1FD5C7",
"~. c #21C5CA",
"^. c #21C9CD",
"/. c #21CDC7",
"(. c #20D6C7",
"). c #20D4C8",
"_. c #28D8C8",
"`. c #39DDCB",
"'. c #41DFCC",
"]. c #6BEBD2",
"[. c #84F2D6",
"{. c #A6FCDB",
"}. c None",
/* pixels */
"}.}.}.}.}.}.}.}.}.}.}.}.}.}.}.}.}.}.}.}.}.}.}.}.}.}.}.}.}.}.}.}.}.}.}.}.}.}.}.}.}.}.}.}.}.}.}.}.}.}.}.}.}.}.}.}.}.}.}.}.}.}.}.}.",
"}.}.}.}.}.}.}.}.}.}.}.}.}.}.}.}.}.}.}.}.}.}.}.}.}.}.}.}.}.}.}.}.}.}.}.}.}.}.}.}.}.}.}.}.}.}.}.}.}.}.}.}.}.}.}.}.}.}.}.}.}.}.}.}.",
"}.}.}.}.}.}.}.}.}.}.}.}.}.}.}.}.}.}.}.}.}.}.}.}.}.}.}.}.}.}.}.}.}.}.}.}.}.}.}.}.}.}.}.}.}.}.}.}.}.}.}.}.}.}.}.}.}.}.}.}.}.}.}.}.",
"}.}.}.}.}.}.}.}.}.}.}.}.}.}.}.}.}.}.}.}.}.}.}.}.}.}.}.}.}.}.}.}.}.}.}.}.}.}.}.}.}.}.}.}.}.}.}.}.}.}.}.}.}.}.}.}.}.}.}.}.}.}.}.}.",
"}.}.}.}.}.}.}.}.}.}.}.}.}.}.}.}.}.}.}.}.}.}.}.}.}.}.}.}.}.}.}.}.}.}.}.}.}.}.}.}.}.}.}.}.}.}.}.}.}.}.}.}.}.}.}.}.}.}.}.}.}.}.}.}.",
"}.}.}.}.}.}.}.}.}.}.}.}.}.}.}.}.}.}.}.}.}.}.}.}.}.}.}.}.}.}.}.}.}.}.}.}.}.}.}.}.}.}.}.}.}.}.}.}.}.}.}.}.}.}.}.}.}.}.}.}.}.}.}.}.",
"}.}.}.}.}.}.}.}.}.}.}.}.}.}.}.}.}.}.}.}.}.}.}.}.}.}.}.}.}.}.}.}.}.}.}.}.}.}.}.}.}.}.}.}.}.}.}.}.}.}.}.}.}.}.}.}.}.}.}.}.}.}.}.}.",
"}.}.}.}.}.}.}.}.}.}.}.}.}.}.}.}.}.}.}.}.}.}.}.F H R ! ! ! ~ ~ ^ ~ ! Q J }.}.}.}.}.}.}.}.}.}.}.}.}.}.}.}.}.}.}.}.}.}.}.}.}.}.}.}.",
"}.}.}.}.}.}.}.}.}.}.}.}.}.}.}.}.}.}.}.}.A.f.n 4 + 5 u y g s s g s y s s i i i k }.}.}.}.}.}.}.}.}.}.}.}.}.}.}.}.}.}.}.}.}.}.}.}.",
"}.}.}.}.}.}.}.}.}.}.}.}.}.}.}.}.}.}.}.R g.! 0 # 3 w ] [ [ [ [ ( [ [ } ( } ( / ..D Q }.}.}.}.}.}.}.}.}.}.}.}.}.}.}.}.}.}.}.}.}.}.",
"}.}.}.}.}.}.}.}.}.}.}.}.}.}.}.}.A.f.n 5 f h X.{ $.,.5.5.5.5.8.8.5.5.5.8.5.,.&.| p s i g }.}.}.}.}.}.}.}.}.}.}.}.}.}.}.}.}.}.}.}.",
"}.}.}.}.}.}.}.}.}.}.}.}.}.}.}.}.f.H 0 & t | ;.4.0.q.q.q.q.q.q.q.q.q.q.q.q.0.4.&.| [ / p D }.}.}.}.}.}.}.}.}.}.}.}.}.}.}.}.}.}.}.",
"}.}.}.}.}.}.}.}.}.}.}.}.}.}.}.d.m 0 ] %.,.5.9.0.q.q.q.q.q.q.q.q.q.q.q.q.q.q.0.9.6.,.&.| p k }.}.}.}.}.}.}.}.}.}.}.}.}.}.}.}.}.}.",
"}.}.}.}.}.}.}.}.}.}.}.}.}.}.d.H 9 = *.4.0.q.q.q.q.q.q.q.q.q.q.q.q.q.q.q.q.q.q.q.q.0.4.;.) p Z }.}.}.}.}.}.}.}.}.}.}.}.}.}.}.}.}.",
"}.}.}.}.}.}.}.}.}.}.}.}.}.}.8 9 ] #.4.0.q.q.q.q.q.q.q.q.q.q.q.q.q.q.q.q.q.q.q.q.q.q.0.4.&.| ..k }.}.}.}.}.}.}.}.}.}.}.}.}.}.}.}.",
"}.}.}.}.}.}.}.}.}.}.}.}.}.}.@ % #.4.0.q.q.q.q.q.q.q.q.q.q.q.q.q.q.q.q.q.q.q.q.q.q.q.q.0.4.&.) p Z }.}.}.}.}.}.}.}.}.}.}.}.}.}.}.",
"}.}.}.}.}.}.}.}.}.}.}.}.}.}.& / -.0.q.q.q.q.q.q.q.q.q.q.q.q.q.q.q.q.q.q.q.q.q.q.q.q.q.0.0.4.;.| ..y }.}.}.}.}.}.}.}.}.}.}.}.}.}.",
"}.}.}.}.}.}.}.}.}.}.}.}.}.}.; [ -.9.9.9.9.9.9.9.9.9.9.9.9.9.9.9.0.0.q.q.q.q.q.q.q.q.q.q.0.4.:.` / , }.}.}.}.}.}.}.}.}.}.}.}.}.}.",
"}.}.}.}.}.}.}.}.}.}.}.}.}.}.; ( ;.:.:.:.:.:.:.:.:.:.:.4.:.:.:.:.:.4.0.q.q.q.q.q.q.q.q.9.4.4.;.` / , }.}.}.}.}.}.}.}.}.}.}.}.}.}.",
"}.}.}.}.}.}.}.}.}.}.}.}.}.}.c I t.y.y.y.y.y.y.y.y.y.y.y.y.y.y.y.y.u.a.i.7.0.q.q.q.q.q.9.:.;.;.` / i }.}.}.}.}.}.}.}.}.}.}.}.}.}.",
"}.}.}.}.}.}.}.}.}.}.}.}.}.}.C.C.m.m.m.m.D.D.m.m.m.m.m.m.m.m.m.m.D.D.S.c.e.4.0.q.q.q.q.9.:.;.;.` / y ! }.}.}.}.}.}.}.}.}.}.}.}.}.",
"}.}.}.}.}.}.}.}.}.}.}.}.}.}.W.T.T.T.T.T.W.T.T.T.T.P.T.T.T.T.T.T.T.T.T.Z.Y a.8.0.q.q.q.9.:.;.;.` / y C R }.}.}.}.}.}.}.}.}.}.}.}.",
"}.}.}.}.}.}.}.}.}.}.}.}.(.)./.^.^.^.^.^.^.^.^.^.^.^.^.^.^.^.^.^.^.^.^.Y.G.c.e.4.0.q.q.9.:.;.;.` / & 5 5 i y }.}.}.}.}.}.}.}.}.}.",
"}.}.}.}.}.}.}.}.}.}.}.}.(._.`.'.'.`.'.'.'.'.'.'.'.'.'.'.'.'.'.'.'.`._.^.E.D.Y e.7.q.q.9.:.;.;.` ; * & w ] X.D }.}.}.}.}.}.}.}.}.",
"}.}.}.}.}.}.}.}.}.}.(.(.).`.].[.[.[.[.[.[.[.[.[.[.[.[.[.[.[.[.[.[.].`.)./.Y.Z.c.i.q.q.9.4.;.;.) & %  .,.5.<.X.k }.}.}.}.}.}.}.}.",
"}.}.}.}.}.}.}.}.}.}.(.(.).'.[.{.{.{.{.{.{.{.{.{.{.{.{.{.{.{.{.{.{.[.'.(.(.^.T.S.s.q.q.9.:.;.;.) # q $.0.q.6.*.X.D }.}.}.}.}.}.}.",
"}.}.}.}.}.}.}.}.}.}.).(.).'.[.{.{.{.{.{.{.{.{.{.{.{.{.{.{.{.{.{.{.[.'.).(.^.T.S.s.q.q.9.:.;.;.) # # { 4.0.0.5.<.X.g }.}.}.}.}.}.",
"}.}.}.}.}.}.}.}.}.}.).(.).`.].[.[.[.[.[.[.[.[.[.[.[.[.[.[.[.[.[.[.].`.).(.^.T.S.p.q.q.9.:.;.;.| & & ) -.6.0.q.5.} i }.}.}.}.}.}.",
"}.}.}.}.}.}.}.}.}.}.(.(.(._.`.'.'.'.'.'.'.'.'.'.'.'.'.'.'.'.'.'.'.`._.(.(.^.T.S.p.q.q.9.4.;.;.` : : _ ;.:.4.0.5.( i }.}.}.}.}.}.",
"}.}.}.}.}.}.}.}.}.}./.(.^.^.^.^.^.^.^.^.^.^.^.^.^.^.^.^.^.^.^.^.^.^.^./.(.^.K.M.p.q.q.9.:.;.;.` / / ` ;.;.:.9.5.} i }.}.}.}.}.}.",
"}.}.}.}.}.}.}.}.}.I.~.^.E.T.T.T.T.T.T.T.T.T.T.T.T.T.T.T.T.T.T.T.T.T.T.E./.U.H.n.i.q.0.9.:.;.;.` / / ` ;.;.:.0.5.[ i }.}.}.}.}.}.",
"}.}.}.}.}.}.}.}.}.H.U.U.K.L.L.L.L.L.J.J.J.J.J.J.J.J.J.J.J.J.J.J.L.L.J.K.U.Q.B.x.i.q.q.9.:.;.;.` / / ` ;.;.:.9.5./ r }.}.}.}.}.}.",
"}.}.}.}.}.}.}.}.}.}.T.K.V.N.N.N.N.N.N.N.N.N.N.N.N.N.N.N.N.N.N.N.N.N.N.V.R.K.N.x.e.q.q.0.:.;.;.` / / ` ;.;.:.9.,.= 1 }.}.}.}.}.}.",
"}.}.}.}.}.}.}.}.}.}.P.L.B.N.N.N.N.N.N.N.N.N.N.N.N.N.N.N.N.N.N.N.N.N.N.N.F.z.b.U i.q.q.0.:.;.;.' / / ` ;.;.:.9.>.q o }.}.}.}.}.}.",
"}.}.}.}.}.}.}.}.}.}.}.}.L.L.J.J.J.J.J.J.J.J.J.J.J.J.J.J.J.J.L.J.J.L.J.V.k.x.z r.7.q.q.9.:.;.;.' / / ` ;.;.:.9.>.q o }.}.}.}.}.}.",
"}.}.}.}.}.}.}.}.}.}.}.}.G.G.H.F.F.F.F.F.F.F.F.F.F.F.F.F.F.F.F.F.F.F.F.z.P z 1.4.0.q.q.9.:.;.;.' / / ` ;.;.:.9.>.% o }.}.}.}.}.}.",
"}.}.}.}.}.}.}.}.}.}.}.}.l.j.j.h.h.h.h.h.h.h.h.h.h.h.h.h.h.h.h.h.h.h.h.P z *.8.0.0.q.q.9.;.;.;.` / / ` ;.;.;.9.>.q . }.}.}.}.}.}.",
"}.}.}.}.}.}.}.}.}.}.}.}.}.x x x x x x x x x x x x x x x x x x x x v v z 1.4.0.q.q.q.q.9.4.;.;.` - - ` ;.;.:.9.>.q . }.}.}.}.}.}.",
"}.}.}.}.}.}.}.}.}.}.}.}.< i o.O.O.O.O.O.O.O.O.O.O.O.O.O.O.O.O.O.O.+.3.2.6.0.q.q.q.q.q.9.:.;.;.) - * ) ;.;.:.9.-.q . }.}.}.}.}.}.",
"}.}.}.}.}.}.}.}.}.}.}.}.- / ' 4.:.:.:.:.:.:.:.:.:.:.4.:.:.:.:.:.:.4.0.q.q.q.q.q.q.q.q.9.:.;.;.) # # ) ;.;.:.9.:.q o }.}.}.}.}.}.",
"}.}.}.}.}.}.}.}.}.}.}.}.; [ -.0.9.9.0.9.9.9.9.9.0.9.9.9.9.9.0.9.0.0.0.q.q.q.q.q.q.q.q.0.4.;.;.) # # ) ;.;.:.9.>.q . }.}.}.}.}.}.",
"}.}.}.}.}.}.}.}.}.}.}.}.- [ 5.q.q.q.q.q.q.q.q.q.q.q.q.q.q.q.q.q.q.q.q.q.q.q.q.q.q.q.q.0.;.;.;.) # # ) ;.;.:.9.>.q . }.}.}.}.}.}.",
"}.}.}.}.}.}.}.}.}.}.}.}.- [ 5.q.q.q.q.q.q.q.q.q.q.q.q.q.q.q.q.q.q.q.q.q.q.q.q.q.q.q.q.9.4.;.;.) # # ) ;.;.:.9.>.q . }.}.}.}.}.}.",
"}.}.}.}.}.}.}.}.}.}.}.}.- [ 5.q.q.q.q.q.q.q.q.q.q.q.q.q.q.q.q.q.q.q.q.q.q.q.q.q.q.q.q.9.:.;.;.) # # ) ;.;.:.9.>.q . }.}.}.}.}.}.",
"}.}.}.}.}.}.}.}.}.}.}.}.; [ 5.q.q.q.q.q.q.q.q.q.q.q.q.q.q.q.q.q.q.q.q.q.q.q.q.q.q.q.q.9.4.;.;.) # # ) ' ;.:.9.>.q   }.}.}.}.}.}.",
"}.}.}.}.}.}.}.}.}.}.}.}.; } 5.q.q.q.q.q.q.q.q.q.q.q.q.q.q.q.q.q.q.q.q.q.q.q.q.q.q.q.q.9.:.;.;.) # # ) ;.;.:.9.>.q   }.}.}.}.}.}.",
"}.}.}.}.}.}.}.}.}.}.}.}.; } 5.q.q.q.q.q.q.q.q.q.q.q.q.q.q.q.q.q.q.q.q.q.q.q.q.q.q.q.q.9.:.;.;.) # # ) ;.;.4.9.>.q . }.}.}.}.}.}.",
"}.}.}.}.}.}.}.}.}.}.}.}.q ] 5.q.q.q.q.q.q.q.q.q.0.9.9.9.9.0.9.0.q.q.q.q.q.q.q.q.q.q.q.0.:.;.;.) # # ) ;.;.;.=.@.e 4 }.}.}.}.}.}.",
"}.}.}.}.}.}.}.}.}.}.}.}.@ w ,.q.q.q.q.q.q.q.q.0.4.:.:.:.:.:.:.8.0.q.q.q.q.q.q.q.q.q.q.9.:.;.;.) # # ) ' ;.` t e V }.}.}.}.}.}.}.",
"}.}.}.}.}.}.}.}.}.}.}.}.. q ,.q.q.q.q.q.q.q.0.4.4.' _ _ ` ` ` ;.4.9.q.q.q.q.q.q.q.q.q.9.:.;.;.) # $ : ) ) ] 7 j }.}.}.}.}.}.}.}.",
"}.}.}.}.}.}.}.}.}.}.}.}.  q ,.q.q.q.q.q.q.0.4.;.;._ - * : / / } ;.4.0.q.q.q.q.q.q.q.q.9.:.;.;.) # @ # # $ 6 V E }.}.}.}.}.}.}.}.",
"}.}.}.}.}.}.}.}.}.}.}.}.  w ,.q.q.q.q.q.q.9.4.' ` > 2 5 u y g a | ;.9.q.q.q.q.q.q.q.q.9.:.;.;.) # . O o . 4 }.}.}.}.}.}.}.}.}.}.",
"}.}.}.}.}.}.}.}.}.}.}.}.  q ,.q.q.q.q.q.q.9.:._ = 7 V R W W ^ J h { 5.q.q.q.q.q.q.q.q.9.:.;.;.) # o B G }.}.}.}.}.}.}.}.}.}.}.}.",
"}.}.}.}.}.}.}.}.}.}.}.}.. q ,.q.q.q.q.q.q.9.:.) # O F }.}.}.}.~ u ] 5.q.q.q.q.q.q.q.q.9.:.;.;.) # O G }.}.}.}.}.}.}.}.}.}.}.}.}.",
"}.}.}.}.}.}.}.}.}.}.}.}.  q ,.q.q.q.q.q.q.9.:._ & . }.}.}.}.}.}.1 w ,.q.q.q.q.q.q.q.q.9.:.;.;.) # . }.}.}.}.}.}.}.}.}.}.}.}.}.}.",
"}.}.}.}.}.}.}.}.}.}.}.}.  % >.0.q.q.q.q.q.9.4._ & }.}.}.}.}.}.}.  q $.0.q.q.q.q.q.q.0.6.:.;.;.) # X }.}.}.}.}.}.}.}.}.}.}.}.}.}.",
"}.}.}.}.}.}.}.}.}.}.}.}.. % { 4.0.q.q.q.q.9.4._ q }.}.}.}.}.}.}.X & #.4.0.q.q.q.q.0.4.:.;.;.;.) $   }.}.}.}.}.}.}.}.}.}.}.}.}.}.",
"}.}.}.}.}.}.}.}.}.}.}.}.4 3 ] &.8.0.q.q.0.4.&.( r }.}.}.}.}.}.}.}.3 ( #.8.0.0.q.0.6.:.;.;.' _ ] 6 8 }.}.}.}.}.}.}.}.}.}.}.}.}.}.",
"}.}.}.}.}.}.}.}.}.}.}.}.}.M 2 > %.4.0.0.4.#.> 3 }.}.}.}.}.}.}.}.}.N 2 = #.4.0.0.4.:.;.;.;._ = 7 C E }.}.}.}.}.}.}.}.}.}.}.}.}.}.",
"}.}.}.}.}.}.}.}.}.}.}.}.}.}.8 7 ] { $.$.{ / r }.}.}.}.}.}.}.}.}.}.}.4 2 ( { $.$.{ ) | ) ) ] 7 n d.}.}.}.}.}.}.}.}.}.}.}.}.}.}.}.",
"}.}.}.}.}.}.}.}.}.}.}.}.}.}.}.M 2 # q q # $ }.}.}.}.}.}.}.}.}.}.}.}.}.0 2 # q # # # # # # 9 C E }.}.}.}.}.}.}.}.}.}.}.}.}.}.}.}.",
"}.}.}.}.}.}.}.}.}.}.}.}.}.}.}.}.4 o . . . o }.}.}.}.}.}.}.}.}.}.}.}.}.}.o X         . . . + R }.}.}.}.}.}.}.}.}.}.}.}.}.}.}.}.}.",
"}.}.}.}.}.}.}.}.}.}.}.}.}.}.}.}.}.}.}.}.}.}.}.}.}.}.}.}.}.}.}.}.}.}.}.}.}.}.}.}.}.}.}.}.}.}.}.}.}.}.}.}.}.}.}.}.}.}.}.}.}.}.}.}.",
"}.}.}.}.}.}.}.}.}.}.}.}.}.}.}.}.}.}.}.}.}.}.}.}.}.}.}.}.}.}.}.}.}.}.}.}.}.}.}.}.}.}.}.}.}.}.}.}.}.}.}.}.}.}.}.}.}.}.}.}.}.}.}.}."
};
