/* XPM */
static char *result[] = {
/* columns rows colors chars-per-pixel */
"64 64 187 2 ",
"   c #3C1625",
".  c #3C1C29",
"X  c #3C1A27",
"o  c #3E232D",
"O  c #3F2931",
"+  c #3F2730",
"@  c #491727",
"#  c #4D1827",
"$  c #4A1D2C",
"%  c #451826",
"&  c #541926",
"*  c #5A1A26",
"=  c #5A192A",
"-  c #551A2A",
";  c #631E26",
":  c #681C27",
">  c #65172B",
",  c #641929",
"<  c #6D192B",
"1  c #711B27",
"2  c #73162D",
"3  c #74192C",
"4  c #7B192B",
"5  c #781E27",
"6  c #6A1D30",
"7  c #721D31",
"8  c #4A222F",
"9  c #57252E",
"0  c #58262F",
"q  c #402E35",
"w  c #4A2A34",
"e  c #572831",
"r  c #423539",
"t  c #433B3D",
"y  c #413137",
"u  c #5C3137",
"i  c #5B3238",
"p  c #642124",
"a  c #692124",
"s  c #622A2C",
"d  c #63242F",
"f  c #722126",
"g  c #7A2226",
"h  c #652136",
"j  c #722435",
"k  c #742739",
"l  c #613534",
"z  c #603B38",
"x  c #443D40",
"c  c #7B3D41",
"v  c #7B3552",
"b  c #5C3761",
"n  c #583861",
"m  c #4C3563",
"M  c #643D60",
"N  c #7B3960",
"B  c #474B49",
"V  c #484948",
"C  c #544A46",
"Z  c #554945",
"A  c #4E5650",
"S  c #6F484A",
"D  c #4D665B",
"F  c #586F5F",
"G  c #566458",
"H  c #4E4D7F",
"J  c #504B7A",
"K  c #70497F",
"L  c #755B77",
"P  c #684D6E",
"I  c #4F6C60",
"U  c #527D6B",
"Y  c #547766",
"T  c #841A2B",
"R  c #8A1C2B",
"E  c #951E29",
"W  c #9C1E2A",
"Q  c #A31E2B",
"!  c #AA1F2B",
"~  c #B01F2A",
"^  c #812625",
"/  c #832824",
"(  c #84212A",
")  c #8E212A",
"_  c #8C282F",
"`  c #9E2327",
"'  c #93222B",
"]  c #9B232A",
"[  c #902A2F",
"{  c #9B2D24",
"}  c #9D3226",
"|  c #9A352A",
" . c #892A36",
".. c #97283C",
"X. c #9F2D3B",
"o. c #A32D25",
"O. c #AE2F25",
"+. c #A22328",
"@. c #AB2329",
"#. c #A22829",
"$. c #A62527",
"%. c #B52E27",
"&. c #BB2E27",
"*. c #B4212A",
"=. c #BF2728",
"-. c #A23125",
";. c #B63423",
":. c #BA3324",
">. c #B43129",
",. c #B83228",
"<. c #A62B37",
"1. c #A92D36",
"2. c #BE3C33",
"3. c #AF3939",
"4. c #C72D27",
"5. c #C02B28",
"6. c #C33425",
"7. c #CB3425",
"8. c #C9362B",
"9. c #D43625",
"0. c #D73824",
"q. c #DF3E23",
"w. c #CB3E30",
"e. c #C33931",
"r. c #A23E4A",
"t. c #A43345",
"y. c #904057",
"u. c #984556",
"i. c #86435D",
"p. c #B54848",
"a. c #B05552",
"s. c #A85153",
"d. c #53826E",
"f. c #548571",
"g. c #558A74",
"h. c #38578E",
"j. c #3365A1",
"k. c #3773AB",
"l. c #3378BA",
"z. c #56549C",
"x. c #66698F",
"c. c #6E6F8D",
"v. c #435BA7",
"b. c #5561A1",
"n. c #487FB1",
"m. c #537AAA",
"M. c #276DCA",
"N. c #2674CD",
"B. c #2873C9",
"V. c #267DCE",
"C. c #2677C6",
"Z. c #3E91B8",
"A. c #5DAF8D",
"S. c #5EB08E",
"D. c #5387AF",
"F. c #4782B4",
"G. c #5085B0",
"H. c #2B86C3",
"J. c #288BC8",
"K. c #258ED7",
"L. c #2586D4",
"P. c #249CD5",
"I. c #2590D8",
"U. c #249FDF",
"Y. c #2D8FC5",
"T. c #2BB6C6",
"R. c #22BBCD",
"E. c #23ADD8",
"W. c #24A5D5",
"Q. c #22B7D4",
"!. c #28B6D6",
"~. c #23ADCA",
"^. c #21C9CD",
"/. c #21C8C9",
"(. c #20D6C7",
"). c #20D4C8",
"_. c #28D8C8",
"`. c #3AD3CF",
"'. c #39DDCB",
"]. c #41DFCC",
"[. c #5BE7D0",
"{. c #6BEAD3",
"}. c #84F2D6",
"|. c #8DF5D7",
" X c #9EFADA",
".X c #A6FCDB",
"XX c None",
/* pixels */
"XXXXXXXXXXXXXXXXXXXXXXXXXXXXXXXXXXXXXXXXXXXXXXXXXXXXXXXXXXXXXXXXXXXXXXXXXXXXXXXXXXXXXXXXXXXXXXXXXXXXXXXXXXXXXXXXXXXXXXXXXXXXXXXX",
"XXXXXXXXXXXXXXXXXXXXXXXXXXXXXXXXXXXXXXXXXXXXXXXXXXXXXXXXXXXXXXXXXXXXXXXXXXXXXXXXXXXXXXXXXXXXXXXXXXXXXXXXXXXXXXXXXXXXXXXXXXXXXXXX",
"XXXXXXXXXXXXXXXXXXXXXXXXXXXXXXXXXXXXXXXXXXXXr O q 8 h 7 j 3 3 XXXXXXXXXXXXXXXXXXXXXXXXXXXXXXXXXXXXXXXXXXXXXXXXXXXXXXXXXXXXXXXXXX",
"XXXXXXXXXXXXXXXXXXXXXXXXXXXXXXXXXXXXXXXXXXS d ; a f ( ) ' ' ' [ XXXXXXXXXXXXXXXXXXXXXXXXXXXXXXXXXXXXXXXXXXXXXXXXXXXXXXXXXXXXXXXX",
"XXXXXXXXXXXXXXXXXXXXXXXXXXXXXXXXXXf.t $ h j E +.%.:.6.6.7.6.7.;._ 7 3 3 3 2 3 XXXXXXXXXXXXXXXXXXXXXXXXXXXXXXXXXXXXXXXXXXXXXXXXXX",
"XXXXXXXXXXXXXXXXXXXXXXXXXXXXXXXXg.G u : T ] *.4.0.q.q.q.q.q.q.7.#.) ) ) ) ) R R XXXXXXXXXXXXXXXXXXXXXXXXXXXXXXXXXXXXXXXXXXXXXXXX",
"XXXXXXXXXXXXXXXXXXXXXXXXXXXXXXf.B i ( $.:.7.9.0.q.q.q.q.q.q.q.q.7.6.6.8.7.&.*.W T 2 7 XXXXXXXXXXXXXXXXXXXXXXXXXXXXXXXXXXXXXXXXXX",
"XXXXXXXXXXXXXXXXXXXXXXXXXXXXXXY u 5 $.4.0.q.q.q.q.q.q.q.q.q.q.q.q.q.q.q.q.0.7.*.] E R R XXXXXXXXXXXXXXXXXXXXXXXXXXXXXXXXXXXXXXXX",
"XXXXXXXXXXXXXXXXXXXXXXXXXXXXXXXX' @.8.0.q.q.q.q.q.q.q.q.q.q.q.q.q.q.q.q.q.q.0.9.7.:.*.Q T XXXXXXXXXXXXXXXXXXXXXXXXXXXXXXXXXXXXXX",
"XXXXXXXXXXXXXXXXXXXXXXXXXXXXXXXX=.4.0.q.q.q.q.q.q.q.q.q.q.q.q.q.q.q.q.q.q.q.q.q.q.0.6.*.W R XXXXXXXXXXXXXXXXXXXXXXXXXXXXXXXXXXXX",
"XXXXXXXXXXXXXXXXXXXXXXXXXXXXXXXX8.0.q.q.q.q.q.q.q.q.q.q.q.q.q.q.q.q.q.q.q.q.q.q.q.q.0.4.*.Q R XXXXXXXXXXXXXXXXXXXXXXXXXXXXXXXXXX",
"XXXXXXXXXXXXXXXXXXXXXXXXXXXXXX$.4.9.9.9.9.9.9.9.9.0.9.9.0.0.0.0.q.q.q.q.q.q.q.q.q.q.q.0.4.*.W R XXXXXXXXXXXXXXXXXXXXXXXXXXXXXXXX",
"XXXXXXXXXXXXXXXXXXXXXXXXXXXXXXE *.=.=.=.=.=.=.5.5.=.=.=.5.5.~ 4.0.q.q.q.q.q.q.q.q.q.q.q.0.4.~ Q T XXXXXXXXXXXXXXXXXXXXXXXXXXXXXX",
"XXXXXXXXXXXXXXXXXXXXXXXXXXXXXXP i.y.y.y.y.y.y.y.y.y.y.y.y.y.y.r.e.0.q.q.q.q.q.q.q.q.q.q.0.7.5.! R XXXXXXXXXXXXXXXXXXXXXXXXXXXXXX",
"XXXXXXXXXXXXXXXXXXXXXXXXXXXXY.Y.n.n.n.n.n.n.n.n.n.n.m.n.n.n.n.x.r.4.0.q.q.q.q.q.q.q.q.0.4.5.~ ! R 2 XXXXXXXXXXXXXXXXXXXXXXXXXXXX",
"XXXXXXXXXXXXXXXXXXXXXXXXXXXXE.E.E.E.E.E.E.E.E.E.E.E.E.E.E.E.E.Z.L u.s.p.w.q.q.q.q.q.q.0.5.~ ~ ! R 7 XXXXXXXXXXXXXXXXXXXXXXXXXXXX",
"XXXXXXXXXXXXXXXXXXXXXXXX(.).^.^.^.^.^.^.^.^.^.^.^.^.^.^.^.^.^.T.Z.F.G.c.p.4.0.q.q.q.q.9.=.*.~ Q T 7 XXXXXXXXXXXXXXXXXXXXXXXXXXXX",
"XXXXXXXXXXXXXXXXXXXXXXXX)._.'.].].].].].].].].].].].].].].].].`.!.E.E.Z.L r.e.0.q.q.q.9.=.*.*.! T 7 XXXXXXXXXXXXXXXXXXXXXXXXXXXX",
"XXXXXXXXXXXXXXXXXXXX(.).(.'.{.}.}.}.}.}.}.}.}.}.}.}.}.}.}.}.}.{.`.^.^.T.Z.x.r.4.9.q.q.9.=.*.~ Q T < $ 8 , XXXXXXXXXXXXXXXXXXXXXX",
"XXXXXXXXXXXXXXXXXXXX).(.(.].}..X.X.X.X.X.X.X.X.X.X.X.X.X.X.X.X|.[.'.).^.Q.Z.L u.w.q.q.9.=.~ ~ Q 4 , < g _ [ XXXXXXXXXXXXXXXXXXXX",
"XXXXXXXXXXXXXXXXXXXX).(.(.].}..X.X.X.X.X.X.X.X.X.X.X.X.X.X.X.X.X|.{.'.).^.T.F.c.p.q.q.9.=.*.*.W , ; { 6.7.;._ k XXXXXXXXXXXXXXXX",
"XXXXXXXXXXXXXXXXXXXX).).(.'.{.}.}.}.}.}.}.}.}.}.}.}.}.}.}.}.}.|..X}.'.(._.^.Q.D.a.q.q.9.=.*.~ Q = ; O.0.q.7.#._ S XXXXXXXXXXXXXX",
"XXXXXXXXXXXXXXXXXXXX).(.(._.'.].].].].].].].].].].].].].].].].[.|.}.].).^.^.U.D.a.q.q.9.=.*.~ E * * ` 4.0.0.7.>.' j XXXXXXXXXXXX",
"XXXXXXXXXXXXXXXXXXXX/.).^.^././.^.^.^.^.^.^.^.^.^.^.^.^.^.^.^.`.{.{.'.(._.^.!.D.a.q.q.9.=.~ ~ Q , , E =.7.0.q.6.' 7 XXXXXXXXXXXX",
"XXXXXXXXXXXXXXXXXXY./.^.Q.E.E.E.E.E.E.E.E.E.E.E.E.E.E.E.E.E.E.!.`.'._.(.(.^.E.D.a.q.q.0.=.*.~ ! 4 4 ! ~ =.4.0.6.) 3 XXXXXXXXXXXX",
"XXXXXXXXXXXXXXXXXXJ.R.R.P.K.K.K.K.K.K.K.K.I.K.K.K.K.K.K.K.K.K.P.R.^.^.^.).^.W.m.a.q.q.q.=.*.~ Q T T Q ~ ~ 5.9.6.) j XXXXXXXXXXXX",
"XXXXXXXXXXXXXXXXXXXXE.P.L.M.M.M.M.M.M.M.M.M.M.M.M.M.M.M.M.M.M.V.P.E.E.Q./.R.J.b.p.q.q.9.=.*.*.! T T ! ~ ~ 5.9.6.R j XXXXXXXXXXXX",
"XXXXXXXXXXXXXXXXXXXXU.I.N.M.M.M.M.M.M.M.M.M.M.M.M.M.M.M.M.M.M.N.L.K.K.P.R.~.B.z.r.q.q.9.=.*.*.~ T T ! ~ ~ 5.0.6.( , XXXXXXXXXXXX",
"XXXXXXXXXXXXXXXXXXXXXXXXI.I.I.I.K.K.K.K.K.K.I.I.K.K.I.I.K.K.K.L.N.M.M.V.P.P.M.z.t.q.q.9.=.*.~ Q T T Q ~ ~ 5.0.:.f $ XXXXXXXXXXXX",
"XXXXXXXXXXXXXXXXXXXXXXXXH.H.H.H.H.H.H.H.H.H.H.H.H.H.H.H.H.H.H.H.B.M.M.C.H.l.v.K p.q.q.q.=.*.~ Q T T Q ~ ~ 5.9.&.a . XXXXXXXXXXXX",
"XXXXXXXXXXXXXXXXXXXXXXXXh.h.h.h.h.h.h.h.h.h.h.h.h.h.h.h.h.h.h.j.C.K.K.H.j.z.v t.9.q.q.9.=.*.~ ! T T Q ~ ~ 5.0.;.a . XXXXXXXXXXXX",
"XXXXXXXXXXXXXXXXXXXXXXXXm m b b b b b b b b b b b b b b b b b J k.H.H.j.J v <.4.9.q.q.9.=.*.~ Q T T ! ~ *.=.9.:.a . XXXXXXXXXXXX",
"XXXXXXXXXXXXXXXXXXXXXXXX6 v  .................................v J h.h.J v <.8.9.q.q.q.9.5.~ ~ ! T T Q ~ *.=.9.:.a   XXXXXXXXXXXX",
"XXXXXXXXXXXXXXXXXXXXXXXX2 T @.=.=.=.=.=.=.=.=.&.=.5.5.5.=.=.5.<.v b P v @.4.0.q.q.q.q.9.4.~ ~ Q 4 4 Q ~ *.=.9.:.a   XXXXXXXXXXXX",
"XXXXXXXXXXXXXXXXXXXXXXXX2 T :.0.9.9.0.9.0.9.0.0.9.9.9.9.9.9.9.8.<.X.3.2.7.0.q.q.q.q.q.9.=.~ ~ W > > W ~ *.=.0.;.a   XXXXXXXXXXXX",
"XXXXXXXXXXXXXXXXXXXXXXXX7 R 6.q.q.q.q.q.q.q.q.q.q.0.7.6.6.6.6.6.&.4.0.q.q.q.q.q.q.q.q.9.=.~ =.W * * W ~ *.=.9.;.a   XXXXXXXXXXXX",
"XXXXXXXXXXXXXXXXXXXXXXXX3 ) 6.q.q.q.q.q.q.q.q.q.q.7.$.) ) ) ) ` 8.0.q.q.q.q.q.q.q.q.q.9.4.*.~ E * * E *.*.=.0.;.a X XXXXXXXXXXXX",
"XXXXXXXXXXXXXXXXXXXXXXXXj ) 6.q.q.q.q.q.q.0.7.6.4.%.' T R ' ) ` %.6.6.7.0.q.q.q.q.q.q.9.5.~ *.E * * E *.*.=.0.:.a . XXXXXXXXXXXX",
"XXXXXXXXXXXXXXXXXXXXXXXXk ) :.q.q.q.q.q.q.7.$.) ) ' W @.&.6.6.%.] ) ) #.7.q.q.q.q.q.q.9.5.~ ~ E * * E *.*.=.9.:.a . XXXXXXXXXXXX",
"XXXXXXXXXXXXXXXXXXXXXXS  .-.7.q.q.0.7.7.9.6.` ) ) ] *.4.0.q.q.7.] 4 4 ( -.:.q.q.q.q.0.9.~ ~ W R > 1 W *.=.=.&.o.s XXXXXXXXXXXXXX",
"XXXXXXXXXXXXXXXXXXXXk  .>.7.q.q.q.7.#.] %.5.4.6.4.7.9.9.q.q.q.7.*.E 4 2 : / 6.q.q.0.6.=.*.W 1 : R Q ! =.7.:.^ s Z XXXXXXXXXXXXXX",
"XXXXXXXXXXXXXXXXXXXX, ( 6.q.q.q.q.6.) T @.4.0.q.q.q.q.q.9.9.9.9.4.%.] 4 ; f { 6.0.0.=.*.*.E * * E ~ ~ 5.9.;.; o XXXXXXXXXXXXXXXX",
"XXXXXXXXXXXXXXXXXXXX# g :.q.q.q.q.6.' ) &.0.0.q.q.q.q.0.4.=.=.5.7.9.7.%.$.T f / 6.9.=.~ *.E * * E ~ *.5.9.:.a o XXXXXXXXXXXXXXXX",
"XXXXXXXXXXXXXXXXXXXXO s | 6.q.q.q.6.) ) 6.q.q.q.q.q.q.0.5.~ ! *.9.q.q.0.7.$.g / :.9.5.*.~ E * * E ~ *.*.%.} s O XXXXXXXXXXXXXXXX",
"XXXXXXXXXXXXXXXXXXXXXXZ s / :.q.q.6.) ) 6.q.q.q.q.q.q.0.=.! R ] 7.q.q.q.0.7.6.:.0.0.=.~ *.E * * E ~ *.Q g s Z XXXXXXXXXXXXXXXXXX",
"XXXXXXXXXXXXXXXXXXXXXXXX+ p ;.q.7.%.E ] 7.q.q.q.q.q.0.4.=.Q T ) 6.q.q.q.q.q.q.q.q.9.=.*.*.E * & T E W ^ 0 r XXXXXXXXXXXXXXXXXXXX",
"XXXXXXXXXXXXXXXXXXXXXXXXo p ;.7.#.' W *.0.q.q.q.q.0.4.5.~ Q T E 6.q.q.q.q.q.q.q.q.9.=.*.~ E * % & * * 9 Z XXXXXXXXXXXXXXXXXXXXXX",
"XXXXXXXXXXXXXXXXXXXXXXXXq 0 } o.T T @.8.0.q.q.q.q.9.5.~ ~ Q 4 ^ 6.q.q.q.q.q.q.q.q.0.=.*.*.E * % o q . q XXXXXXXXXXXXXXXXXXXXXXXX",
"XXXXXXXXXXXXXXXXXXXXXXXXXXZ s f 3 R &.0.0.q.q.q.q.9.=.~ ~ W : : ;.q.q.q.q.q.q.q.q.0.5.~ *.E * 8 A D XXXXXXXXXXXXXXXXXXXXXXXXXXXX",
"XXXXXXXXXXXXXXXXXXXXXXXXXXXXr w = ( :.0.q.q.q.q.q.9.5.~ *.E * p ;.q.q.q.q.q.q.q.0.4.=.@.W g 9 V Y XXXXXXXXXXXXXXXXXXXXXXXXXXXXXX",
"XXXXXXXXXXXXXXXXXXXXXXXXXXXXXXV 8 , +.4.0.q.q.q.q.0.5.~ *.E * ; ;.q.q.q.q.q.q.0.4.=.*.Q 1 e A XXXXXXXXXXXXXXXXXXXXXXXXXXXXXXXXXX",
"XXXXXXXXXXXXXXXXXXXXXXXXXXXXXXXXr 0 ( $.8.9.q.q.0.4.=.~ W T * ; { ;.;.;.;.;.;.O.` E ' T e t XXXXXXXXXXXXXXXXXXXXXXXXXXXXXXXXXXXX",
"XXXXXXXXXXXXXXXXXXXXXXXXXXXXXXXXXXC 0 1 +.4.0.0.4.5.~ Q 1 * , , p p p p a a p p * * * 0 C XXXXXXXXXXXXXXXXXXXXXXXXXXXXXXXXXXXXXX",
"XXXXXXXXXXXXXXXXXXXXXXXXXXXXXXXXXXXXr e ( ] O.O.Q E E T * * 3 3 * # * * 9 * % X q y q y XXXXXXXXXXXXXXXXXXXXXXXXXXXXXXXXXXXXXXXX",
"XXXXXXXXXXXXXXXXXXXXXXXXXXXXXXXXXXXXXXC 9 * ; p * * * * > 2 E E 1 1 T ` O.{ * q D U D XXXXXXXXXXXXXXXXXXXXXXXXXXXXXXXXXXXXXXXXXX",
"XXXXXXXXXXXXXXXXXXXXXXXXXXXXXXXXXXXXXXXXo     X % @ @ * 2 E @.*.E ' *.&.:.| l B f.A.XXXXXXXXXXXXXXXXXXXXXXXXXXXXXXXXXXXXXXXXXXXX",
"XXXXXXXXXXXXXXXXXXXXXXXXXXXXXXXXXXXXXXXXo   . % = > > 3 E *.7.4.*.@.7.%.^ l G d.XXXXXXXXXXXXXXXXXXXXXXXXXXXXXXXXXXXXXXXXXXXXXXXX",
"XXXXXXXXXXXXXXXXXXXXXXXXXXXXXXXXXXXXXXXXO + O w = > > 1 T ` O.:.&.=.:.| l B d.XXXXXXXXXXXXXXXXXXXXXXXXXXXXXXXXXXXXXXXXXXXXXXXXXX",
"XXXXXXXXXXXXXXXXXXXXXXXXXXXXXXXXXXXXXXXXXXXXY A w @ @ # * * ; / :.;.^ l G d.XXXXXXXXXXXXXXXXXXXXXXXXXXXXXXXXXXXXXXXXXXXXXXXXXXXX",
"XXXXXXXXXXXXXXXXXXXXXXXXXXXXXXXXXXXXXXXXXXXXXXU B r r y r r t l | | z B f.XXXXXXXXXXXXXXXXXXXXXXXXXXXXXXXXXXXXXXXXXXXXXXXXXXXXXX",
"XXXXXXXXXXXXXXXXXXXXXXXXXXXXXXXXXXXXXXXXXXXXXXXXf.U U U U U f.Y z z Y g.XXXXXXXXXXXXXXXXXXXXXXXXXXXXXXXXXXXXXXXXXXXXXXXXXXXXXXXX",
"XXXXXXXXXXXXXXXXXXXXXXXXXXXXXXXXXXXXXXXXXXXXXXXXXXA.S.A.S.S.A.g.V V g.A.XXXXXXXXXXXXXXXXXXXXXXXXXXXXXXXXXXXXXXXXXXXXXXXXXXXXXXXX",
"XXXXXXXXXXXXXXXXXXXXXXXXXXXXXXXXXXXXXXXXXXXXXXXXXXXXXXXXXXXXXXXXU U XXXXXXXXXXXXXXXXXXXXXXXXXXXXXXXXXXXXXXXXXXXXXXXXXXXXXXXXXXXX",
"XXXXXXXXXXXXXXXXXXXXXXXXXXXXXXXXXXXXXXXXXXXXXXXXXXXXXXXXXXXXXXXXXXXXXXXXXXXXXXXXXXXXXXXXXXXXXXXXXXXXXXXXXXXXXXXXXXXXXXXXXXXXXXXX"
};
