/* XPM */
static char *result[] = {
/* columns rows colors chars-per-pixel */
"64 64 180 2 ",
"   c #3C1A27",
".  c #3C1C29",
"X  c #3E1725",
"o  c #3D232D",
"O  c #3F2932",
"+  c #441726",
"@  c #491727",
"#  c #431825",
"$  c #4A1728",
"%  c #4C1A29",
"&  c #531926",
"*  c #5A1926",
"=  c #531728",
"-  c #5A1B2A",
";  c #591929",
":  c #631F25",
">  c #6A1B27",
",  c #65172B",
"<  c #6B172C",
"1  c #641929",
"2  c #681A29",
"3  c #731D27",
"4  c #72172D",
"5  c #74192D",
"6  c #7B1A2B",
"7  c #721C30",
"8  c #4A212E",
"9  c #5C252F",
"0  c #402E35",
"q  c #4C2D35",
"w  c #582931",
"e  c #413137",
"r  c #423339",
"t  c #43393C",
"y  c #5B3136",
"u  c #5A3439",
"i  c #652124",
"p  c #6B2225",
"a  c #63282A",
"s  c #6B2B2B",
"d  c #702226",
"f  c #7B2226",
"g  c #642D39",
"h  c #712435",
"j  c #74283A",
"k  c #603534",
"l  c #64313B",
"z  c #56403E",
"x  c #7B3552",
"c  c #64364A",
"v  c #5C3761",
"b  c #583862",
"n  c #643D60",
"m  c #7B3960",
"M  c #474846",
"N  c #53514C",
"B  c #544A47",
"V  c #615F58",
"C  c #4D695E",
"Z  c #57675B",
"A  c #4E4467",
"S  c #4E4D7F",
"D  c #504B7A",
"F  c #684E6F",
"G  c #70497F",
"H  c #755B77",
"J  c #4E6C60",
"K  c #566D60",
"L  c #517465",
"P  c #527D6A",
"I  c #5B7564",
"U  c #56797B",
"Y  c #646B62",
"T  c #61766C",
"R  c #617969",
"E  c #831A2B",
"W  c #8B1A2B",
"Q  c #961E29",
"!  c #991E29",
"~  c #A31E2B",
"^  c #AA1F2B",
"/  c #B01F2A",
"(  c #83212B",
")  c #8E212A",
"_  c #802624",
"`  c #9E2327",
"'  c #92222A",
"]  c #9B242A",
"[  c #952727",
"{  c #9C3327",
"}  c #97283C",
"|  c #9F2D3B",
" . c #8A263D",
".. c #A02427",
"X. c #A82627",
"o. c #AE2F25",
"O. c #A42329",
"+. c #A82428",
"@. c #A22829",
"#. c #A72E26",
"$. c #B32F26",
"%. c #B4202A",
"&. c #BE2728",
"*. c #B82F26",
"=. c #B63423",
"-. c #BA3524",
";. c #A62B37",
":. c #A92D36",
">. c #AF3939",
",. c #BE3C33",
"<. c #A53325",
"1. c #C72D27",
"2. c #C43425",
"3. c #CB3325",
"4. c #CB3824",
"5. c #CC392C",
"6. c #C5332B",
"7. c #D43625",
"8. c #D73824",
"9. c #DF3E23",
"0. c #CB3E30",
"q. c #C33931",
"w. c #A33E4A",
"e. c #A43345",
"r. c #86435D",
"t. c #904057",
"y. c #984556",
"u. c #B94E46",
"i. c #B34649",
"p. c #A85153",
"a. c #B05552",
"s. c #53826E",
"d. c #558874",
"f. c #38578E",
"g. c #3C5E8F",
"h. c #3365A1",
"j. c #3576B3",
"k. c #56549C",
"l. c #6E6F8D",
"z. c #66698F",
"x. c #435BA7",
"c. c #5561A1",
"v. c #487FB1",
"b. c #537AAA",
"n. c #276DCA",
"m. c #2773CC",
"M. c #267DCE",
"N. c #2775C8",
"B. c #3E91B8",
"V. c #5DAF8C",
"C. c #5DB08D",
"Z. c #5387AF",
"A. c #4782B4",
"S. c #5085B0",
"D. c #2B86C3",
"F. c #298BC7",
"G. c #358BC2",
"H. c #258ED7",
"J. c #249CD5",
"K. c #2590D8",
"L. c #249FDF",
"P. c #2594C6",
"I. c #23ADCA",
"U. c #2BB6C6",
"Y. c #22BBCD",
"T. c #23ADD8",
"R. c #24A5D5",
"E. c #22B7D4",
"W. c #22B0D8",
"Q. c #21C9CD",
"!. c #21C5C9",
"~. c #20D6C7",
"^. c #20D4C8",
"/. c #28D8C8",
"(. c #39DDCB",
"). c #41DFCC",
"_. c #6BEBD2",
"`. c #84F2D6",
"'. c #A6FCDB",
"]. c None",
/* pixels */
"].].].].].].].].].].].].].].].].].].].].].C.C.C.].].].].].].].].].].].].].].].].].].].].].].].].].].].].].].].].].].].].].].].].",
"].].].].].].].].].].].].].].].].].].].].s.L L I Y Y ].].].].].].].].].].].].].].].].].].].].].].].].].].].].].].].].].].].].].].",
"].].].].].].].].].].].].].].].].].].].s.M e e q g j h h 7 5 5 4 5 5 4 5 ].].].].].].].].].].].].].].].].].].].].].].].].].].].].",
"].].].].].].].].].].].].].].].].].K R V w - : p ( ) ) ) ) ) ' ) ' ' ) ' Q ].].].].].].].].].].].].].].].].].].].].].].].].].].].",
"].].].].].].].].].].].].].].].d.M q g j ) ` o.-.-.2.4.2.2.2.4.2.2.3.2.2.%.` E 7 ].].].].].].].].].].].].].].].].].].].].].].].].",
"].].].].].].].].].].].].].].d.Z u 2 E [ %.1.8.9.9.9.9.9.9.9.9.9.9.9.9.7.2.%.] Q ].].].].].].].].].].].].].].].].].].].].].].].].",
"].].].].].].].].].].].].].s.M u ( O.-.4.5.8.9.9.9.9.9.9.9.9.9.9.9.9.9.9.8.7.3.2.%.^ ].].].].].].].].].].].].].].].].].].].].].].",
"].].].].].].].].].].].].].I u f +.1.7.9.9.9.9.9.9.9.9.9.9.9.9.9.9.9.9.9.9.9.9.7.6.&.^ ].].].].].].].].].].].].].].].].].].].].].",
"].].].].].].].].].].].].].].' +.1.8.9.9.9.9.9.9.9.9.9.9.9.9.9.9.9.9.9.9.9.9.9.9.9.3.&.O.].].].].].].].].].].].].].].].].].].].].",
"].].].].].].].].].].].].].].1.6.7.9.9.9.9.9.9.9.9.9.9.9.9.9.9.9.9.9.9.9.9.9.9.9.9.7.1.%.+.].].].].].].].].].].].].].].].].].].].",
"].].].].].].].].].].].].].].6.8.9.9.9.9.9.9.9.9.9.9.9.9.9.9.9.9.9.9.9.9.9.9.9.9.9.9.8.3.%.+.].].].].].].].].].].].].].].].].].].",
"].].].].].].].].].].].].].].3.7.7.7.7.7.7.7.7.7.7.8.7.7.7.8.7.7.9.9.9.9.9.9.9.9.9.9.8.3.&.%.].].].].].].].].].].].].].].].].].].",
"].].].].].].].].].].].].].! %.1.&.&.&.&.&.&.&.&.1.1.%.1.1.%.1.1.8.9.9.9.9.9.9.9.9.7.1.&./ / Q ].].].].].].].].].].].].].].].].].",
"].].].].].].].].].].].].].F r.t.t.t.t.t.t.t.t.t.t.t.t.t.t.t.t.t.p.u.0.7.9.9.9.9.9.7.1./ / ^ W ].].].].].].].].].].].].].].].].].",
"].].].].].].].].].].].].F.G.A.v.v.v.v.v.v.v.v.v.v.v.v.v.v.v.v.v.Z.l.i.&.7.9.9.9.9.7.1./ / ^ W ].].].].].].].].].].].].].].].].].",
"].].].].].].].].].].].].T.T.W.W.T.T.T.T.T.T.T.T.T.T.T.L.T.T.R.T.T.B.H w.q.7.9.9.9.7.&./ / ^ W 4 ].].].].].].].].].].].].].].].].",
"].].].].].].].].].].~.^.Q.Q.Q.Q.Q.Q.Q.Q.Q.Q.Q.Q.Q.Q.Q.Q.Q.Q.Q.Q.Q.U.B.z.w.1.8.9.9.7.1./ / ~ E < = ].].].].].].].].].].].].].].].",
"].].].].].].].].].].~./.(.).).).).).).).).).).).).).).).).).).(./.Q.E.B.H w.0.9.9.7.&./ / ~ 6 2 d _ [ ].].].].].].].].].].].].].",
"].].].].].].].].~.~.~.(._.`.`.`.`.`.`.`.`.`.`.`.`.`.`.`.`.`.`._.(.~.Q.U.A.l.u.9.9.7.1./ / ! , 1 { 4.5.2.' ].].].].].].].].].].].",
"].].].].].].].].^.~.~.).`.'.'.'.'.'.'.'.'.'.'.'.'.'.'.'.'.'.'.`.).~.~.Q.W.Z.a.9.9.7.1./ / ! ; * o.7.9.7.o.' ].].].].].].].].].].",
"].].].].].].].].^.~.~.).`.'.'.'.'.'.'.'.'.'.'.'.'.'.'.'.'.'.'.`.).~.~.Q.T.Z.a.9.9.7.&./ %.! ; , ` 1.8.8.7.-.) ].].].].].].].].].",
"].].].].].].].].^.~.~.(._.`.`.`.`.`.`.`.`.`.`.`.`.`.`.`.`.`.`._.(.~.~.Q.T.Z.a.9.9.7.1./ / ! , , Q &.3.7.9.2.' 7 ].].].].].].].].",
"].].].].].].].].~.~.~./.(.).).).).).).).).).).).).).).).).).).(./.~.~.Q.T.Z.u.9.9.7.&./ %.~ 6 4 ~ %.&.1.7.2.' 7 ].].].].].].].].",
"].].].].].].].].Q.~.Q.Q.Q.Q.Q.Q.Q.Q.Q.Q.Q.Q.Q.Q.Q.Q.Q.Q.Q.Q.Q.Q.Q.Q.^.Q.J.b.a.9.9.7.&./ %.~ E E ~ / / 1.7.2.' 5 ].].].].].].].].",
"].].].].].].].P.!.Q.E.W.T.T.T.T.T.T.T.T.T.T.T.T.T.T.T.T.T.T.T.T.W.E.Q.Y.F.c.i.9.9.7.&.%.%.^ E E ~ %.%.&.7.2.) 7 ].].].].].].].].",
"].].].].].].].F.Y.Y.J.K.H.H.H.H.H.H.H.H.H.H.H.H.H.H.H.H.H.H.H.H.H.L.E.I.N.k.i.9.9.7.&.%.%.~ E E ~ %./ &.7.2.( , ].].].].].].].].",
"].].].].].].].].T.J.M.n.n.n.n.n.n.n.n.n.n.n.n.n.n.n.n.n.n.n.n.n.n.M.J.J.m.k.i.9.9.7.&.%.%.~ E E ~ / %.&.7.-.d % ].].].].].].].].",
"].].].].].].].].L.K.M.n.n.n.n.n.n.n.n.n.n.n.n.n.n.n.n.n.n.n.n.n.n.N.D.j.x.G i.9.9.7.&.%.%.~ E E ~ %.%.1.7.-.i . ].].].].].].].].",
"].].].].].].].].].].K.H.H.H.H.H.H.H.H.H.H.H.H.H.H.H.H.H.H.H.H.H.K.M.h.D x e.5.9.9.7.&.%.%.~ E E ~ %.%.1.7.-.i . ].].].].].].].].",
"].].].].].].].].].].D.D.D.D.D.D.D.D.D.D.D.D.D.D.D.D.D.D.D.D.D.D.D.h.D x ;.6.7.9.9.7.&.%.%.~ E E ^ / / &.7.=.i . ].].].].].].].].",
"].].].].].].].].].].g.f.f.f.f.f.f.f.f.f.f.f.f.f.f.f.f.f.f.f.f.f.f.D r.;.6.7.9.9.9.7.&.%.%.~ E E ^ / / 1.7.-.i . ].].].].].].].].",
"].].].].].].].].].U A b b b v v v v v v v v v v v v v v v v v n n x :.1.8.9.9.9.9.7.&.%.%.~ E E ~ / / &.7.-.p . ].].].].].].].].",
"].].].].].].].].].T c h  .} } } } } } } } } } } } } } } } } } ;.>.,.5.8.9.9.9.9.9.7.1./ / ^ E E ~ / / 1.7.-.i   ].].].].].].].].",
"].].].].].].].].].T g 6 +.&.&.&.&.&.&.&.&.&.&.&.&.&.&.&.&.&.&.1.7.9.9.9.9.9.9.9.9.7./ / / ^ E E ~ / / &.8.-.i o ].].].].].].].].",
"].].].].].].].].].I q > o.7.8.8.7.7.7.7.7.7.7.7.7.7.7.7.7.7.7.8.9.9.9.9.9.9.9.9.9.7.1./ / ^ E E ^ / / &.7.-.p . ].].].].].].].].",
"].].].].].].].].].J 0 : o.4.-.=.=.=.=.-.2.2.2.4.9.9.9.9.9.9.9.9.9.9.9.9.9.9.9.9.9.7.1./ / ^ 6 6 ~ / / 1.7.=.p   ].].].].].].].].",
"].].].].].].].].].J 0 * ..X.f i i i i p ( ) ) @.4.9.9.9.9.9.9.9.9.9.9.9.9.9.9.9.9.7.&./ / ! 1 1 ! / / &.8.1.p . ].].].].].].].].",
"].].].].].].].].].C O & 6 E > * ; - i d _ ) ) ` $.2.7.7.7.7.7.7.9.9.9.9.9.9.9.9.9.7.&./ / Q & * ! / / &.8.-.p   ].].].].].].].].",
"].].].].].].].].].C O + & > E Q Q ..o.=.2.2.2.=.] ] %.&.%.1.&.1.9.9.9.9.9.9.9.9.9.7.1.%./ ! * * ! / / &.7.-.>   ].].].].].].].].",
"].].].].].].].].].L O + & 3 O.1.1.1.7.9.9.9.9.5.@.[ %.&.1.&.&.1.8.9.9.9.9.9.9.9.9.7.&.%.%.! * * Q / &.&.7.2.p X ].].].].].].].].",
"].].].].].].].].C.s.e & 6 X.2.7.7.7.9.9.9.9.9.7.4.3.3.7.7.7.7.9.9.9.9.9.9.9.9.9.9.8.1./ %.Q * * ! %./ 1.7.2.p X ].].].].].].].].",
"].].].].].].].].d.Z k f X.3.8.9.9.9.9.9.9.9.9.9.9.9.9.9.9.9.9.9.9.9.9.9.9.9.9.9.9.8.1./ / Q * * Q / / %.-.<.s ].].].].].].].].].",
"].].].].].].].].O u { -.4.8.9.9.9.9.9.9.9.9.9.9.9.9.9.9.9.9.9.9.9.9.9.9.9.9.9.9.9.7./ / %.Q * * Q %.%.O.f a ].].].].].].].].].].",
"].].].].].].].].. i o.8.8.9.7.7.7.7.9.9.9.9.9.9.9.9.9.9.9.9.9.9.9.9.8.8.9.9.9.9.9.7.1./ / Q * = E ! ! ( & o ].].].].].].].].].].",
"].].].].].].].].  - ..1.8.8.1.1.&.1.8.9.9.9.9.9.9.9.9.9.9.9.9.9.9.8.1.1.7.9.9.9.9.7.&./ / ! * + & * * & # . ].].].].].].].].].].",
"].].].].].].].].  * ! &.3.3.%.%./ &.3.7.7.7.8.8.9.9.9.9.9.9.8.7.7.3.&.&.7.9.9.8.7.7.&./ / ! * . o O o . o ].].].].].].].].].].].",
"].].].].].].].].X - ! / &.&.%.%./ %.&.&.&.&.1.1.8.9.9.9.9.8.1.&.1.&./ &.7.9.9.8.1./ &./ / ! * o M C ].].].].].].].].].].].].].].",
"].].].].].].].].0 9 W ! ! Q ! Q ! ! Q Q Q Q Q O.1.7.7.7.7.3.&.%./ / / 1.3.7.7.3.&./ ~ Q ~ E w t ].].].].].].].].].].].].].].].].",
"].].].].].].].].].B 9 1 * * * * * * * * * * * 3 O.&.&.&.&.%.%.%.%./ / / %.&.1.&./ ! > * * w N ].].].].].].].].].].].].].].].].].",
"].].].].].].].].].].].. . . .   . . X . . o O w ( Q Q Q Q Q ] ! ! ! ! Q ! Q ~ ~ ~ Q > * * w N ].].].].].].].].].].].].].].].].].",
"].].].].].].].].].].].].].].].].].].].].].].C N w * * * ; * * ; * * * * ; , 6 E E W Q Q Q E w 0 ].].].].].].].].].].].].].].].].",
"].].].].].].].].].].].].].].].].].].].].].].].].t o . X + @ @ $ @ @ @ $ $ ; 5 E E Q ~ &.&...3 - ].].].].].].].].].].].].].].].].",
"].].].].].].].].].].].].].].].].].].].].].].].].].M o @ ; , , , , , , , , 4 Q ~ ~ ~ / &.3.1.X.E 9   ].].].].].].].].].].].].].].",
"].].].].].].].].].].].].].].].].].].].].].].].].].].r 8 - < 4 4 4 5 E E E Q ~ / %.1.&.1.8.8.1.` - X ].].].].].].].].].].].].].].",
"].].].].].].].].].].].].].].].].].].].].].].].].].].].M 8 = < 4 4 6 Q ~ ^ ^ / &.3.7.7.7.9.8.7.o.i X ].].].].].].].].].].].].].].",
"].].].].].].].].].].].].].].].].].].].].].].].].].].].].t % - , , 4 W ~ %./ 1.1.8.9.9.9.9.9.8.=.i   ].].].].].].].].].].].].].].",
"].].].].].].].].].].].].].].].].].].].].].].].].].].].].].M 8 $ $ % * f $.7.7.7.9.9.9.9.9.7.1...- X ].].].].].].].].].].].].].].",
"].].].].].].].].].].].].].].].].].].].].].].].].].].].].].].e o . o o a { =.=.=.=.=.=.=.=.o...( 9 . ].].].].].].].].].].].].].].",
"].].].].].].].].].].].].].].].].].].].].].].].].].].].].].].].].].].].z a p i i i i i i i a - - ].].].].].].].].].].].].].].].].",
"].].].].].].].].].].].].].].].].].].].].].].].].].].].].].].].].].].].].t r r r t O O e O O e e ].].].].].].].].].].].].].].].].",
"].].].].].].].].].].].].].].].].].].].].].].].].].].].].].].].].].].].].P P s.P P L L L L L L ].].].].].].].].].].].].].].].].].",
"].].].].].].].].].].].].].].].].].].].].].].].].].].].].].].].].].].].].].].V.V.].].].].].].].].].].].].].].].].].].].].].].].].",
"].].].].].].].].].].].].].].].].].].].].].].].].].].].].].].].].].].].].].].].].].].].].].].].].].].].].].].].].].].].].].].].].",
"].].].].].].].].].].].].].].].].].].].].].].].].].].].].].].].].].].].].].].].].].].].].].].].].].].].].].].].].].].].].].].].]."
};
