/* XPM */
static char *result[] = {
/* columns rows colors chars-per-pixel */
"64 64 183 2 ",
"   c #3C1A27",
".  c #3C1D29",
"X  c #3C1725",
"o  c #3D222D",
"O  c #3F2731",
"+  c #3F2A32",
"@  c #471926",
"#  c #5A1926",
"$  c #561C28",
"%  c #631E26",
"&  c #651A29",
"*  c #661929",
"=  c #721C27",
"-  c #73172D",
";  c #73192E",
":  c #7A192B",
">  c #7B1E27",
",  c #721D31",
"<  c #691E39",
"1  c #4B212D",
"2  c #57222C",
"3  c #5B242D",
"4  c #412E35",
"5  c #4C2C35",
"6  c #572C33",
"7  c #582931",
"8  c #45373B",
"9  c #593136",
"0  c #593439",
"q  c #652124",
"w  c #6E2126",
"e  c #612E2F",
"r  c #61232C",
"t  c #742126",
"y  c #6F2C3B",
"u  c #642735",
"i  c #722334",
"p  c #7F2635",
"a  c #7E2836",
"s  c #702B3A",
"d  c #7A2A39",
"f  c #6F333E",
"g  c #70303D",
"h  c #78353E",
"j  c #55335D",
"k  c #6F3742",
"l  c #693942",
"z  c #7B3552",
"x  c #5C3761",
"c  c #5F3961",
"v  c #643D60",
"b  c #7B3960",
"n  c #464444",
"m  c #474E4B",
"M  c #524948",
"N  c #544143",
"B  c #48504C",
"V  c #55544D",
"C  c #555953",
"Z  c #724B4D",
"A  c #75524F",
"S  c #6E5F59",
"D  c #725351",
"F  c #4E6A5E",
"G  c #4C675B",
"H  c #55685D",
"J  c #68625E",
"K  c #5A4064",
"L  c #4E4D7F",
"P  c #504B7A",
"I  c #6A4060",
"U  c #70497F",
"Y  c #755B77",
"T  c #556F61",
"R  c #547364",
"E  c #517B6A",
"W  c #626D62",
"Q  c #686A63",
"!  c #657167",
"~  c #657569",
"^  c #657A6B",
"/  c #841A2C",
"(  c #8B1E2B",
")  c #961E29",
"_  c #9B1E29",
"`  c #A31E2B",
"'  c #AC1F2A",
"]  c #83212B",
"[  c #8E212A",
"{  c #9E2327",
"}  c #92212C",
"|  c #99212C",
" . c #9B2D24",
".. c #802535",
"X. c #882E34",
"o. c #8D2636",
"O. c #97283C",
"+. c #9F2D3B",
"@. c #9B3326",
"#. c #A42427",
"$. c #AE2F24",
"%. c #A42328",
"&. c #AC2429",
"*. c #A22828",
"=. c #B22F25",
"-. c #BB2F26",
";. c #B4202A",
":. c #BF2728",
">. c #B63423",
",. c #BA3423",
"<. c #B13329",
"1. c #A72C36",
"2. c #BE3C32",
"3. c #AF3938",
"4. c #C72D26",
"5. c #C43425",
"6. c #CA3325",
"7. c #CC3C2D",
"8. c #C5332A",
"9. c #D43624",
"0. c #D73823",
"q. c #DF3E22",
"w. c #C33931",
"e. c #A33E4A",
"r. c #A43345",
"t. c #844059",
"y. c #904057",
"u. c #984555",
"i. c #B54848",
"p. c #B0524F",
"a. c #A85152",
"s. c #B05651",
"d. c #548670",
"f. c #558A73",
"g. c #608471",
"h. c #38578E",
"j. c #375C94",
"k. c #33639C",
"l. c #3365A1",
"z. c #3576B3",
"x. c #56549B",
"c. c #6E6F8D",
"v. c #66698F",
"b. c #435BA7",
"n. c #5561A0",
"m. c #487FB1",
"M. c #537AAA",
"N. c #276DCA",
"B. c #2773CC",
"V. c #2779CB",
"C. c #3683BA",
"Z. c #3E91B8",
"A. c #5CAE8D",
"S. c #5287AF",
"D. c #4781B2",
"F. c #2B86C3",
"G. c #288FCC",
"H. c #2789C7",
"J. c #258ED7",
"K. c #249CD5",
"L. c #2590D8",
"P. c #249FDF",
"I. c #2493C7",
"U. c #22BBCD",
"Y. c #2BB6C6",
"T. c #23ADD8",
"R. c #24A5D5",
"E. c #22B7D4",
"W. c #22B0D8",
"Q. c #23ADCA",
"!. c #1FD5C7",
"~. c #21C5CA",
"^. c #21C9CD",
"/. c #21CDC7",
"(. c #20D6C7",
"). c #20D4C8",
"_. c #28D8C8",
"`. c #39DDCB",
"'. c #41DFCC",
"]. c #6BEBD2",
"[. c #84F2D6",
"{. c #A6FCDB",
"}. c None",
/* pixels */
"}.}.}.}.}.}.}.}.}.}.}.}.}.}.}.}.}.}.}.}.}.}.}.}.}.}.}.}.}.}.}.}.}.}.}.}.}.}.}.}.}.}.}.}.}.}.}.}.}.}.}.}.}.}.}.}.}.}.}.}.}.}.}.}.",
"}.}.}.}.}.}.}.}.}.}.}.}.}.}.}.}.}.}.}.}.}.}.}.}.}.}.}.}.}.}.}.}.}.}.}.}.}.}.}.}.}.}.}.}.}.}.}.}.}.}.}.}.}.}.}.}.}.}.}.}.}.}.}.}.",
"}.}.}.}.}.}.}.}.}.}.}.}.}.}.}.}.}.}.}.}.}.}.}.}.}.}.}.}.}.}.}.}.}.}.}.}.}.}.}.}.}.}.}.}.}.}.}.}.}.}.}.}.}.}.}.}.}.}.}.}.}.}.}.}.",
"}.}.}.}.}.}.}.}.}.}.}.}.}.}.}.}.}.}.}.}.}.}.}.}.}.}.}.}.}.}.}.}.}.}.}.}.}.}.}.}.}.}.}.}.}.}.}.}.}.}.}.}.}.}.}.}.}.}.}.}.}.}.}.}.",
"}.}.}.}.}.}.}.}.}.}.}.}.}.}.}.}.}.}.}.}.}.}.}.}.}.}.}.}.}.}.}.}.}.}.}.}.}.}.}.}.}.}.}.}.}.}.}.}.}.}.}.}.}.}.}.}.}.}.}.}.}.}.}.}.",
"}.}.}.}.}.}.}.}.}.}.}.}.}.}.}.}.}.}.}.}.}.}.}.}.}.}.}.}.}.}.}.}.}.}.}.}.}.}.}.}.}.}.}.}.}.}.}.}.}.}.}.}.}.}.}.}.}.}.}.}.}.}.}.}.",
"}.}.}.}.}.}.}.}.}.}.}.}.}.}.}.}.}.}.}.}.}.}.}.}.}.}.}.}.}.}.}.}.}.}.}.}.}.}.}.}.}.}.}.}.}.}.}.}.}.}.}.}.}.}.}.}.}.}.}.}.}.}.}.}.",
"}.}.}.}.}.}.}.}.}.}.}.}.}.}.}.}.}.}.}.}.}.}.}.}.}.}.}.}.Q Q ! ~ ^ ~ ~ ! ! W R F F }.}.}.}.}.}.}.}.}.}.}.}.}.}.}.}.}.}.}.}.}.}.}.",
"}.}.}.}.}.}.}.}.}.}.}.}.}.}.}.}.}.}.}.}.}.}.}.}.k i i i i s y y g y y s y u 5 + + m f.A.}.}.}.}.}.}.}.}.}.}.}.}.}.}.}.}.}.}.}.}.",
"}.}.}.}.}.}.}.}.}.}.}.}.}.}.}.}.}.}.}.}.}.}.Q D a / [ } [ [ [ } } [ [ [ } ] w q # 0 H g.R }.}.}.}.}.}.}.}.}.}.}.}.}.}.}.}.}.}.}.",
"}.}.}.}.}.}.}.}.}.}.}.}.}.}.}.}.}.}.}.}.k i s a | &.,.5.5.5.5.5.5.5.5.5.5.,.>.$.{ X.h l 5 n f.A.}.}.}.}.}.}.}.}.}.}.}.}.}.}.}.}.",
"}.}.}.}.}.}.}.}.}.}.}.}.}.}.}.}.}.}.}.Z ../ ( _ ;.4.0.q.q.q.q.q.q.q.q.q.q.q.q.q.4.;.{ ] & 9 T f.}.}.}.}.}.}.}.}.}.}.}.}.}.}.}.}.",
"}.}.}.}.}.}.}.}.}.}.}.}.}.}.}.}.}.}.k a | &.-.5.6.q.q.q.q.q.q.q.q.q.q.q.q.q.q.q.0.9.6.,.#.] 0 m d.}.}.}.}.}.}.}.}.}.}.}.}.}.}.}.",
"}.}.}.}.}.}.}.}.}.}.}.}.}.}.}.}.}.Z ..) &.4.0.q.q.q.q.q.q.q.q.q.q.q.q.q.q.q.q.q.q.q.q.0.4.%.= 9 H d.}.}.}.}.}.}.}.}.}.}.}.}.}.}.",
"}.}.}.}.}.}.}.}.}.}.}.}.}.}.}.}.k ..| ;.8.0.q.q.q.q.q.q.q.q.q.q.q.q.q.q.q.q.q.q.q.q.q.0.0.5.%.] 9 8 }.}.}.}.}.}.}.}.}.}.}.}.}.}.",
"}.}.}.}.}.}.}.}.}.}.}.}.}.}.}.Z p ) &.4.0.q.q.q.q.q.q.q.q.q.q.q.q.q.q.q.q.q.q.q.q.q.q.q.q.0.4.%.* @ }.}.}.}.}.}.}.}.}.}.}.}.}.}.",
"}.}.}.}.}.}.}.}.}.}.}.}.}.}.s .._ ;.4.0.q.q.q.q.q.q.q.q.q.q.q.q.q.q.q.0.q.q.q.0.q.q.q.q.q.0.9.-.] * }.}.}.}.}.}.}.}.}.}.}.}.}.}.",
"}.}.}.}.}.}.}.}.}.}.}.}.}.}., / %.:.6.9.q.q.q.q.q.q.q.q.q.q.0.9.9.9.9.9.9.9.9.9.9.9.9.9.9.9.9.4.} - }.}.}.}.}.}.}.}.}.}.}.}.}.}.",
"}.}.}.}.}.}.}.}.}.}.}.}.}.}., / ` ;.:.4.9.q.q.q.q.q.q.q.q.0.6.:.4.:.:.:.4.:.4.:.:.:.:.:.4.:.:.&.( - }.}.}.}.}.}.}.}.}.}.}.}.}.}.",
"}.}.}.}.}.}.}.}.}.}.}.}.}.}.i / ` ;.;.:.9.q.q.q.q.q.0.7.i.a.u.y.y.y.y.y.y.y.y.y.y.y.y.y.y.y.y.t.v K }.}.}.}.}.}.}.}.}.}.}.}.}.}.",
"}.}.}.}.}.}.}.}.}.}.}.}.}.! y / ` ;.;.:.9.q.q.q.q.9.4.e.c.S.D.m.m.D.D.D.m.m.m.m.m.m.m.m.m.m.m.m.C.C.}.}.}.}.}.}.}.}.}.}.}.}.}.}.",
"}.}.}.}.}.}.}.}.}.}.}.}.R C y / ` ;.;.:.9.q.q.q.9.2.e.Y D.T.T.T.P.T.T.T.T.T.T.T.T.T.T.T.T.T.T.T.T.W.}.}.}.}.}.}.}.}.}.}.}.}.}.}.",
"}.}.}.}.}.}.}.}.}.}.k r 5 5 & / ` ;.;.:.9.q.q.0.4.e.v.D.U.^.^.^.^.^.^.^.^.^.^.^.^.^.^.^.^.^.^.^.^.^.).).}.}.}.}.}.}.}.}.}.}.}.}.",
"}.}.}.}.}.}.}.}.}.D o.] w & & : ` ;.;.:.9.q.q.7.a.Y Z.E.)._.`.'.'.'.'.'.'.'.'.'.'.'.'.`.'.'.'.'.'.`._.).}.}.}.}.}.}.}.}.}.}.}.}.",
"}.}.}.}.}.}.}.}.k X.<.,.,. .% & _ ;.;.:.9.q.q.i.c.D.U.).).`.].[.[.[.[.[.[.[.[.[.[.[.[.[.[.[.[.[.[.].`.).).).}.}.}.}.}.}.}.}.}.}.",
"}.}.}.}.}.}.}.A X.*.6.q.9.$.% # ) ;.;.:.9.q.q.s.S.T.^._.(.'.[.{.{.{.{.{.{.{.{.{.{.{.{.{.{.{.{.{.{.[.'.(.(.(.}.}.}.}.}.}.}.}.}.}.",
"}.}.}.}.}.}.g X.<.6.q.0.4.{ # # ) ;.;.:.9.q.q.s.S.T.^.).(.'.[.{.{.{.{.{.{.{.{.{.{.{.{.{.{.{.{.{.{.[.'.(.(.).}.}.}.}.}.}.}.}.}.}.",
"}.}.}.}.}.}.i [ 5.q.0.6.:._ * * _ ;.;.:.9.q.q.s.S.W.^.).(.`.].[.[.[.[.[.[.[.[.[.[.[.[.[.[.[.[.[.[.].`.(.).).}.}.}.}.}.}.}.}.}.}.",
"}.}.}.}.}.}.i [ 5.0.4.:.;.` ; : ` ;.;.:.9.q.q.s.S.T.^.).(._.`.'.'.'.'.'.'.'.'.'.'.'.'.'.'.'.'.'.'.`._.(.(.).}.}.}.}.}.}.}.}.}.}.",
"}.}.}.}.}.}.i [ 5.9.:.;.;.` / / ` ;.;.:.9.q.q.a.M.R.^.).^.^.^.^.^.^.^.^.^.^.^.^.^.^.^.~.^.^.^.^.^.^.^./.)./.}.}.}.}.}.}.}.}.}.}.",
"}.}.}.}.}.}.i } 5.0.:.;.;.` / / ` ;.;.:.9.q.q.i.n.H.U.^.E.T.T.T.T.T.T.T.T.T.T.T.T.T.T.T.T.T.T.T.T.T.T.E./.~.I.}.}.}.}.}.}.}.}.}.",
"}.}.}.}.}.}.r / ,.0.:.;.;.` / / ` ;.;.:.9.q.q.i.x.B.Q.U.K.L.J.J.J.J.J.J.J.J.J.J.J.J.J.J.J.J.J.L.L.L.L.K.U.U.G.}.}.}.}.}.}.}.}.}.",
"}.}.}.}.}.}.1 w 4.9.:.;.;.` / / ` ;.;.4.q.q.q.i.x.N.K.K.V.N.N.N.N.N.N.N.N.N.N.N.N.N.N.N.N.N.N.N.N.N.N.V.K.T.}.}.}.}.}.}.}.}.}.}.",
"}.}.}.}.}.}.o q =.9.:.;.;.` / / ` ;.;.;.0.q.q.r.U b.z.V.B.N.N.N.N.N.N.N.N.N.N.N.N.N.N.N.N.N.N.N.N.N.N.B.L.P.}.}.}.}.}.}.}.}.}.}.",
"}.}.}.}.}.}.o q ,.9.:.;.;.` / / ` ;.;.4.9.q.q.7.r.z L l.F.J.L.L.J.J.J.J.J.J.J.J.J.J.J.J.J.J.J.J.L.L.L.L.}.}.}.}.}.}.}.}.}.}.}.}.",
"}.}.}.}.}.}.. q >.9.;.;.;.` / / ` ;.;.4.9.q.q.0.8.1.z P z.F.F.F.F.F.F.F.F.F.F.F.F.H.F.F.F.F.F.F.F.F.G.J.}.}.}.}.}.}.}.}.}.}.}.}.",
"}.}.}.}.}.}.o q >.9.:.;.;.` / / ` ;.;.;.9.q.q.q.9.8.1.z P h.h.h.h.h.h.h.h.h.h.h.h.h.h.h.h.h.h.h.h.j.j.l.}.}.}.}.}.}.}.}.}.}.}.}.",
"}.}.}.}.}.}.. q >.9.:.;.;._ : : ` ;.;.:.9.q.q.q.q.0.4.1.z v c c x x x x x x x x x x x x x x x x x x x }.}.}.}.}.}.}.}.}.}.}.}.}.",
"}.}.}.}.}.}.@ % -.9.4.' ;.) * * _ ;.;.:.9.q.q.q.q.q.0.7.2.3.+.O.O.O.O.O.O.O.O.O.O.O.O.O.O.O.O.O.O.o.< < }.}.}.}.}.}.}.}.}.}.}.}.",
"}.}.}.}.}.}.o % =.6.4.;.;.) # # _ ;.;.:.9.q.q.q.q.q.q.q.q.9.4.4.:.:.:.:.:.:.:.4.:.:.:.:.:.:.4.4.4.' ( - }.}.}.}.}.}.}.}.}.}.}.}.",
"}.}.}.}.}.}.. q >.9.:.;.;.) # # _ ;.;.:.9.q.q.q.q.q.q.q.q.q.0.9.9.9.9.9.0.9.9.9.9.9.9.9.0.0.9.9.9.-.( - }.}.}.}.}.}.}.}.}.}.}.}.",
"}.}.}.}.}.}.. q ,.9.:.;.;.) # # ) ;.;.:.9.0.q.q.q.q.q.q.q.q.q.q.0.q.q.q.q.q.q.q.q.q.q.q.q.q.q.q.q.5.( - }.}.}.}.}.}.}.}.}.}.}.}.",
"}.}.}.}.}.}.. q =.9.4.;.;.) # # ) ;.;.:.9.q.q.q.q.q.q.q.q.q.q.q.q.q.q.q.q.q.q.q.q.q.q.q.q.q.q.q.q.5.[ - }.}.}.}.}.}.}.}.}.}.}.}.",
"}.}.}.}.}.}.  q -.6.:.;.;.) # # ) ;.;.:.9.q.q.q.q.q.q.q.q.q.q.q.q.q.q.q.q.q.q.q.q.q.q.q.q.q.q.q.q.6.} ; }.}.}.}.}.}.}.}.}.}.}.}.",
"}.}.}.}.}.}.. q >.9.4.;.;.) # # _ ;.;.:.9.q.q.q.q.q.q.q.q.q.q.q.q.q.q.q.q.q.q.q.q.q.q.q.q.q.q.q.q.5.[ - }.}.}.}.}.}.}.}.}.}.}.}.",
"}.}.}.}.}.}.  q >.9.:.' ;.) # # ) ;.;.:.9.q.q.q.q.q.q.q.q.q.q.q.q.q.q.q.q.q.q.q.q.q.q.q.q.q.q.q.q.5.} ; }.}.}.}.}.}.}.}.}.}.}.}.",
"}.}.}.}.}.}.  q >.9.;.;.;.) # # ) ;.;.:.9.q.q.q.q.q.q.q.q.q.q.q.q.q.q.q.q.q.q.q.q.q.q.q.q.q.q.q.q.5.} = }.}.}.}.}.}.}.}.}.}.}.}.",
"}.}.}.}.}.}.4 e @.:.;.;.;.) # # ) ;.;.4.9.q.q.q.q.q.q.q.q.q.q.q.0.9.9.9.9.9.9.0.q.q.q.q.q.q.q.q.q.5.] & }.}.}.}.}.}.}.}.}.}.}.}.",
"}.}.}.}.}.}.}.V e t { ;.;.) # # ) ;.;.:.9.q.q.q.q.q.q.q.q.q.q.0.4.:.:.:.4.:.:.4.0.q.q.q.q.q.q.q.q.,.t 1 }.}.}.}.}.}.}.}.}.}.}.}.",
"}.}.}.}.}.}.}.}.l 6 ] ) ) : $ # ) ;.;.:.9.q.q.q.q.q.q.q.q.q.0.5.&.` ` ` ) _ ' :.6.0.q.q.q.q.q.q.q.,.q   }.}.}.}.}.}.}.}.}.}.}.}.",
"}.}.}.}.}.}.}.}.E V 6 $ # @ @ # ) ;.;.:.9.q.q.q.q.q.q.q.q.0.4.=.) / / ; * = { ;.:.4.0.q.q.q.q.q.q.,.q   }.}.}.}.}.}.}.}.}.}.}.}.",
"}.}.}.}.}.}.}.}.}.}.+ o 4 o   # ) ;.;.:.9.q.q.q.q.q.q.q.q.9.;.} d y y u 5 7 / _ ' 4.9.q.q.q.q.q.q.,.q   }.}.}.}.}.}.}.}.}.}.}.}.",
"}.}.}.}.}.}.}.}.}.}.}.}.G m o # ) ;.;.:.9.q.q.q.q.q.q.q.q.6.{ d J ^ ! W R V 7 = _ :.9.q.q.q.q.q.q.,.q   }.}.}.}.}.}.}.}.}.}.}.}.",
"}.}.}.}.}.}.}.}.}.}.}.}.}.G 4 # ) ;.;.:.9.q.q.q.q.q.q.q.q.4.] u ! }.}.}.}.F O # ) :.9.q.q.q.q.q.q.,.q   }.}.}.}.}.}.}.}.}.}.}.}.",
"}.}.}.}.}.}.}.}.}.}.}.}.}.}.. # ) ;.;.:.9.q.q.q.q.q.q.q.q.,.w 1 }.}.}.}.}.}.  * _ :.9.q.q.q.q.q.q.,.q   }.}.}.}.}.}.}.}.}.}.}.}.",
"}.}.}.}.}.}.}.}.}.}.}.}.}.}.  # ) ;.;.4.6.0.q.q.q.q.q.q.9.=.% X }.}.}.}.}.}.}.* _ :.9.q.q.q.q.q.q.$.q   }.}.}.}.}.}.}.}.}.}.}.}.",
"}.}.}.}.}.}.}.}.}.}.}.}.}.}.  # ) ;.;.;.:.4.0.q.q.q.q.0.4.%.%   }.}.}.}.}.}.}.* ` :.9.q.q.q.q.0.4.*.% . }.}.}.}.}.}.}.}.}.}.}.}.",
"}.}.}.}.}.}.}.}.}.}.}.}.}.}.8 6 ] _ ' ;.;.:.6.9.q.q.0.5.#.] 3 }.}.}.}.}.}.}.}.r ( &.6.0.q.q.0.5.%.] 3 4 }.}.}.}.}.}.}.}.}.}.}.}.",
"}.}.}.}.}.}.}.}.}.}.}.}.}.}.E C 6 = _ ;.;.;.:.4.9.0.4.#.> 2 N }.}.}.}.}.}.}.}.}.3 > &.4.9.0.4.#.> 3 M }.}.}.}.}.}.}.}.}.}.}.}.}.",
"}.}.}.}.}.}.}.}.}.}.}.}.}.}.}.E n 7 ] } ) ) ) { $.$.{ / 2 4 }.}.}.}.}.}.}.}.}.}.}.3 ] %.$.$.{ / 2 8 }.}.}.}.}.}.}.}.}.}.}.}.}.}.",
"}.}.}.}.}.}.}.}.}.}.}.}.}.}.}.}.E C 7 # # # # # % q # 2 0 }.}.}.}.}.}.}.}.}.}.}.}.}.$ # % q # 7 M }.}.}.}.}.}.}.}.}.}.}.}.}.}.}.",
"}.}.}.}.}.}.}.}.}.}.}.}.}.}.}.}.}.E 4 .   . . X X     o }.}.}.}.}.}.}.}.}.}.}.}.}.}.o . . . . + }.}.}.}.}.}.}.}.}.}.}.}.}.}.}.}.",
"}.}.}.}.}.}.}.}.}.}.}.}.}.}.}.}.}.}.}.}.}.}.}.}.}.}.}.}.}.}.}.}.}.}.}.}.}.}.}.}.}.}.}.}.}.}.}.}.}.}.}.}.}.}.}.}.}.}.}.}.}.}.}.}.",
"}.}.}.}.}.}.}.}.}.}.}.}.}.}.}.}.}.}.}.}.}.}.}.}.}.}.}.}.}.}.}.}.}.}.}.}.}.}.}.}.}.}.}.}.}.}.}.}.}.}.}.}.}.}.}.}.}.}.}.}.}.}.}.}."
};
