/* XPM */
static char *result[] = {
/* columns rows colors chars-per-pixel */
"64 64 187 2 ",
"   c #3C1625",
".  c #3C1C29",
"X  c #3C1A27",
"o  c #3E232D",
"O  c #3F2931",
"+  c #3F2730",
"@  c #491727",
"#  c #4D1827",
"$  c #4A1D2C",
"%  c #451826",
"&  c #541926",
"*  c #5A1A26",
"=  c #5A192A",
"-  c #551A2A",
";  c #631E26",
":  c #681C27",
">  c #65172B",
",  c #641929",
"<  c #6D192B",
"1  c #711B27",
"2  c #73162D",
"3  c #74192C",
"4  c #7B192B",
"5  c #781E27",
"6  c #6A1D30",
"7  c #721D31",
"8  c #4A222F",
"9  c #57252E",
"0  c #58262F",
"q  c #402E35",
"w  c #4A2A34",
"e  c #572831",
"r  c #423539",
"t  c #433B3D",
"y  c #413137",
"u  c #5C3137",
"i  c #5B3238",
"p  c #642124",
"a  c #692124",
"s  c #622A2C",
"d  c #63242F",
"f  c #722126",
"g  c #7A2226",
"h  c #652136",
"j  c #722435",
"k  c #742739",
"l  c #613534",
"z  c #603B38",
"x  c #443D40",
"c  c #7B3D41",
"v  c #7B3552",
"b  c #5C3761",
"n  c #583861",
"m  c #4C3563",
"M  c #643D60",
"N  c #7B3960",
"B  c #474B49",
"V  c #484948",
"C  c #544A46",
"Z  c #554945",
"A  c #4E5650",
"S  c #6F484A",
"D  c #4D665B",
"F  c #586F5F",
"G  c #566458",
"H  c #4E4D7F",
"J  c #504B7A",
"K  c #70497F",
"L  c #755B77",
"P  c #684D6E",
"I  c #4F6C60",
"U  c #527D6B",
"Y  c #547766",
"T  c #841A2B",
"R  c #8A1C2B",
"E  c #951E29",
"W  c #9C1E2A",
"Q  c #A31E2B",
"!  c #AA1F2B",
"~  c #B01F2A",
"^  c #812625",
"/  c #832824",
"(  c #84212A",
")  c #8E212A",
"_  c #8C282F",
"`  c #9E2327",
"'  c #93222B",
"]  c #9B232A",
"[  c #902A2F",
"{  c #9B2D24",
"}  c #9D3226",
"|  c #9A352A",
" . c #892A36",
".. c #97283C",
"X. c #9F2D3B",
"o. c #A32D25",
"O. c #AE2F25",
"+. c #A22328",
"@. c #AB2329",
"#. c #A22829",
"$. c #A62527",
"%. c #B52E27",
"&. c #BB2E27",
"*. c #B4212A",
"=. c #BF2728",
"-. c #A23125",
";. c #B63423",
":. c #BA3324",
">. c #B43129",
",. c #B83228",
"<. c #A62B37",
"1. c #A92D36",
"2. c #BE3C33",
"3. c #AF3939",
"4. c #C72D27",
"5. c #C02B28",
"6. c #C33425",
"7. c #CB3425",
"8. c #C9362B",
"9. c #D43625",
"0. c #D73824",
"q. c #DF3E23",
"w. c #CB3E30",
"e. c #C33931",
"r. c #A23E4A",
"t. c #A43345",
"y. c #904057",
"u. c #984556",
"i. c #86435D",
"p. c #B54848",
"a. c #B05552",
"s. c #A85153",
"d. c #53826E",
"f. c #548571",
"g. c #558A74",
"h. c #38578E",
"j. c #3365A1",
"k. c #3773AB",
"l. c #3378BA",
"z. c #56549C",
"x. c #66698F",
"c. c #6E6F8D",
"v. c #435BA7",
"b. c #5561A1",
"n. c #487FB1",
"m. c #537AAA",
"M. c #276DCA",
"N. c #2674CD",
"B. c #2873C9",
"V. c #267DCE",
"C. c #2677C6",
"Z. c #3E91B8",
"A. c #5DAF8D",
"S. c #5EB08E",
"D. c #5387AF",
"F. c #4782B4",
"G. c #5085B0",
"H. c #2B86C3",
"J. c #288BC8",
"K. c #258ED7",
"L. c #2586D4",
"P. c #249CD5",
"I. c #2590D8",
"U. c #249FDF",
"Y. c #2D8FC5",
"T. c #2BB6C6",
"R. c #22BBCD",
"E. c #23ADD8",
"W. c #24A5D5",
"Q. c #22B7D4",
"!. c #28B6D6",
"~. c #23ADCA",
"^. c #21C9CD",
"/. c #21C8C9",
"(. c #20D6C7",
"). c #20D4C8",
"_. c #28D8C8",
"`. c #3AD3CF",
"'. c #39DDCB",
"]. c #41DFCC",
"[. c #5BE7D0",
"{. c #6BEAD3",
"}. c #84F2D6",
"|. c #8DF5D7",
" X c #9EFADA",
".X c #A6FCDB",
"XX c None",
/* pixels */
"XXXXXXXXXXXXXXXXXXXXXXXXXXXXXXXXXXXXXXXXXXXXXXXXXXXXXXXXXXXXXXXXXXXXXXXXXXXXXXXXXXXXXXXXXXXXXXXXXXXXXXXXXXXXXXXXXXXXXXXXXXXXXXXX",
"XXXXXXXXXXXXXXXXXXXXXXXXXXXXXXXXXXXXXXXXXXXXXXXXXXXXXXXXXXXXXXXXXXXXXXXXXXXXXXXXXXXXXXXXXXXXXXXXXXXXXXXXXXXXXXXXXXXXXXXXXXXXXXXX",
"XXXXXXXXXXXXXXXXXXXXXXXXXXXXXXXXXXXXXXXXXXXXXXXXXXXXXXXXXXXXXXXXXX3 7 7 j d 8 + + r XXXXXXXXXXXXXXXXXXXXXXXXXXXXXXXXXXXXXXXXXXXX",
"XXXXXXXXXXXXXXXXXXXXXXXXXXXXXXXXXXXXXXXXXXXXXXXXXXXXXXXXXXXXXXXX[ ' ' ' E ( f a ; d S XXXXXXXXXXXXXXXXXXXXXXXXXXXXXXXXXXXXXXXXXX",
"XXXXXXXXXXXXXXXXXXXXXXXXXXXXXXXXXXXXXXXXXXXXXXXXXX3 3 2 2 2 3 _ :.7.7.6.6.6.:.;.+.E j d $ t f.XXXXXXXXXXXXXXXXXXXXXXXXXXXXXXXXXX",
"XXXXXXXXXXXXXXXXXXXXXXXXXXXXXXXXXXXXXXXXXXXXXXXXR R ) ) ' _ ' #.7.q.q.q.q.q.q.0.7.@.] T , i G g.XXXXXXXXXXXXXXXXXXXXXXXXXXXXXXXX",
"XXXXXXXXXXXXXXXXXXXXXXXXXXXXXXXXXXXXXXXXXX2 2 T Q *.:.8.6.6.6.7.0.q.q.q.q.q.q.q.0.9.7.,.+.( u B f.XXXXXXXXXXXXXXXXXXXXXXXXXXXXXX",
"XXXXXXXXXXXXXXXXXXXXXXXXXXXXXXXXXXXXXXXXR R ' ] *.4.0.q.q.q.q.q.q.q.q.q.q.q.q.q.q.q.q.0.4.@.5 u Y XXXXXXXXXXXXXXXXXXXXXXXXXXXXXX",
"XXXXXXXXXXXXXXXXXXXXXXXXXXXXXXXXXXXXXXT Q *.&.8.9.0.q.q.q.q.q.q.q.q.q.q.q.q.q.q.q.q.q.q.0.6.@.' XXXXXXXXXXXXXXXXXXXXXXXXXXXXXXXX",
"XXXXXXXXXXXXXXXXXXXXXXXXXXXXXXXXXXXXR W *.4.0.q.q.q.q.q.q.q.q.q.q.q.q.q.q.q.q.q.q.q.q.q.q.0.4.=.XXXXXXXXXXXXXXXXXXXXXXXXXXXXXXXX",
"XXXXXXXXXXXXXXXXXXXXXXXXXXXXXXXXXXT Q *.7.0.q.q.q.q.q.q.q.q.q.q.q.q.q.q.q.q.q.q.q.q.q.q.q.q.9.7.XXXXXXXXXXXXXXXXXXXXXXXXXXXXXXXX",
"XXXXXXXXXXXXXXXXXXXXXXXXXXXXXXXXR ] *.4.0.q.q.q.q.q.q.q.q.q.q.q.0.9.0.0.9.9.9.9.9.0.9.9.9.9.9.8.+.XXXXXXXXXXXXXXXXXXXXXXXXXXXXXX",
"XXXXXXXXXXXXXXXXXXXXXXXXXXXXXXT Q *.7.0.q.q.q.q.q.q.q.q.q.q.q.0.4.=.5.5.=.5.=.=.5.5.5.5.=.=.=.*.] XXXXXXXXXXXXXXXXXXXXXXXXXXXXXX",
"XXXXXXXXXXXXXXXXXXXXXXXXXXXXXXR ! =.7.9.q.q.q.q.q.q.q.q.q.q.0.e.u.y.y.y.y.y.y.y.y.y.y.y.y.y.y.i.P XXXXXXXXXXXXXXXXXXXXXXXXXXXXXX",
"XXXXXXXXXXXXXXXXXXXXXXXXXXXX2 R ! *.=.4.0.q.q.q.q.q.q.q.q.q.7.u.x.F.F.n.n.n.n.n.n.n.n.n.n.n.n.F.Y.Y.XXXXXXXXXXXXXXXXXXXXXXXXXXXX",
"XXXXXXXXXXXXXXXXXXXXXXXXXXXX2 R Q ~ *.=.0.q.q.q.q.q.0.w.p.s.u.L F.Q.E.E.W.E.E.E.W.E.E.E.W.E.E.E.E.E.XXXXXXXXXXXXXXXXXXXXXXXXXXXX",
"XXXXXXXXXXXXXXXXXXXXXXXXXXXX7 T Q ~ ~ 5.9.q.q.q.q.0.4.r.c.D.F.F.T.^.^.^.R.^.^.^.^.^.^.^.^.^.^.^.^.^.)._.XXXXXXXXXXXXXXXXXXXXXXXX",
"XXXXXXXXXXXXXXXXXXXXXXXXXXXX7 T ! *.~ 5.9.q.q.q.0.8.r.L F.E.E.!.`.].].].].].].].].].].].].].].].].'._.).XXXXXXXXXXXXXXXXXXXXXXXX",
"XXXXXXXXXXXXXXXXXXXXXX, $ - < T Q ~ *.5.9.q.q.0.4.r.x.Z.T.^.^.`.{.}.}.}.}.}.}.}.}.}.}.}.}.}.}.}.}.{.'.).(.(.XXXXXXXXXXXXXXXXXXXX",
"XXXXXXXXXXXXXXXXXXXX[ _ g a , 3 Q ~ ~ 4.9.q.q.w.u.L Z.R.)._.'.[.|..X.X.X.X.X.X.X.X.X.X.X.X.X.X.X.X}.].).(.(.XXXXXXXXXXXXXXXXXXXX",
"XXXXXXXXXXXXXXXXk _ ;.6.6.{ , > Q =.~ =.9.q.q.p.c.Z.T.^.).'.{.|. X.X.X.X.X.X.X.X.X.X.X.X.X.X.X.X.X}.].(.(.).XXXXXXXXXXXXXXXXXXXX",
"XXXXXXXXXXXXXXc _ o.7.q.0.O.; * E ~ ~ =.9.q.q.a.D.E.^.(.).].}. X|.}.}.}.}.}.}.}.}.}.}.}.}.}.}.}.}.{.'.(.).).XXXXXXXXXXXXXXXXXXXX",
"XXXXXXXXXXXXk _ %.7.0.0.4.` > * E ~ ~ 4.0.q.q.a.D.E.^.(.).].}.|.[.].].].].].].].].].].].].].'.'.].'._.(.(.^.XXXXXXXXXXXXXXXXXXXX",
"XXXXXXXXXXXX7 ) 6.q.0.4.=.W > > Q ~ ~ 5.0.q.q.a.D.E.^.(.(.'.{.{.`.^.^.^.^.^.^.^.^.^.^.^.^.^.^.^.^.^.^.^.).).XXXXXXXXXXXXXXXXXXXX",
"XXXXXXXXXXXX7 ) 6.0.4.=.*.Q 4 2 Q ~ ~ =.9.q.q.a.G.U.^._.)._.'.`.!.E.E.E.E.E.E.E.E.E.E.E.E.E.E.E.E.E.E.Q.^./.J.XXXXXXXXXXXXXXXXXX",
"XXXXXXXXXXXX7 ) 6.9.5.~ *.Q T T Q ~ ~ =.0.q.q.a.m.U.^.).^.^.^.R.U.K.K.K.K.K.K.K.K.K.K.K.K.K.K.K.I.I.I.P.R./.J.XXXXXXXXXXXXXXXXXX",
"XXXXXXXXXXXX7 ) 4.9.5.~ ~ Q T T ~ *.~ 4.0.q.q.p.b.J.R.^.Q.E.E.P.V.M.M.M.M.M.M.M.M.M.M.M.M.M.M.M.M.M.M.V.P.E.XXXXXXXXXXXXXXXXXXXX",
"XXXXXXXXXXXX6 ( 6.9.5.~ ~ Q T 4 ! ~ ~ =.0.q.q.p.z.C.~.R.P.K.K.L.N.M.M.M.M.M.M.M.M.M.M.M.M.M.M.M.M.M.M.N.I.U.XXXXXXXXXXXXXXXXXXXX",
"XXXXXXXXXXXX$ f :.9.5.~ ~ ! T T Q ~ =.=.9.q.q.p.z.M.P.P.V.M.M.N.L.K.K.K.K.K.K.K.I.I.I.K.K.K.K.K.K.K.K.I.XXXXXXXXXXXXXXXXXXXXXXXX",
"XXXXXXXXXXXX. a :.9.4.~ ~ ! T T ! ~ ~ =.9.q.q.t.K v.l.C.B.M.M.B.H.H.H.H.H.H.H.H.H.H.Z.H.H.H.H.H.H.H.H.H.XXXXXXXXXXXXXXXXXXXXXXXX",
"XXXXXXXXXXXX. a :.9.5.~ ~ ! T T ! ~ ~ =.9.q.q.9.t.N J j.H.K.K.H.j.h.h.h.h.h.h.h.h.h.h.h.h.h.h.h.h.h.h.h.XXXXXXXXXXXXXXXXXXXXXXXX",
"XXXXXXXXXXXX. a :.9.5.~ ~ ! T T Q ~ ~ =.9.q.q.0.4.<.v H k.H.H.k.J b b b b b b b b b b b b b b b b n m m XXXXXXXXXXXXXXXXXXXXXXXX",
"XXXXXXXXXXXX. a &.9.4.~ ~ Q T T Q *.*.=.0.q.q.q.0.6.<.y.J h.h.J y................................. .k h XXXXXXXXXXXXXXXXXXXXXXXX",
"XXXXXXXXXXXX. a &.9.=.~ ~ W 4 4 Q *.~ =.9.q.q.q.q.0.5.1.v M b v <.~ 5.5.=.=.=.=.=.=.=.=.=.5.5.5.5.! T 2 XXXXXXXXXXXXXXXXXXXXXXXX",
"XXXXXXXXXXXXX a :.0.=.~ ~ Q ; ; W ~ *.=.9.q.q.q.q.0.0.8.2.3.X.<.4.9.9.9.9.9.9.9.9.9.9.9.9.9.9.9.9.&.R 7 XXXXXXXXXXXXXXXXXXXXXXXX",
"XXXXXXXXXXXXX a :.9.5.~ ~ W * * W *.*.=.9.q.q.q.q.q.q.q.q.0.4.=.6.6.6.6.7.7.0.q.q.q.q.q.q.q.q.q.q.4.' 7 XXXXXXXXXXXXXXXXXXXXXXXX",
"XXXXXXXXXXXX. a :.0.=.~ ~ W * * E *.*.5.9.q.q.q.q.q.q.q.q.q.0.6.+.) ) ) R +.7.q.q.q.q.q.q.q.q.q.q.8.) 3 XXXXXXXXXXXXXXXXXXXXXXXX",
"XXXXXXXXXXXX. a :.0.=.~ ~ E * * E ~ ~ 5.0.q.q.q.q.q.q.q.7.6.6.%.] ) ) ) R E >.6.6.7.q.q.q.q.q.q.q.6.) j XXXXXXXXXXXXXXXXXXXXXXXX",
"XXXXXXXXXXXXX a :.0.=.~ ~ W * * W ~ ~ 5.9.q.q.q.q.q.q.7.#.' ) ] ;.6.6.&.@.W ' ) ) #.7.q.q.q.q.q.q.6.) k XXXXXXXXXXXXXXXXXXXXXXXX",
"XXXXXXXXXXXXXXa o.:.5.=.*.Q : : T W ~ 5.7.0.q.q.q.0.6.o.( 3 4 ] 7.q.q.0.4.*.] ) _ ] 6.9.7.7.q.q.q.8.+. .S XXXXXXXXXXXXXXXXXXXXXX",
"XXXXXXXXXXXXXXZ 0 / :.7.=.! W R : 1 Q ~ 5.4.0.q.q.6./ : : T E *.7.q.q.q.0.9.7.6.6.4.5.*.] #.7.q.q.0.7.>. .k XXXXXXXXXXXXXXXXXXXX",
"XXXXXXXXXXXXXXXXo p :.9.5.~ ~ W * * W ~ ~ =.9.0.6.{ a a T ` *.4.9.9.9.9.q.q.q.q.q.0.4.@.T ) 6.q.q.q.q.6./ < XXXXXXXXXXXXXXXXXXXX",
"XXXXXXXXXXXXXXXXo a :.9.5.~ ~ W * * E ~ ~ =.0.6./ f R $.;.6.9.9.5.=.=.4.0.q.q.q.q.q.0.&.R ) 6.q.q.q.q.:.f $ XXXXXXXXXXXXXXXXXXXX",
"XXXXXXXXXXXXXXXXO s } ;.~ ~ ~ Q * * E ~ ~ =.9.6./ g $.6.0.q.q.7.*.! ~ 5.9.q.q.q.q.q.q.6.) ) 6.q.q.0.6.-.s q XXXXXXXXXXXXXXXXXXXX",
"XXXXXXXXXXXXXXXXXXC s g Q ~ ~ E * * Q ~ ~ 5.9.0.6.6.7.0.q.q.q.7.] R ! 5.9.q.q.q.q.q.q.6.) ) 6.q.q.:./ s Z XXXXXXXXXXXXXXXXXXXXXX",
"XXXXXXXXXXXXXXXXXXXXr 9 T W W 5 & * E ~ ~ 4.9.q.q.q.q.q.q.q.q.6.E T Q =.4.0.q.q.q.q.q.7.] ' >.9.q.;.p O XXXXXXXXXXXXXXXXXXXXXXXX",
"XXXXXXXXXXXXXXXXXXXXXXC 9 * * & % * W ~ ~ =.9.q.q.q.q.q.q.q.q.6.) T Q *.5.4.9.q.q.q.q.9.*.] E #.7.;.p o XXXXXXXXXXXXXXXXXXXXXXXX",
"XXXXXXXXXXXXXXXXXXXXXXXXO o q o   * W ~ ~ 5.9.q.q.q.q.q.q.q.q.6.( 3 Q ~ ~ 5.9.q.q.q.q.0.4.@.T T -.| s O XXXXXXXXXXXXXXXXXXXXXXXX",
"XXXXXXXXXXXXXXXXXXXXXXXXXXXXI A q * W *.*.=.9.q.q.q.q.q.q.q.q.:.: , W ~ ~ =.9.q.q.q.q.0.0.:.) 2 a 0 Z XXXXXXXXXXXXXXXXXXXXXXXXXX",
"XXXXXXXXXXXXXXXXXXXXXXXXXXXXXXY x 0 T W ! =.7.0.q.q.q.q.q.q.q.;.a * W ~ ~ =.9.q.q.q.q.q.0.,.4 = 8 r XXXXXXXXXXXXXXXXXXXXXXXXXXXX",
"XXXXXXXXXXXXXXXXXXXXXXXXXXXXXXXXXXA e 1 W =.=.5.0.q.q.q.q.q.q.;.p * W ~ ~ 4.0.q.q.q.q.0.4.+.: 8 C XXXXXXXXXXXXXXXXXXXXXXXXXXXXXX",
"XXXXXXXXXXXXXXXXXXXXXXXXXXXXXXXXXXXXt e T ' E ` O.;.;.;.;.;.;.{ ; * T W ! =.7.0.q.q.0.7.+.T 0 t XXXXXXXXXXXXXXXXXXXXXXXXXXXXXXXX",
"XXXXXXXXXXXXXXXXXXXXXXXXXXXXXXXXXXXXXXC 9 * * * ; ; p p p p ; ; , , * 1 W *.=.4.9.0.4.$.1 0 C XXXXXXXXXXXXXXXXXXXXXXXXXXXXXXXXXX",
"XXXXXXXXXXXXXXXXXXXXXXXXXXXXXXXXXXXXXXXXq q r q . % * ; * & # & 5 3 * * T E E +.%.O.` ( 9 r XXXXXXXXXXXXXXXXXXXXXXXXXXXXXXXXXXXX",
"XXXXXXXXXXXXXXXXXXXXXXXXXXXXXXXXXXXXXXXXXXD U D q 9 { O.` R 1 1 E E 3 > * * * * p * * 9 C XXXXXXXXXXXXXXXXXXXXXXXXXXXXXXXXXXXXXX",
"XXXXXXXXXXXXXXXXXXXXXXXXXXXXXXXXXXXXXXXXXXXXA.f.B l } ;.&.*.E E ! *.E 3 & # # %   X   o XXXXXXXXXXXXXXXXXXXXXXXXXXXXXXXXXXXXXXXX",
"XXXXXXXXXXXXXXXXXXXXXXXXXXXXXXXXXXXXXXXXXXXXXXXXd.G l ^ %.7.@.*.4.6.*.E 1 > > * % X X o XXXXXXXXXXXXXXXXXXXXXXXXXXXXXXXXXXXXXXXX",
"XXXXXXXXXXXXXXXXXXXXXXXXXXXXXXXXXXXXXXXXXXXXXXXXXXd.V z } :.&.=.%.%.` R 1 > > = w O O O XXXXXXXXXXXXXXXXXXXXXXXXXXXXXXXXXXXXXXXX",
"XXXXXXXXXXXXXXXXXXXXXXXXXXXXXXXXXXXXXXXXXXXXXXXXXXXXd.G l ^ ,.,.^ p * & # @ @ w A Y XXXXXXXXXXXXXXXXXXXXXXXXXXXXXXXXXXXXXXXXXXXX",
"XXXXXXXXXXXXXXXXXXXXXXXXXXXXXXXXXXXXXXXXXXXXXXXXXXXXXXf.B z | | i t t r r r r V d.XXXXXXXXXXXXXXXXXXXXXXXXXXXXXXXXXXXXXXXXXXXXXX",
"XXXXXXXXXXXXXXXXXXXXXXXXXXXXXXXXXXXXXXXXXXXXXXXXXXXXXXXXg.Y z z F f.d.U U U U f.XXXXXXXXXXXXXXXXXXXXXXXXXXXXXXXXXXXXXXXXXXXXXXXX",
"XXXXXXXXXXXXXXXXXXXXXXXXXXXXXXXXXXXXXXXXXXXXXXXXXXXXXXXXA.g.V V g.A.A.A.A.A.A.XXXXXXXXXXXXXXXXXXXXXXXXXXXXXXXXXXXXXXXXXXXXXXXXXX",
"XXXXXXXXXXXXXXXXXXXXXXXXXXXXXXXXXXXXXXXXXXXXXXXXXXXXXXXXXXXXU U XXXXXXXXXXXXXXXXXXXXXXXXXXXXXXXXXXXXXXXXXXXXXXXXXXXXXXXXXXXXXXXX",
"XXXXXXXXXXXXXXXXXXXXXXXXXXXXXXXXXXXXXXXXXXXXXXXXXXXXXXXXXXXXXXXXXXXXXXXXXXXXXXXXXXXXXXXXXXXXXXXXXXXXXXXXXXXXXXXXXXXXXXXXXXXXXXXX"
};
