/* XPM */
static char *result[] = {
/* columns rows colors chars-per-pixel */
"64 64 180 2 ",
"   c #3C1A27",
".  c #3C1C29",
"X  c #3E1725",
"o  c #3D232D",
"O  c #3F2932",
"+  c #441726",
"@  c #491727",
"#  c #431825",
"$  c #4A1728",
"%  c #4C1A29",
"&  c #531926",
"*  c #5A1926",
"=  c #531728",
"-  c #5A1B2A",
";  c #591929",
":  c #631F25",
">  c #6A1B27",
",  c #65172B",
"<  c #6B172C",
"1  c #641929",
"2  c #681A29",
"3  c #731D27",
"4  c #72172D",
"5  c #74192D",
"6  c #7B1A2B",
"7  c #721C30",
"8  c #4A212E",
"9  c #5C252F",
"0  c #402E35",
"q  c #4C2D35",
"w  c #582931",
"e  c #413137",
"r  c #423339",
"t  c #43393C",
"y  c #5B3136",
"u  c #5A3439",
"i  c #652124",
"p  c #6B2225",
"a  c #63282A",
"s  c #6B2B2B",
"d  c #702226",
"f  c #7B2226",
"g  c #642D39",
"h  c #712435",
"j  c #74283A",
"k  c #603534",
"l  c #64313B",
"z  c #56403E",
"x  c #7B3552",
"c  c #64364A",
"v  c #5C3761",
"b  c #583862",
"n  c #643D60",
"m  c #7B3960",
"M  c #474846",
"N  c #53514C",
"B  c #544A47",
"V  c #615F58",
"C  c #4D695E",
"Z  c #57675B",
"A  c #4E4467",
"S  c #4E4D7F",
"D  c #504B7A",
"F  c #684E6F",
"G  c #70497F",
"H  c #755B77",
"J  c #4E6C60",
"K  c #566D60",
"L  c #517465",
"P  c #527D6A",
"I  c #5B7564",
"U  c #56797B",
"Y  c #646B62",
"T  c #61766C",
"R  c #617969",
"E  c #831A2B",
"W  c #8B1A2B",
"Q  c #961E29",
"!  c #991E29",
"~  c #A31E2B",
"^  c #AA1F2B",
"/  c #B01F2A",
"(  c #83212B",
")  c #8E212A",
"_  c #802624",
"`  c #9E2327",
"'  c #92222A",
"]  c #9B242A",
"[  c #952727",
"{  c #9C3327",
"}  c #97283C",
"|  c #9F2D3B",
" . c #8A263D",
".. c #A02427",
"X. c #A82627",
"o. c #AE2F25",
"O. c #A42329",
"+. c #A82428",
"@. c #A22829",
"#. c #A72E26",
"$. c #B32F26",
"%. c #B4202A",
"&. c #BE2728",
"*. c #B82F26",
"=. c #B63423",
"-. c #BA3524",
";. c #A62B37",
":. c #A92D36",
">. c #AF3939",
",. c #BE3C33",
"<. c #A53325",
"1. c #C72D27",
"2. c #C43425",
"3. c #CB3325",
"4. c #CB3824",
"5. c #CC392C",
"6. c #C5332B",
"7. c #D43625",
"8. c #D73824",
"9. c #DF3E23",
"0. c #CB3E30",
"q. c #C33931",
"w. c #A33E4A",
"e. c #A43345",
"r. c #86435D",
"t. c #904057",
"y. c #984556",
"u. c #B94E46",
"i. c #B34649",
"p. c #A85153",
"a. c #B05552",
"s. c #53826E",
"d. c #558874",
"f. c #38578E",
"g. c #3C5E8F",
"h. c #3365A1",
"j. c #3576B3",
"k. c #56549C",
"l. c #6E6F8D",
"z. c #66698F",
"x. c #435BA7",
"c. c #5561A1",
"v. c #487FB1",
"b. c #537AAA",
"n. c #276DCA",
"m. c #2773CC",
"M. c #267DCE",
"N. c #2775C8",
"B. c #3E91B8",
"V. c #5DAF8C",
"C. c #5DB08D",
"Z. c #5387AF",
"A. c #4782B4",
"S. c #5085B0",
"D. c #2B86C3",
"F. c #298BC7",
"G. c #358BC2",
"H. c #258ED7",
"J. c #249CD5",
"K. c #2590D8",
"L. c #249FDF",
"P. c #2594C6",
"I. c #23ADCA",
"U. c #2BB6C6",
"Y. c #22BBCD",
"T. c #23ADD8",
"R. c #24A5D5",
"E. c #22B7D4",
"W. c #22B0D8",
"Q. c #21C9CD",
"!. c #21C5C9",
"~. c #20D6C7",
"^. c #20D4C8",
"/. c #28D8C8",
"(. c #39DDCB",
"). c #41DFCC",
"_. c #6BEBD2",
"`. c #84F2D6",
"'. c #A6FCDB",
"]. c None",
/* pixels */
"].].].].].].].].].].].].].].].].].].].].].].].].].].].].].].].].].].].].].].].].C.C.C.].].].].].].].].].].].].].].].].].].].].].",
"].].].].].].].].].].].].].].].].].].].].].].].].].].].].].].].].].].].].].].Y Y L P L P ].].].].].].].].].].].].].].].].].].].].",
"].].].].].].].].].].].].].].].].].].].].].].].].].].].].5 4 5 5 4 5 7 7 h h j g q O O M s.].].].].].].].].].].].].].].].].].].].",
"].].].].].].].].].].].].].].].].].].].].].].].].].].].Q ' ' ) ) ) ' ) ) ) ) ) ( p i - y V R K ].].].].].].].].].].].].].].].].].",
"].].].].].].].].].].].].].].].].].].].].].].].].7 E O.%.2.2.2.4.4.2.2.2.2.2.2.2.=.o.` ) j k q M d.].].].].].].].].].].].].].].].",
"].].].].].].].].].].].].].].].].].].].].].].].].' ..%.1.8.9.9.9.9.9.9.9.9.9.9.9.9.8.1.%.` E 1 y Z d.].].].].].].].].].].].].].].",
"].].].].].].].].].].].].].].].].].].].].].].^ %.6.3.7.7.9.9.9.9.9.9.9.9.9.9.9.9.9.9.8.7.4.*...( u M d.].].].].].].].].].].].].].",
"].].].].].].].].].].].].].].].].].].].].].~ &.1.7.9.9.9.9.9.9.9.9.9.9.9.9.9.9.9.9.9.9.9.9.8.1.+.f y I ].].].].].].].].].].].].].",
"].].].].].].].].].].].].].].].].].].].].^ %.3.8.9.9.9.9.9.9.9.9.9.9.9.9.9.9.9.9.9.9.9.9.9.9.8.1.+.' ].].].].].].].].].].].].].].",
"].].].].].].].].].].].].].].].].].].].+.&.6.7.9.9.9.9.9.9.9.9.9.9.9.9.9.9.9.9.9.9.9.9.9.9.9.9.8.6.&.].].].].].].].].].].].].].].",
"].].].].].].].].].].].].].].].].].].^ &.3.8.9.9.9.9.9.9.9.9.9.9.9.9.9.9.9.9.9.9.9.9.9.9.9.9.9.8.8.3.].].].].].].].].].].].].].].",
"].].].].].].].].].].].].].].].].].].%.&.1.8.9.9.9.9.9.9.9.9.9.9.8.7.7.8.7.7.7.8.8.7.8.8.7.7.7.7.7.3.].].].].].].].].].].].].].].",
"].].].].].].].].].].].].].].].].].W / %.&.1.8.9.9.9.9.9.9.9.9.8.1.&.&.&.&.&.&.&.&.&.&.&.&.&.1.&.1.%.! ].].].].].].].].].].].].].",
"].].].].].].].].].].].].].].].].].W ^ %./ 1.7.9.9.9.9.9.7.0.u.p.y.t.t.t.t.t.t.t.t.t.t.t.t.t.t.t.t.r.F ].].].].].].].].].].].].].",
"].].].].].].].].].].].].].].].].].W ^ / / 1.7.9.9.9.9.8.1.w.l.S.S.v.v.v.A.v.v.v.v.v.v.v.v.v.v.v.A.A.G.F.].].].].].].].].].].].].",
"].].].].].].].].].].].].].].].].4 W ^ / / &.7.9.9.9.8.q.w.H B.T.T.T.T.T.T.T.T.T.T.T.T.T.T.T.T.T.T.T.W.W.].].].].].].].].].].].].",
"].].].].].].].].].].].].].].].= < E ~ %./ &.7.9.9.8.1.w.z.A.U.Q.Q.Q.Q.Q.Q.Q.Q.Q.Q.Q.Q.Q.Q.Q.Q.Q.Q.Q.Q.Q.^.^.].].].].].].].].].].",
"].].].].].].].].].].].].].[ _ p 2 6 ~ %.%.1.7.9.9.5.y.H B.Y.^./.(.).).).).).).).).).).).).).).).).).).(./.~.].].].].].].].].].].",
"].].].].].].].].].].].' 2.4.4.#.: 1 ! / / &.7.9.9.u.l.B.U.Q.~.(._.`.`.`.`.`.`.`.`.`.`.`.`.`.`.`.`.`.`._.(.^.^.~.].].].].].].].].",
"].].].].].].].].].].' o.5.9.8.o.: * Q %./ &.7.9.9.a.Z.T.Q.~.~.).`.'.'.'.'.'.'.'.'.'.'.'.'.'.'.'.'.'.'.`.).~.~.^.].].].].].].].].",
"].].].].].].].].].' -.3.8.8.1.O.* * ! / / 1.7.9.9.a.Z.T.Q.~.~.).`.'.'.'.'.'.'.'.'.'.'.'.'.'.'.'.'.'.'.`.).^.^.^.].].].].].].].].",
"].].].].].].].].7 ' 2.9.8.3.&.! 2 < ! / / 1.7.9.9.a.Z.T.Q.~.~.(._.`.`.`.`.`.`.`.`.`.`.`.`.`.`.`.`.`.`._.(.^.^.^.].].].].].].].].",
"].].].].].].].].7 ) 6.7.1.&./ ~ 6 6 ~ / / &.7.9.9.a.S.T.Q.~.~.~.(.).).).).).).).).).).).).).).).).).).(./.~.~.^.].].].].].].].].",
"].].].].].].].].5 ' 2.7.1./ / ^ E E ^ / / &.7.9.9.a.b.R.!.~.Q.Q.Q.Q.Q.Q.Q.Q.!.Q.Q.Q.Q.Q.Q.Q.Q.Q.Q.Q.Q.Q.Q.Q.^.^.].].].].].].].].",
"].].].].].].].].5 ) 2.8./ / / ^ E E ~ / %.&.7.9.9.i.c.F.Y.Q.E.W.R.T.T.T.T.T.T.T.T.T.T.T.T.T.T.T.T.T.T.T.T.E.Q.!.P.].].].].].].].",
"].].].].].].].]., ( 2.7.1./ / ^ E E ~ / %.&.7.9.9.w.k.m.I.Y.J.H.H.H.H.H.H.H.H.H.H.H.H.H.H.H.H.H.H.H.H.K.K.J.Y.E.F.].].].].].].].",
"].].].].].].].].% d -.7.1./ %.~ E E ~ / %.&.7.9.9.e.k.n.J.J.M.n.n.n.n.n.n.n.n.n.n.n.n.n.n.n.n.n.n.n.n.n.n.M.J.T.].].].].].].].].",
"].].].].].].].].o i -.7.1.%./ ~ E E ^ / %.&.7.9.9.q.z.x.j.M.m.n.n.n.n.n.n.n.n.n.n.n.n.n.n.n.n.n.n.n.n.n.n.m.K.R.].].].].].].].].",
"].].].].].].].].. i -.7.&.%./ ^ E E ^ / / 1.7.9.9.8.e.r.S x.D.H.H.K.H.K.H.H.H.H.K.H.H.K.H.H.H.K.H.K.H.H.K.K.].].].].].].].].].].",
"].].].].].].].].. i -.7.&.%.%.~ E E ^ / %.&.7.9.9.9.1.e.c k.h.B.D.D.D.D.D.D.D.D.D.D.D.D.D.D.D.D.D.D.D.D.D.D.].].].].].].].].].].",
"].].].].].].].].. i -.7.&.%./ ~ E E ~ / %.&.7.9.9.9.7.6.^  .k.f.f.f.f.f.f.f.f.f.f.f.f.f.f.f.f.f.f.f.f.f.f.g.].].].].].].].].].].",
"].].].].].].].].. i -.7.&.%.%.~ E E ~ / %.&.7.9.9.9.9.8.1.;.x v n v v v v v v v v v v v v v v v v v v b b A U ].].].].].].].].].",
"].].].].].].].].# : -.7.1./ / ~ E E ^ / / &.7.9.9.9.9.9.7.7.q.>.| } } } } } } } } } } } } } } } } } }  .j c T ].].].].].].].].].",
"].].].].].].].].  p -.7.&./ &.~ E E ^ / / &.7.9.9.9.9.9.9.9.9.8.1.&.&.1.&.&.&.&.&.&.&.&.1.&.&.&.&.&.&.+.6 g T ].].].].].].].].].",
"].].].].].].].].. i -.7.1./ %.~ E E ^ / &.&.7.9.9.9.9.9.9.9.9.9.7.7.7.7.7.7.7.7.7.7.7.7.7.7.7.7.7.8.8.$.> q I ].].].].].].].].].",
"].].].].].].].].  p *.7.&./ %.! 4 6 ^ / / &.7.9.9.9.9.9.9.9.9.9.9.9.9.9.9.9.9.8.4.2.2.2.=.=.=.=.=.-.3.o.9 O L ].].].].].].].].].",
"].].].].].].].].  p -.8.&.%.%.! < , ! / / 1.7.9.9.9.9.9.9.9.9.9.9.9.9.9.9.9.9.6.@.) ) ( p i : : : f X...* 0 C ].].].].].].].].].",
"].].].].].].].].  p -.7.&.%.%.Q ; ; ! / / / 7.9.9.9.9.9.9.9.9.9.8.7.8.8.7.7.3.*.] ) ) ( d : * * * > E 6 & o C ].].].].].].].].].",
"].].].].].].].].  p -.8.&.%.%.Q * * ! / / 1.8.9.9.9.9.9.9.9.9.8.6.&.&.&.&.%.] ] $.2.2.2.-.o.` Q Q E > & # O C ].].].].].].].].].",
"].].].].].].].].  p -.7.&.%.%.Q * * ! / / 1.8.9.9.9.9.9.9.9.9.8.1.&.&.&.&.%.] @.4.9.9.9.9.8.1.&.&.+.3 & # 0 L ].].].].].].].].].",
"].].].].].].].].  d 2.7.&.%.%.Q * ; ! / / 1.7.9.9.9.9.9.9.9.9.9.8.7.7.7.7.3.4.4.8.9.9.9.9.9.7.7.7.1.X.6 & e P C.].].].].].].].].",
"].].].].].].].].].s <.=.%.%.%.Q * * ! / / 1.7.9.9.9.9.9.9.9.9.9.9.9.9.9.9.9.9.9.9.9.9.9.9.9.9.9.9.8.1.X.f k Z s.].].].].].].].].",
"].].].].].].].].].].a f ..%.%.Q * * Q / / &.7.9.9.9.9.9.9.9.9.9.9.9.9.9.9.9.9.9.9.9.9.9.9.9.9.9.9.9.8.4.-.{ y t ].].].].].].].].",
"].].].].].].].].].].o - E ] Q E = * Q / / &.7.9.9.9.9.9.8.8.9.9.9.9.9.9.9.9.9.9.9.9.9.9.9.9.7.7.7.8.9.9.8.o.: . ].].].].].].].].",
"].].].].].].].].].].. # & * * & + * ! / / &.7.9.9.9.9.8.1.1.7.9.9.9.9.9.9.9.9.9.9.9.9.9.9.7.1.1.&.1.8.8.1.` *   ].].].].].].].].",
"].].].].].].].].].].].. o o O O   * ! / / 1.1.8.9.9.9.7./ 1.1.7.7.9.9.9.9.9.9.9.8.7.7.7.7.3.&.%.%.&.1.3.&.! * . ].].].].].].].].",
"].].].].].].].].].].].].].].C M 8 & ! / / / &.1.8.9.9.7.1./ 1.1.&.1.7.9.9.9.9.9.1.1.&.&.1.%.%./ %.%.&.&.%.! *   ].].].].].].].].",
"].].].].].].].].].].].].].].].].t w E ! ! ~ / &.3.7.7.1.1./ / / / &.3.7.7.7.7.1.+.Q Q Q Q Q ! Q Q Q Q Q ] W 9 0 ].].].].].].].].",
"].].].].].].].].].].].].].].].].].N w * * > ! / 1.1./ 1./ / / / %.%.&.&.&.&.&.O.3 * * * * * * * * * * * 1 9 B ].].].].].].].].].",
"].].].].].].].].].].].].].].].].].N w * * > Q ~ ~ ! ! Q Q ! ! ! Q Q Q Q Q ! ' ( w O o . .   . .     . . . ].].].].].].].].].].].",
"].].].].].].].].].].].].].].].].0 w ( Q ! Q W E E 6 , ; ; ; ; = * * * * * * * w N C ].].].].].].].].].].].].].].].].].].].].].].",
"].].].].].].].].].].].].].].].].; 3 ..&./ ^ W E E 4 = @ @ @ @ $ @ @ @ + X   o t ].].].].].].].].].].].].].].].].].].].].].].].].",
"].].].].].].].].].].].].].].o * E X.1.3.&./ ^ ~ ~ Q 6 , , , , , , , , ; @ o M ].].].].].].].].].].].].].].].].].].].].].].].].].",
"].].].].].].].].].].].].].].  : ` 1.8.8.1.&.&.&./ ^ W E E E 6 4 4 < , 1 8 r ].].].].].].].].].].].].].].].].].].].].].].].].].].",
"].].].].].].].].].].].].].].X : o.8.9.9.8.7.7.6.1./ ^ ~ ~ Q 6 4 5 , = 8 M ].].].].].].].].].].].].].].].].].].].].].].].].].].].",
"].].].].].].].].].].].].].].  : o.7.9.9.9.9.9.8.1./ 1./ ~ W 4 , , - 8 r ].].].].].].].].].].].].].].].].].].].].].].].].].].].].",
"].].].].].].].].].].].].].].  * ..1.8.9.9.9.9.9.8.7.7.=.d = % $ % 8 M ].].].].].].].].].].].].].].].].].].].].].].].].].].].].].",
"].].].].].].].].].].].].].].8 - ( ` =.=.=.=.=.=.=.=.-.{ a 8 o o 8 0 ].].].].].].].].].].].].].].].].].].].].].].].].].].].].].].",
"].].].].].].].].].].].].].].].].- - i i i a i i i i i a u ].].].].].].].].].].].].].].].].].].].].].].].].].].].].].].].].].].].",
"].].].].].].].].].].].].].].].].t O O 0 O O O r r r r t ].].].].].].].].].].].].].].].].].].].].].].].].].].].].].].].].].].].].",
"].].].].].].].].].].].].].].].].].L L L L L L P P s.P P ].].].].].].].].].].].].].].].].].].].].].].].].].].].].].].].].].].].].",
"].].].].].].].].].].].].].].].].].].].].].].].].C.C.].].].].].].].].].].].].].].].].].].].].].].].].].].].].].].].].].].].].].].",
"].].].].].].].].].].].].].].].].].].].].].].].].].].].].].].].].].].].].].].].].].].].].].].].].].].].].].].].].].].].].].].].].",
"].].].].].].].].].].].].].].].].].].].].].].].].].].].].].].].].].].].].].].].].].].].].].].].].].].].].].].].].].].].].].].].]."
};
