/* XPM */
static char *result[] = {
/* columns rows colors chars-per-pixel */
"64 59 168 2 ",
"   c #010202",
".  c #0A0404",
"X  c #040807",
"o  c #030708",
"O  c #050B0C",
"+  c #0A0909",
"@  c #0D0807",
"#  c #110302",
"$  c #1C0503",
"%  c #140807",
"&  c #1A0807",
"*  c #130A09",
"=  c #1C0A09",
"-  c #060E10",
";  c #071113",
":  c #081315",
">  c #091619",
",  c #0B1A1D",
"<  c gray8",
"1  c #1C1C1C",
"2  c #191817",
"3  c #270705",
"4  c #2B0806",
"5  c #250B09",
"6  c #2D0C0A",
"7  c #350A07",
"8  c #330D0A",
"9  c #3C0E0A",
"0  c #0F211D",
"q  c #0D1E22",
"w  c #0F2125",
"e  c #0F2429",
"r  c #132B25",
"t  c #10252A",
"y  c #12292D",
"u  c #17332C",
"i  c #142D33",
"p  c #1B3B34",
"a  c #18363E",
"s  c #18363A",
"d  c #242424",
"f  c #2C2C2B",
"g  c #282827",
"h  c #333333",
"j  c #3B3B3B",
"k  c #430F0B",
"l  c #4E0F0A",
"z  c #47100B",
"x  c #4B110C",
"c  c #53110C",
"v  c #5B130D",
"b  c #65150F",
"n  c #6A150E",
"m  c #6D1710",
"M  c #671610",
"N  c #711710",
"B  c #761911",
"V  c #791912",
"C  c #1E4139",
"Z  c #1B3C44",
"A  c #1A3B45",
"S  c #1E434C",
"D  c #1F4650",
"F  c #234D44",
"G  c #214B55",
"H  c #224E59",
"J  c #204751",
"K  c #24515D",
"L  c #27564C",
"P  c #2F665A",
"I  c #306A5C",
"U  c #265561",
"Y  c #275865",
"T  c #285A67",
"R  c #295D6A",
"E  c #2B616E",
"W  c #357465",
"Q  c #2D6473",
"!  c #2F6978",
"~  c #2E6877",
"^  c #306D7D",
"/  c gray25",
"(  c #4B4B4B",
")  c #535353",
"_  c #5A5A5A",
"`  c #626262",
"'  c gray42",
"]  c #737273",
"[  c #7D7D7D",
"{  c #841B13",
"}  c #8B1D14",
"|  c #961F15",
" . c #9C2016",
".. c #A22117",
"X. c #A72218",
"o. c #AB2318",
"O. c #B32519",
"+. c #BC271B",
"@. c #BF281B",
"#. c #C3281C",
"$. c #CE2B1E",
"%. c #D12C1E",
"&. c #418C7B",
"*. c #337384",
"=. c #357789",
"-. c #367A8C",
";. c #387D8F",
":. c #387E91",
">. c #377D90",
",. c #3A8295",
"<. c #3C879B",
"1. c #3D899E",
"2. c #3E8B94",
"3. c #3E8DA1",
"4. c #499E8B",
"5. c #469986",
"6. c #4EA994",
"7. c #50AD98",
"8. c #408FA4",
"9. c #4091A6",
"0. c #4295AB",
"q. c #4498AE",
"w. c #469CB3",
"e. c #479FB8",
"r. c #47A0B8",
"t. c #4AA5BE",
"y. c #4BA8BF",
"u. c #59C2AA",
"i. c #5ECBB3",
"p. c #63D6BC",
"a. c #4BA7C0",
"s. c #4BA9C1",
"d. c #4FB1C3",
"f. c #51B4C3",
"g. c #56BCC5",
"h. c #5ECECC",
"j. c #58C2C8",
"k. c #5FD0CC",
"l. c #66DEC5",
"z. c #65DBD1",
"x. c #6BE6CA",
"c. c #6CEACE",
"v. c #69E4D4",
"b. c #6DEBD6",
"n. c #6FEFD8",
"m. c #6FF0D3",
"M. c #71F4DA",
"N. c #74FBDD",
"B. c #70F0D3",
"V. c #76FEE0",
"C. c #858585",
"Z. c #898989",
"A. c #9D9D9D",
"S. c gray58",
"D. c #A3A3A3",
"F. c #ADADAD",
"G. c #B0AFB0",
"H. c #B2B1B2",
"J. c #B9B9B9",
"K. c #C7C7C7",
"L. c #CACACA",
"P. c #D2D2D2",
"I. c #DDDDDD",
"U. c #E4E4E4",
"Y. c #ECECEC",
"T. c #EFEFF0",
"R. c #F5F5F5",
"E. c None",
/* pixels */
"E.E.E.E.E.E.E.E.E.E.E.E.E.E.E.E.E.E.E.E.E.E.E.E.E.E.E.E.E.E.E.E.E.E.E.E.E.E.E.E.E.E.E.E.E.E.E.E.E.E.E.E.E.E.E.E.E.E.E.E.E.E.E.E.",
"E.E.E.E.E.E.E.E.E.E.E.E.E.E.E.E.E.E.E.E.E.E.E.E.E.E.E.E.E.E.E.E.E.E.E.E.E.E.E.E.E.E.E.E.E.E.E.E.E.E.E.E.E.E.E.E.E.E.E.E.E.E.E.E.",
"E.E.E.E.E.E.E.E.E.E.E.E.E.E.E.E.E.E.E.E.E.E.E.E.E.E.E.X X                 X X + E.E.E.E.E.E.E.E.E.E.E.E.E.E.E.E.E.E.E.E.E.E.E.E.",
"E.E.E.E.E.E.E.E.E.E.E.E.E.E.E.E.E.E.E.E.E.E.E.E.X         + , r u u r r , O         X E.E.E.E.E.E.E.E.E.E.E.E.E.E.E.E.E.E.E.E.E.",
"E.E.E.E.E.E.E.E.E.E.E.E.E.E.E.E.E.E.E.E.E.X       ; C W 4.i.p.x.c.c.c.x.l.u.4.W C :     X E.E.E.E.E.E.E.E.E.E.E.E.E.E.E.E.E.E.E.",
"E.E.E.E.E.E.E.E.E.E.E.E.E.E.E.E.E.E.E.E.    X C &.i.B.N.V.N.N.N.N.N.N.N.N.N.N.N.M.i.I -     E.E.E.E.E.E.E.E.E.E.E.E.E.E.E.E.E.E.",
"E.E.E.E.E.E.E.E.E.E.E.E.E.E.E.E.E.E.    X F 7.c.N.N.N.N.N.N.N.N.N.N.N.N.N.N.N.N.N.N.n.2.t     E.E.E.E.E.E.E.E.E.E.E.E.E.E.E.E.E.",
"E.E.E.E.E.E.E.E.E.E.E.E.E.E.E.E.E.    r 5.B.V.N.N.N.N.N.N.N.N.N.N.N.N.N.N.N.N.N.N.N.h.s.3.e   + E.E.E.E.E.E.E.E.E.E.E.E.E.E.E.E.",
"E.E.E.E.E.E.E.E.E.E.E.E.E.E.E.E.    F p.N.N.N.N.N.N.N.N.N.N.N.N.N.N.N.N.N.N.N.N.N.v.s.y.s.*.    E.E.E.E.E.E.E.E.E.E.E.E.E.E.E.E.",
"E.E.E.E.E.E.E.E.E.E.E.E.E.E.E.    P x.V.N.N.N.N.N.N.N.N.N.N.N.N.N.N.N.N.N.N.N.N.v.f.t.y.s.3.>   E.E.E.E.E.E.E.E.E.E.E.E.E.E.E.E.",
"E.E.E.E.E.E.E.E.E.E.E.E.E.E.    L c.N.N.N.N.N.N.N.M.M.M.b.v.b.b.b.B.B.b.n.v.z.g.s.t.t.t.s.q.,   E.E.E.E.E.E.E.E.E.E.E.E.E.E.E.E.",
"E.E.E.E.E.E.E.E.E.E.E.E.E.    p l.N.N.N.N.M.b.z.k.j.f.d.y.s.s.s.s.s.s.d.s.s.a.e.y.t.t.y.s.3.;   E.E.E.E.E.E.E.E.E.E.E.E.E.E.E.E.",
"E.E.E.E.E.E.E.E.E.E.E.E.E.  X 6.V.N.n.v.h.g.s.y.t.t.t.t.a.r.a.t.y.t.t.t.t.t.a.t.y.t.t.t.a.=.    + + X E.E.E.E.E.E.E.E.E.E.E.E.E.",
"E.E.E.E.E.E.E.E.E.E.E.E.X   p l.z.j.f.a.t.t.t.t.y.t.t.t.a.a.a.a.t.y.t.a.a.t.a.a.t.t.a.a.t.A               + E.E.E.E.E.E.E.E.E.E.",
"E.E.E.E.E.E.E.E.E.E.E.E.    E f.t.t.t.t.t.t.t.t.t.t.t.s.s.s.s.a.a.a.a.a.a.a.a.a.y.t.t.a.Q     i G G Z w X   X E.E.E.E.E.E.E.E.E.",
"E.E.E.E.E.E.E.E.E.E.E.E.X o >.s.t.t.t.t.t.t.t.s.s.t.0.,.*.! R Y U H J U ~ :.9.e.y.a.s.,.:   t 0.s.a.t.q.^ >   X E.E.E.E.E.E.E.E.",
"E.E.E.E.E.E.E.E.E.E.E.E.  O <.a.t.a.t.a.a.e.3.=.T A q O                   o ; i H *.3.s   O =.s.t.t.a.a.s.>.,   X E.E.E.E.E.E.E.",
"E.E.E.E.E.E.E.E.E.E.E.E.  - 3.a.t.a.a.w.*.a ;         o > w y i i i i e , - X       ;     Y t.t.t.a.t.t.t.s.Q     E.E.E.E.E.E.E.",
"E.E.E.E.E.E.E.E.E.E.E.E.  O <.a.a.q.Q t       O y G ! ,.0.w.w.r.e.e.e.w.0.3.=.U i :     X K w.t.t.a.a.t.a.a.q.w   X E.E.E.E.E.E.",
"E.E.E.E.E.E.E.E.E.E.E.E.  O ,.t.^ e     O y Y ,.w.a.s.a.a.a.t.t.t.t.r.a.a.a.s.s.e.3.H ;     A q.a.t.t.a.t.t.a.U     E.E.E.E.E.E.",
"E.E.E.E.E.E.E.E.E.E.E.E.    U S X   o S >.w.a.a.a.a.t.a.a.s.s.s.s.t.t.t.a.t.t.t.a.a.t.<.S o   a q.a.t.a.t.a.s.;.o   E.E.E.E.E.E.",
"E.E.E.E.E.E.E.E.E.E.E.E.E.  X     i *.r.s.a.a.a.a.t.w.q.3.<.,.:.3.q.t.s.a.a.a.t.a.t.a.a.t.R X   S w.t.t.t.t.s.<.O   E.E.E.E.E.E.",
"E.E.E.E.E.E.E.E.E.E.E.E.E.    , ~ w.s.a.a.a.r.1.~ S t q : - X   O , A ! 3.t.a.t.t.t.t.t.t.r.K   X Q s.a.t.t.s.<.O   E.E.E.E.E.E.",
"E.E.E.E.E.E.E.E.E.E.E.E.    w ,.a.t.t.a.r.*.A -   - y A G Y U H S a w O > S 3.a.t.a.t.a.t.a.w.i   t w.t.t.a.s.,.O   E.E.E.E.E.E.",
"E.E.E.E.E.E.E.E.E.E.E.    , ,.a.a.t.a.3.S O ; A ! 1.r.t.a.a.a.a.s.t.w.,.J : , ! t.t.a.t.a.t.a.=.O   *.a.t.t.s.=.X   E.E.E.E.E.E.",
"E.E.E.E.E.E.E.E.E.E.E.  - =.y.t.a.a.-., ; R 3.t.s.s.a.t.t.a.a.t.t.t.a.s.t.1.Z O U r.t.t.t.t.t.t.Z   Z r.t.t.a.T     E.E.E.E.E.E.",
"E.E.E.E.E.E.E.E.E.E.    H t.t.t.a.-.> q ;.a.a.t.t.t.a.s.s.s.a.t.t.t.t.t.t.s.r.U O E a.a.t.t.t.s.Q   : 8.a.t.t.a   X E.E.E.E.E.E.",
"E.E.E.E.E.E.E.E.E.E.  , 8.a.t.y.8., : <.s.t.t.a.s.r.3.=.Q Q >.w.s.t.t.t.t.s.s.r.A > <.a.t.t.t.s.=.X X -.s.s.,.O   E.E.E.E.E.E.E.",
"E.E.E.E.E.E.E.E.E.X   H t.t.t.t.G   R a.a.t.a.r.*.a ;       X y ^ r.a.t.t.t.t.s.<.O H a.t.a.a.a.3.-   *.s.t.J   X E.E.E.E.E.E.E.",
"E.E.E.E.E.E.E.E.E.  X -.s.t.a.1.- t w.a.t.a.e.D X + f ( ) / d   X U t.t.a.t.a.t.r.i q w.a.t.t.t.q.q   ! s.:.O   E.E.E.E.E.E.E.E.",
"E.E.E.E.E.E.E.E.E.  , 0.a.t.s.^   U r.w.w.r.E   2 ] F.K.P.L.H._ X : 3.t.a.t.t.a.a.Y O ,.a.a.t.a.w.e   ^ e.a     E.E.E.E.E.E.E.E.",
"E.E.E.E.E.E.E.E.E.  q w.t.a.q.J   e y q q t O < C.L.U.Y.R.T.Y.K.)   *.s.t.a.t.t.a.*.X *.a.t.a.a.q.q   =.Q     E.E.E.E.E.E.E.E.E.",
"E.E.E.E.E.E.E.E.E.  w w.s.<.y     < 1 1 d 1 h Z.P.Y.R.R.R.R.R.I.[   ^ a.t.t.t.t.a.=.  E a.a.t.a.0.>   G :     E.E.E.E.E.E.E.E.E.",
"E.E.E.E.E.E.E.E.E.  q q.0.t   d ' D.H.H.H.J.K.I.Y.R.R.R.R.R.Y.J.j - <.a.t.t.t.a.a.=.  Q a.a.a.a.3.;       X E.E.E.E.E.E.E.E.E.E.",
"E.E.E.E.E.E.E.E.E.  : 0.U   d Z.P.U.T.Y.Y.T.T.R.R.R.R.R.R.J.' g o T t.t.t.t.t.t.a.Q   *.a.t.t.a.,.O       E.E.E.E.E.E.E.E.E.E.E.",
"E.E.E.E.E.E.E.E.E.  X Q t X ) J.Y.R.R.R.U.P.Y.R.R.R.R.R.T.)   : ! e.a.t.t.y.t.t.a.S o <.a.a.a.a.R       E.E.E.E.E.E.E.E.E.E.E.E.",
"E.E.E.E.E.E.E.E.E.X   , o 2 ' F.I.U.Y.L.] h G.R.R.R.R.R.R.G.1 w 8.a.t.t.t.t.t.a.8.: y w.t.t.t.e.i   X E.E.E.E.E.E.E.E.E.E.E.E.E.",
"E.E.E.E.E.E.E.E.E.E.      d C.D.F.J.G.` + g D.U.R.R.R.R.R.T.Z.@ J t.a.t.t.y.t.t.U   T a.y.t.a.=.O   E.E.E.E.E.E.E.E.E.E.E.E.E.E.",
"E.E.E.E.E.E.E.E.E.E.      < [ F.F.F.Z.d   ( D.J.P.U.Y.U.I.K.D.j O ,.a.a.a.a.r.R O a q.a.t.a.r.A   X E.E.E.E.E.E.E.E.E.E.E.E.E.E.",
"E.E.E.E.E.E.E.E.E.E.E.      ( A.F.D.(   + [ F.G.G.H.H.H.F.F.D._   Q a.e.q.=.A X s 0.a.t.t.t.R X   E.E.E.E.E.E.E.E.E.E.E.E.E.E.E.",
"E.E.E.E.E.E.E.E.E.E.E.E.    X d j f X   f A.G.G.G.G.G.G.G.F.A.(   w A i , o - J w.a.t.t.a.*.O   7 x & E.E.E.E.E.E.E.E.E.E.E.E.E.",
"E.E.E.E.E.E.E.E.E.E.E.E.+               / A.F.F.G.G.G.G.F.F.Z.1 O q , t S ! 1.t.t.t.a.a.-.:   4 O.$.| z * E.E.E.E.E.E.E.E.E.E.E.",
"E.E.E.E.E.E.E.E.& 8 7 c N } v .         d ] S.D.D.F.F.D.A.Z.j O ^ w.q.w.t.s.a.t.t.a.r.*.>   3 | $.$.%.#.} x * E.E.E.E.E.E.E.E.E.",
"E.E.E.E.E.E.% x | +.#.$.%.%.$.| 7       X g ) ] [ C.C.[ ` f X K t.a.a.a.t.t.a.a.t.<.S O   3 | $.$.$.$.%.%.#.{ 8 E.E.E.E.E.E.E.E.",
"E.E.E.E.E.9 } #.%.$.$.$.$.$.$.%.#.{ 7 .     + < 1 d g 1 O , Q r.a.a.a.a.a.t.q.,.K ;     7 o.%.$.$.$.$.$.$.$.%.+.c E.E.E.E.E.E.E.",
"E.E.E.E.x O.%.%.$.$.$.$.$.$.$.$.$.%.#.} k #             , K *.-.>.*.^ R H a q O     # b +.%.$.$.$.$.$.$.$.$.$.%.o.5 E.E.E.E.E.E.",
"E.E.E.@ } %.$.$.$.$.$.$.$.$.$.$.$.$.$.%.#.X.n 3 .             X X               $ c | $.$.$.$.$.$.$.$.$.$.$.$.$.B * E.E.E.E.E.E.",
"E.E.E.E.c #.%.%.%.%.$.$.$.$.$.$.$.%.%.%.%.%.%.+.| { n l 7 3 $ # .   . # $ 4 c { O.$.%.%.$.$.$.$.$.$.$.%.%.#. .v & E.E.E.E.E.E.E.",
"E.E.E.E.* 9 N  .O.@.$.#.$.#.#.+.O.O.O.#.$.$.$.$.%.%.%.$.#.@.O.o. .| ..X.O.#.$.%.%.$.%.$.$.$.$.$.$.#.o. .N 9 = E.E.E.E.E.E.E.E.E.",
"E.E.E.E.E.E.E.* 5 9 z k k 9 8 8 6 = 3 | $.$.$.$.$.$.$.$.$.$.%.%.%.%.%.$.%.$.$.%.@.B m M M v v v z 8 5 % E.E.E.E.E.E.E.E.E.E.E.E.",
"E.E.E.E.E.E.E.E.E.E.E.E.E.E.E.E.+ 8 { #.$.$.$.$.$.$.$.$.$.$.$.$.$.$.$.$.$.$.$.$.#.c O E.E.E.E.E.E.E.E.E.E.E.E.E.E.E.E.E.E.E.E.E.",
"E.E.E.E.E.E.E.E.E.E.E.E.E.E.E.E.x @.$.$.$.$.$.$.$.$.$.$.$.$.$.$.$.$.$.$.$.$.$.$.$.#.v E.E.E.E.E.E.E.E.E.E.E.E.E.E.E.E.E.E.E.E.E.",
"E.E.E.E.E.E.E.E.E.E.E.E.E.E.E.*  .$.$.$.$.$.$.$.$.$.$.$.$.$.$.$.$.$.$.$.$.$.$.$.%.%.b E.E.E.E.E.E.E.E.= 5 8 8 = E.E.E.E.E.E.E.E.",
"E.E.E.E.E.E.E.E.E.E.E.E.E.E.E.E.b #.%.%.%.%.$.$.%.$.$.$.%.$.$.$.%.$.$.%.%.%.%.#...b = E.E.E.E.E.E.8 V  .o.+.+...V 9 E.E.E.E.E.E.",
"E.E.E.E.E.E.E.E.E.E.E.E.E.E.E.E.* z M V }  .X.O.+.#.#.#.#.@.+.+.+.@.+.O.o.| N 9 & E.E.E.E.E.E.E.E.v %.%.%.$.$.$.%.+.x E.E.E.E.E.",
"E.E.E.E.E.E.E.E.E.E.E.E.E.E.E.E.E.E.E.E.@ % = 5 6 9 z 9 9 8 8 8 6 8 4 5 = * E.E.E.E.E.E.E.E.E.E.E.= c { O.$.%.%.%.@.c E.E.E.E.E.",
"E.E.E.E.E.E.E.E.E.E.E.E.E.E.E.E.E.E.E.E.E.E.E.E.E.E.E.E.E.E.E.E.E.E.E.E.E.E.E.E.E.E.E.E.E.E.E.E.E.E.E.+ 5 v V V M k E.E.E.E.E.E.",
"E.E.E.E.E.E.E.E.E.E.E.E.E.E.E.E.E.E.E.E.E.E.E.E.E.E.E.E.E.E.E.E.E.E.E.E.E.E.E.E.E.E.E.E.E.E.E.E.E.E.E.E.E.E.E.E.E.E.E.E.E.E.E.E.",
"E.E.E.E.E.E.E.E.E.E.E.E.E.E.E.E.E.E.E.E.E.E.E.E.E.E.E.E.E.E.E.E.E.E.E.E.E.E.E.E.E.E.E.E.E.E.E.E.E.E.E.E.E.E.E.E.E.E.E.E.E.E.E.E."
};
