/* XPM */
static char *result[] = {
/* columns rows colors chars-per-pixel */
"64 64 176 2 ",
"   c #071A1B",
".  c #091D1E",
"X  c #051719",
"o  c #0A1F21",
"O  c #0B2123",
"+  c #0E2629",
"@  c #0F292C",
"#  c #142425",
"$  c #11222B",
"%  c #1A2728",
"&  c #102B2D",
"*  c #1C292A",
"=  c #172736",
"-  c #162936",
";  c #182837",
":  c #192B3A",
">  c #143336",
",  c #16363B",
"<  c #1A313C",
"1  c #17383D",
"2  c #193A3D",
"3  c #212B2C",
"4  c #262F30",
"5  c #2D3435",
"6  c #313637",
"7  c #333738",
"8  c #36393A",
"9  c #383B3C",
"0  c #1E3443",
"q  c #1B3C44",
"w  c #213445",
"e  c #203947",
"r  c #233749",
"t  c #243C4C",
"y  c #293D4D",
"u  c #283D50",
"i  c #1B4043",
"p  c #1E454C",
"a  c #1F4848",
"s  c #24484F",
"d  c #264652",
"f  c #2B4155",
"g  c #224B54",
"h  c #284A56",
"j  c #234F58",
"k  c #2F465C",
"l  c #30475D",
"z  c #374D5C",
"x  c #255353",
"c  c #26545C",
"v  c #2C535E",
"b  c #344D64",
"n  c #275660",
"m  c #2A5B65",
"M  c #2B5E68",
"N  c #3B556C",
"B  c #3D5464",
"V  c #3C5670",
"C  c #2D626D",
"Z  c #316867",
"A  c #336C6B",
"S  c #326468",
"D  c #2F6570",
"F  c #306772",
"G  c #326974",
"H  c #396C75",
"J  c #336C79",
"K  c #35717E",
"L  c #3C737A",
"P  c #397776",
"I  c #405C76",
"U  c #4D6777",
"Y  c #44617C",
"T  c #556976",
"R  c #377381",
"E  c #387684",
"W  c #3B7A85",
"Q  c #3B7C8B",
"!  c #496886",
"~  c #496885",
"^  c #417D84",
"/  c #4F708F",
"(  c #59778A",
")  c #537494",
"_  c #557798",
"`  c #57799B",
"'  c #597C9E",
"]  c #3D808F",
"[  c #3F8393",
"{  c #45848B",
"}  c #448B8A",
"|  c #418696",
" . c #448C9C",
".. c #478A90",
"X. c #4B9397",
"o. c #4B9897",
"O. c #4C9699",
"+. c #4E999B",
"@. c #509B9F",
"#. c #73848F",
"$. c #6D8D9E",
"%. c #668595",
"&. c #758E9C",
"*. c #458FA1",
"=. c #5F82A3",
"-. c #4791A3",
";. c #4894A7",
":. c #4B9AAD",
">. c #4A97AA",
",. c #4D9EB2",
"<. c #6286A5",
"1. c #668AA9",
"2. c #698DAB",
"3. c #6D92AF",
"4. c #7390A0",
"5. c #6E93B0",
"6. c #759AB5",
"7. c #4FA1A9",
"8. c #53A5A6",
"9. c #55ABAA",
"0. c #54A9A7",
"q. c #58B0AD",
"w. c #4FA1B5",
"e. c #50A3B7",
"r. c #59AEB0",
"t. c #52A7BC",
"y. c #53A9BE",
"u. c #5BB4B3",
"i. c #5FBABB",
"p. c #5CB8B6",
"a. c #7DA3BD",
"s. c #60BDBD",
"d. c #56AEC0",
"f. c #57B1C2",
"g. c #59B3C3",
"h. c #5CBAC7",
"j. c #5FBEC9",
"k. c #64C4C3",
"l. c #61C3CB",
"z. c #65C9CB",
"x. c #68CECC",
"c. c #66CAC7",
"v. c #68CFD3",
"b. c #65CAD0",
"n. c #6BD4D4",
"m. c #6ED9D6",
"M. c #6DD7D8",
"N. c #6EDAD9",
"B. c #71DFDC",
"V. c #72E1DD",
"C. c #74E4E0",
"Z. c #87959F",
"A. c #8C9DA8",
"S. c #849BA7",
"D. c #81A7BF",
"F. c #80A7C0",
"G. c #88AEC5",
"H. c #8CB3C9",
"J. c #92BACD",
"K. c #9EBDCB",
"L. c #9AC2D4",
"P. c #9EC7D8",
"I. c #9FC8D9",
"U. c #A0C9DA",
"Y. c #A9CEDD",
"T. c #B6D5E2",
"R. c #C8DFE9",
"E. c #C1DBE6",
"W. c #D1DDE3",
"Q. c #CEE3EC",
"!. c #D7E7EE",
"~. c #E3EEF3",
"^. c #EEF4F7",
"/. c #F2F7F9",
"(. c #FCFDFD",
"). c None",
/* pixels */
").).).).).).).).).).).).).).).).).).).).).).).).).).).).).).).).).).).).).).).).).).).).).).).).).).).).).).).).).).).).).).).).",
").).).).).).).).).).).).).).).).).).).).).).).).).).).).).).).).).).).).).).).).).).).).).).).).).).).).).).).).).).).).).).).).",
").).).).).).).).).).).).).).).).).).).).).).).).).).).).).).).).).).).).).).).).).).).).).).).).).).).).).).).).).).).).).).).).",
").).).).).).).).).).).).).).).).).).).).).).).).).).).).).).              ).).).).).).).).).).).).).).).).).).).).).).).).).).).",
").).).).).).).).).).).).).).).).).).).).).).).).).).).                            ).).).).).).).).).).).).).).).).).).).).).).).",
").).).).).).).).).).).).).).).).).).).).).).).).).            . O + @ + o               ).).).).).).).).).).).).).).).).).).).).",
").).).).).).).).).).).).).).).).).).).).).).).).        o 2 Z } 0.q.q.q.o.P x +       o   ).).).).).).).).).).).).).).).).).).).",
").).).).).).).).).).).).).).).).).).).).).).).      o i } k.B.V.V.V.V.V.V.V.n.9.S &         ).).).).).).).).).).).).).).).).).).",
").).).).).).).).).).).).).).).).).).).).).).).      A k.B.B.B.B.V.V.V.B.V.B.V.V.m.9.x         ).).).).).).).).).).).).).).).).).",
").).).).).).).).).).).).).).).).).).).).).).      c x.V.B.B.B.B.V.V.V.V.V.V.B.B.B.B.c.A O       ).).).).).).).).).).).).).).).).",
").).).).).).).).).).).).).).).).).).).).).).    - 7.V.B.B.B.B.B.B.B.c.0.{ L H H H H H S < $ $ o + ).).).).).).).).).).).).).).).",
").).).).).).).).).).).).).).).).).).).).).).    g l.V.B.B.B.B.B.k.^ d < = = = = = = = = ; ; ; = = = ).).).).).).).).).).).).).).",
").).).).).).).).).).).).).).).).).).).).).    o K v.V.V.B.B.V.r.h = : = = : : : = : : : : = = = = : : = ).).).).).).).).).).).).",
").).).).).).).).).).).).).).).).).).).).).    +  .n.V.V.V.V.k.h = = : z U ( %.$.$.$.&.A.A.S.#.T z : ; ; = ).).).).).).).).).).).",
").).).).).).).).).).).).).).).).).).).).).  X 1 7.n.V.V.B.N.L = ; r ( J.U.U.U.U.U.Y.Q.(.(.(.(.^.W.S.y ; ; ).).).).).).).).).).).",
").).).).).).).).).).).).).).).).).).).).).  X c y.n.B.V.V.i.r = w ~ D.U.U.U.U.U.U.U.Q.(.(.(.(.(.(./.&.: : = ).).).).).).).).).).",
").).).).).).).).).).).).).).).).).).).).      F f.M.B.B.B.@.: ; k ' G.U.U.I.U.U.U.I.Y.R.!.~./.(.(./.K.f - ; ).).).).).).).).).).",
").).).).).).).).).).).).).).).).              E f.m.B.B.B.{ ; ; V ' a.U.U.U.U.U.U.U.U.I.I.Y.Y.E.Q.T.K.I = ; ).).).).).).).).).).",
").).).).).).).).).).).).).).        X       + | f.m.B.B.B.{ = ; V ' <.H.U.I.U.U.U.I.U.I.U.U.I.I.U.U.L.B = ; ).).).).).).).).).).",
").).).).).).).).).).).).).      & i a >     &  .f.M.B.B.C.{ = : V =.' <.F.L.U.U.U.U.U.U.I.U.U.I.U.U.G.b - ; ).).).).).).).).).).",
").).).).).).).).).).).).).    x u.x.n.0.&   , :.f.B.B.B.V.X.; ; V ' ' ' ' 2.a.J.L.I.I.I.I.I.I.L.J.D.<.b : : ).).).).).).).).).).",
").).).).).).).).).).).).).  @ q.V.V.V.p.&   a w.f.B.B.B.V.8.: = f ` ' ' ' ' ' =.1.3.6.6.6.6.3.1.<.' _ f = = ).).).).).).).).).).",
").).).).).).).).).).).).).  q c.N.n.n.9.+ X g t.f.m.B.B.V.s.e = 0 Y ' ' ' ' ' ' ` ' ` ' ' ' ` ` ' ` V : : = ).).).).).).).).).).",
").).).).).).).).).).).).    j i.f.y.y.[ O X c t.f.B.B.B.V.m.m = = r Y ' ' ' ' ' ' ' ' ' ' ' ' ` ! z : : : ).).).).).).).).).).).",
").).).).).).).).).).).).  X K t.t.t.y.[ O   c t.f.N.B.B.B.V.+.> = = 0 k I / ) ` ` ` ` ` ) ~ N f 0 : : : = ).).).).).).).).).).).",
").).).).).).).).).).).).  X [ t.t.t.y.Q .   M t.f.N.B.B.B.V.m.] : = = = 0 w u u f f f u 0 : : = = ; = $ ).).).).).).).).).).).).",
").).).).).).).).).).).).    [ e.t.t.y.Q o   M t.f.N.B.B.B.B.B.m.O.h : = = = ; ; - ; = = = = = : 0 : o   ).).).).).).).).).).).).",
").).).).).).).).).).).).  X Q y.t.y.y.Q o X M t.y.m.B.B.B.B.B.V.B.c.@.L v d 0 0 0 0 w e d v H X.u.x     ).).).).).).).).).).).).",
").).).).).).).).).).).).    F y.t.t.y.Q O   M t.y.N.B.B.B.B.B.B.B.B.B.B.v.k.s.s.s.i.i.s.c.n.B.V.B.P X   ).).).).).).).).).).).).",
").).).).).).).).).).).).    C y.y.t.y.Q o X M t.y.n.B.V.B.B.B.B.B.B.B.B.B.V.B.C.V.V.V.V.B.B.B.B.B.o.X   ).).).).).).).).).).).).",
").).).).).).).).).).).).    G y.t.t.y.Q o   M t.y.b.V.B.B.B.B.B.B.B.B.B.B.B.B.B.B.B.B.B.B.B.B.B.N.o.X   ).).).).).).).).).).).).",
").).).).).).).).).).).).    J y.t.t.y.Q o   M t.t.j.V.B.B.B.B.V.B.B.B.B.B.B.B.B.B.B.B.B.B.B.B.V.m.W X   ).).).).).).).).).).).).",
").).).).).).).).).).).).    J y.t.t.d.[ O   C t.y.g.N.N.N.V.N.V.B.B.B.B.B.B.B.B.V.N.V.N.V.V.V.V.v.C     ).).).).).).).).).).).).",
").).).).).).).).).).).).    G y.t.t.d.[ O X c t.y.d.n.V.V.V.V.V.B.B.B.V.B.B.B.B.V.V.V.V.N.V.V.N.j.C     ).).).).).).).).).).).).",
").).).).).).).).).).).).o   G y.t.t.t.[ O X c t.y.e.j.V.V.V.V.V.B.B.B.B.B.B.B.B.N.V.N.V.V.V.N.N.f.M     ).).).).).).).).).).).).",
").).).).).).).).).).).).    D t.t.t.d.[ O X x t.y.y.d.n.V.V.N.V.B.B.B.B.B.B.B.B.V.V.V.V.V.V.V.z.y.c     ).).).).).).).).).).).).",
").).).).).).).).).).).).    C t.t.t.d.[ + X g t.t.t.t.h.M.V.N.V.B.B.B.B.B.B.B.B.V.V.V.V.V.V.N.f.e.g X   ).).).).).).).).).).).).",
").).).).).).).).).).).).    m t.t.t.d.[ + X g t.t.t.t.t.j.N.V.V.B.B.B.B.B.V.B.B.N.V.N.V.V.N.j.t.w.q     ).).).).).).).).).).).).",
").).).).).).).).).).).).  X c e.d.e.d.[ + X p e.t.t.t.t.t.h.n.N.V.B.B.B.B.B.B.B.V.V.V.V.M.j.t.t.:.> X   ).).).).).).).).).).).).",
").).).).).).).).).).).).  X q w.e.d.d.*.+ X p w.t.y.t.t.t.t.d.j.v.N.B.B.V.B.V.V.V.N.M.b.g.t.t.d. .@     ).).).).).).).).).).).).",
").).).).).).).).).).).).    @ ;.d.,.t.*.$ X q ,.d.t.t.t.t.t.t.t.y.f.h.l.l.b.b.b.j.h.d.y.t.t.t.t.] O     ).).).).).).).).).).).).",
").).).).).).).).).).).).    O W d.d.d.*.@ o 0 ,.t.t.t.t.t.t.t.t.y.t.y.t.t.t.t.t.y.t.t.y.t.t.t.d.R O     ).).).).).).).).).).).).",
").).).).).).).).).).).).).    g ,.d.d.;.& X q ;.t.t.t.y.t.t.t.t.y.y.e.y.t.t.y.y.t.t.t.t.t.t.t.d.G     ).).).).).).).).).).).).).",
").).).).).).).).).).).).).    + C :.:.Q & X > :.t.t.t.t.t.t.t.t.t.e.y.y.y.y.y.d.y.y.e.,.,.t.t.t.m     ).).).).).).).).).).).).).",
").).).).).).).).).).).).).      O > 1 - o X & >.t.t.t.t.y.t.y.y.*.n n M F G F D M n g p Q t.t.e.g X   ).).).).).).).).).).).).).",
").).).).).).).).).).).).).).        X   o o & ;.y.t.t.t.e.t.t.y.F X             X X - R e.t.t.,.1     ).).).).).).).).).).).).).",
").).).).).).).).).).).).).).).).        o X @ *.y.y.t.t.y.y.y.y.M       o     @ p F -.y.t.t.y. .@     ).).).).).).).).).).).).).",
").).).).).).).).).).).).).).).).).).).).X o + *.y.t.t.t.t.t.e.y.D           o J e.y.y.y.t.t.y.E     ).).).).).).).).).).).).).).",
").).).).).).).).).).).).).).).).).).).).    +  .y.t.y.t.t.t.t.y.C     ).).    R d.t.t.t.y.t.e.M     ).).).).).).).).).).).).).).",
").).).).).).).).).).).).).).).).).).).).    O | y.t.t.t.t.t.y.y.C     ).).    C t.t.t.t.t.t.w.p     ).).).).).).).).).).).).).).",
").).).).).).).).).).).).).).).).).).).).).  o Q y.t.t.t.t.t.y.y.M     ).).    j e.d.t.t.t.d.;.>     ).).).).).).).).).).).).).).",
").).).).).).).).).).).).).).).).).).).).).    K y.t.t.t.t.t.t.y.n     5 5 o   > *.d.d.t.d.e.G       ).).).).).).).).).).).).).).",
").).).).).).).).).).).).).).).).).).).).3     C y.y.t.t.t.t.t.e.c     5 7 O   o q R Q [ [ m +     3 ).).).).).).).).).).).).).).",
").).).).).).).).).).).).).).).).).).8 9 6 .   c t.t.t.y.t.t.y.w.q   o 5 9 %     X o o + O     X # 8 9 8 8 ).).).).).).).).).).).",
").).).).).).).).).).).).).).).).8 8 8 9 7 #   q >.y.y.y.y.w.:.F O   # 6 9 7 #       o X       # 5 9 9 9 8 8 ).).).).).).).).).).",
").).).).).).).).).).).).).).).).8 9 9 9 8 #     q m D D n s > O     % 8 9 9 7 4 3 % $ + % * 4 8 9 9 9 9 9 8 ).).).).).).).).).).",
").).).).).).).).).).).).).).).).).9 9 9 9 5 O                   o * 7 8 9 9 9 9 9 9 9 8 8 9 9 9 9 9 9 9 8 8 ).).).).).).).).).).",
").).).).).).).).).).).).).).).).).).9 9 8 8 5 * # o o   . O O * 5 8 9 9 9 9 9 9 9 9 9 9 9 9 9 9 9 9 8 8 ).).).).).).).).).).).).",
").).).).).).).).).).).).).).).).).).).).).).8 8 7 6 5 6 6 6 8 8 8 9 9 9 9 9 9 9 9 9 9 9 9 8 9 8 8 ).).).).).).).).).).).).).).).",
").).).).).).).).).).).).).).).).).).).).).).).).).).).).9 9 9 8 8 8 8 8 8 8 8 9 8 8 ).).).).).).).).).).).).).).).).).).).).).).",
").).).).).).).).).).).).).).).).).).).).).).).).).).).).).).).).).).).).).).).).).).).).).).).).).).).).).).).).).).).).).).).).",
").).).).).).).).).).).).).).).).).).).).).).).).).).).).).).).).).).).).).).).).).).).).).).).).).).).).).).).).).).).).).).).).",
").).).).).).).).).).).).).).).).).).).).).).).).).).).).).).).).).).).).).).).).).).).).).).).).).).).).).).).).).).).).).).).).",
").).).).).).).).).).).).).).).).).).).).).).).).).).).).).).).).).).).).).).).).).).).).).).).).).).).).).).).).).).).).).).).)."
};
