/* XPM */
static char *result[] = {
/* columns rows colors chars-per-pixel */
"64 64 178 2 ",
"   c #111A17",
".  c #111D1A",
"X  c #14221C",
"o  c #192C25",
"O  c #13212A",
"+  c #1A2F28",
"@  c #152627",
"#  c #1D3329",
"$  c #162A3B",
"%  c #182F34",
"&  c #1B3334",
"*  c #1D363A",
"=  c #213B2E",
"-  c #26463A",
";  c #172D44",
":  c #182E46",
">  c #152D4F",
",  c #182F4B",
"<  c #1B3446",
"1  c #16334B",
"2  c #1A334C",
"3  c #163C4D",
"4  c #1D384B",
"5  c #173546",
"6  c #173252",
"7  c #173E52",
"8  c #1B3B55",
"9  c #14325F",
"0  c #143361",
"q  c #1C3664",
"w  c #193A64",
"e  c #1A3B6D",
"r  c #18376C",
"t  c #183D7A",
"y  c #353A6D",
"u  c #233D79",
"i  c #373C73",
"p  c #16404F",
"a  c #1B444D",
"s  c #164251",
"d  c #164359",
"f  c #18475B",
"g  c #184B5F",
"h  c #284A4B",
"j  c #2C534F",
"k  c #214256",
"l  c #2E5953",
"z  c #2D5552",
"x  c #3B6E58",
"c  c #174660",
"v  c #1D4365",
"b  c #1C4569",
"n  c #174A74",
"m  c #184D77",
"M  c #1A417D",
"N  c #184C7D",
"B  c #164372",
"V  c #214A7A",
"C  c #234B77",
"Z  c #39417F",
"A  c #275275",
"S  c #356763",
"D  c #386F7C",
"F  c #3C7373",
"G  c #3B7678",
"H  c #40755E",
"J  c #427A66",
"K  c #417D73",
"L  c #4A8A6E",
"P  c #44847C",
"I  c #174D81",
"U  c #184C81",
"Y  c #1B4588",
"T  c #185185",
"R  c #1A568A",
"E  c #1E5A88",
"W  c #1D4A92",
"Q  c #1B5494",
"!  c #1C5A98",
"~  c #204584",
"^  c #204488",
"/  c #22498C",
"(  c #3A4384",
")  c #3A4F88",
"_  c #39568C",
"`  c #39588F",
"'  c #224D9B",
"]  c #274999",
"[  c #364A94",
"{  c #375394",
"}  c #395990",
"|  c #355A9B",
" . c #1B698E",
".. c #1E6E91",
"X. c #34639E",
"o. c #234EA3",
"O. c #234FAB",
"+. c #2351A5",
"@. c #225BA5",
"#. c #2352AC",
"$. c #2E52AF",
"%. c #245DAF",
"&. c #3151A5",
"*. c #2E55B2",
"=. c #245EB2",
"-. c #2756BB",
";. c #2A5DB9",
":. c #1C6FA7",
">. c #1F7FB9",
",. c #2074AC",
"<. c #2361B6",
"1. c #2463BA",
"2. c #2C62BA",
"3. c #2177B1",
"4. c #217AB5",
"5. c #2076B8",
"6. c #2179BD",
"7. c #2E79B8",
"8. c #285BC6",
"9. c #295DC9",
"0. c #2767C8",
"q. c #2864CA",
"w. c #276CCB",
"e. c #286BCC",
"r. c #2865C3",
"t. c #2675CE",
"y. c #267BCE",
"u. c #2876C6",
"i. c #286FD0",
"p. c #277BD4",
"a. c #1F81B3",
"s. c #1F83BC",
"d. c #2082B2",
"f. c #2085BD",
"g. c #2189BC",
"h. c #2086C2",
"j. c #2A82C6",
"k. c #2189C4",
"l. c #2B89C4",
"z. c #2581CD",
"x. c #228ACB",
"c. c #298AC9",
"v. c #2492C6",
"b. c #2683D4",
"n. c #258ED6",
"m. c #258ED8",
"M. c #2294D1",
"N. c #249CD5",
"B. c #2593DB",
"V. c #249FDE",
"C. c #22BBCE",
"Z. c #22B7C9",
"A. c #24A0D5",
"S. c #24A1DF",
"D. c #21ADD9",
"F. c #22BAD4",
"G. c #21B1D9",
"H. c #259DE0",
"J. c #2694E0",
"K. c #24A1E1",
"L. c #1EC9CC",
"P. c #1ED6C6",
"I. c #1FD8C6",
"U. c #1FD3C9",
"Y. c #21CBCC",
"T. c #21C7C9",
"R. c #20D6C7",
"E. c #28DAC7",
"W. c #20D3C9",
"Q. c #28D9C8",
"!. c #38DECA",
"~. c #42DFCC",
"^. c #40E0CB",
"/. c #6DEDD2",
"(. c #86F4D6",
"). c #89F4D7",
"_. c #ACFDDC",
"`. c None",
/* pixels */
"`.`.`.`.`.`.`.`.`.`.`.`.`.`.`.`.`.`.`.`.`.`.`.`.`.`.`.`.`.`.`.`.`.`.`.`.`.`.`.`.`.`.`.`.`.`.`.`.`.`.`.`.`.`.`.`.`.`.`.`.`.`.`.`.",
"`.`.`.`.`.`.`.`.`.`.`.`.`.`.`.`.`.`.`.`.`.`.`.`.`.`.`.`.`.`.`.`.`.`.`.`.`.`.`.`.`.`.`.`.`.`.`.`.`.`.`.`.`.`.`.`.`.`.`.`.`.`.`.`.",
"`.`.`.`.`.`.`.`.`.`.`.`.`.`.`.`.`.`.`.`.`.`.`.`.`.`.`.`.`.`.`.`.`.`.`.`.`.`.`.`.`.`.`.`.`.`.`.`.`.`.`.`.`.`.`.`.`.`.`.`.`.`.`.`.",
"`.`.`.`.`.`.`.`.`.`.`.`.`.`.`.`.`.`.`.`.`.`.`.`.`.`.`.`.`.`.`.`.`.`.`.`.`.`.`.`.`.`.`.`.`.`.`.`.`.`.`.`.`.`.`.`.`.`.`.`.`.`.`.`.",
"`.`.`.`.`.`.`.`.`.`.`.`.`.`.`.`.`.`.`.`.`.`.`.`.`.`.`.`.`.`.`.`.`.`.`.`.`.`.`.`.`.`.`.`.`.`.`.`.`.`.`.`.`.`.`.`.`.`.`.`.`.`.`.`.",
"`.`.`.`.`.`.`.`.`.`.`.`.`.`.`.`.`.`.`.`.`.`.`.`.`.`.`.`.`.`.`.`.`.`.`.`.G F J H x `.`.`.`.`.`.`.`.`.`.`.`.`.`.`.`.`.`.`.`.`.`.`.",
"`.`.`.`.`.`.`.`.`.`.`.`.`.`.`.`.`.`.`.`.`.`.`.`.w 0 0 q 0 w w w w w w w e 8 * + o - L `.`.`.`.`.`.`.`.`.`.`.`.`.`.`.`.`.`.`.`.`.",
"`.`.`.`.`.`.`.`.`.`.`.`.`.`.`.`.`.`.`.`.`.`.`.A M M N U U U I I I I N T U n d 5 ; k F P `.`.`.`.`.`.`.`.`.`.`.`.`.`.`.`.`.`.`.`.",
"`.`.`.`.`.`.`.`.`.`.`.`.`.`.`.`.`.`.`.`.`.9 0 M ' =.6.h.h.f.h.f.f.f.h.h.h.f.>.,.@./ C k % o `.`.`.`.`.`.`.`.`.`.`.`.`.`.`.`.`.`.",
"`.`.`.`.`.`.`.`.`.`.`.`.`.`.`.`.`.`.`.`.t M N Q 1.p.B.K.K.K.K.K.K.K.K.K.K.K.S.B.p.1.Q B 6 < `.`.`.`.`.`.`.`.`.`.`.`.`.`.`.`.`.`.",
"`.`.`.`.`.`.`.`.`.`.`.`.`.`.`.`.`.`.`.t O.=.6.x.n.B.V.K.S.K.K.K.K.S.S.K.K.K.K.V.B.n.x.>.@.~ < X `.`.`.`.`.`.`.`.`.`.`.`.`.`.`.`.",
"`.`.`.`.`.`.`.`.`.`.`.`.`.`.`.`.`.`.t W <.p.B.K.S.S.V.V.V.V.V.V.V.V.V.V.V.V.V.S.S.K.H.B.p.%.e ; `.`.`.`.`.`.`.`.`.`.`.`.`.`.`.`.",
"`.`.`.`.`.`.`.`.`.`.`.`.`.`.`.`.`.t ' 1.z.B.V.S.S.S.V.V.N.K.V.V.V.V.V.V.S.V.V.V.S.V.K.V.B.z.%.] `.`.`.`.`.`.`.`.`.`.`.`.`.`.`.`.",
"`.`.`.`.`.`.`.`.`.`.`.`.`.`.`.`.t W 1.p.B.S.S.V.V.V.V.V.S.S.S.S.S.S.S.S.S.S.S.S.S.S.S.S.K.B.p.1.`.`.`.`.`.`.`.`.`.`.`.`.`.`.`.`.",
"`.`.`.`.`.`.`.`.`.`.`.`.`.`.`.t o.1.b.B.V.S.V.V.V.V.V.S.S.S.V.V.S.S.K.K.S.S.S.K.S.K.S.K.S.V.B.z.`.`.`.`.`.`.`.`.`.`.`.`.`.`.`.`.",
"`.`.`.`.`.`.`.`.`.`.`.`.`.`.0 t #.w.b.B.V.S.V.V.V.V.S.S.S.B.B.n.n.n.n.n.n.n.n.n.n.n.n.n.B.n.B.x.! `.`.`.`.`.`.`.`.`.`.`.`.`.`.`.",
"`.`.`.`.`.`.`.`.`.`.`.`.`.`.0 t #.q.0.p.B.S.S.V.V.V.S.S.S.B.y.e.0.w.w.w.0.w.w.w.w.w.w.w.w.w.w.1.Y `.`.`.`.`.`.`.`.`.`.`.`.`.`.`.",
"`.`.`.`.`.`.`.`.`.`.`.`.`.`.w t #.9.8.w.B.S.V.S.S.N.B.B.V.m.t.e.w.w.0.0.w.w.w.w.0.w.0.0.0.w.w.1.! I `.`.`.`.`.`.`.`.`.`.`.`.`.`.",
"`.`.`.`.`.`.`.`.`.`.`.`.`.P b t O.9.8.0.m.S.S.S.S.B.t.t.m.V.m.n.m.m.m.m.m.m.m.m.m.m.m.m.m.m.m.n.x.k.`.`.`.`.`.`.`.`.`.`.`.`.`.`.",
"`.`.`.`.`.`.`.`.`.`.`.`.J S v t #.9.8.0.B.S.V.N.B.b.t.y.N.D.D.D.D.D.D.D.D.D.D.D.D.D.D.D.D.D.D.D.D.G.`.`.`.`.`.`.`.`.`.`.`.`.`.`.",
"`.`.`.`.`.`.`.`.`.`.`.1 & * 6 t #.8.8.w.n.S.S.B.t.w.b.N.F.Y.Y.Y.L.T.L.L.T.L.L.L.L.L.L.L.L.L.L.L.L.L.W.R.`.`.`.`.`.`.`.`.`.`.`.`.",
"`.`.`.`.`.`.`.`.`.`.E m d 3 6 e +.8.8.w.m.S.S.B.t.y.N.F.Y.Q.!.^.~.!.~.~.^.!.~.^.!.~.!.~.^.^.^.^.^.!.Q.P.`.`.`.`.`.`.`.`.`.`.`.`.",
"`.`.`.`.`.`.`.`.`.E >.k.s. .3 > ' 8.8.w.B.S.S.B.B.N.F.L.P.!./.).(.(.(.(.(.(.(.(.(.(.).(.(.(.(.).)./.!.R.P.R.`.`.`.`.`.`.`.`.`.`.",
"`.`.`.`.`.`.`.`.R :.M.H.H.,.3 $ ' 9.8.w.B.S.S.S.S.G.Y.I.P.^.)._._._._._._._._._._._._._._._._._._.).^.P.P.R.`.`.`.`.`.`.`.`.`.`.",
"`.`.`.`.`.`.`.R 6.M.S.B.p.@.: ; ' 9.8.0.m.S.S.V.V.D.Y.R.I.~.)._._._._._._._._._._._._._._._._._._.).^.P.P.W.`.`.`.`.`.`.`.`.`.`.",
"`.`.`.`.`.`.0 R x.S.B.b.q.' 1 6 ' 8.8.w.m.K.S.V.V.D.T.R.I.!./.).(.(.(.(.(.(.(.(.).).(.(.(.(.(.).)./.!.I.P.R.`.`.`.`.`.`.`.`.`.`.",
"`.`.`.`.`.`.0 T x.B.b.0.q.O.r r +.8.8.w.B.A.S.S.K.D.T.R.I.Q.!.^.^.^.^.^.^.~.!.^.~.!.~.!.!.^.^.^.^.!.Q.I.P.W.`.`.`.`.`.`.`.`.`.`.",
"`.`.`.`.`.`.0 T s.B.w.8.8.#.t t #.8.8.w.B.S.S.B.B.A.T.W.Y.T.T.T.L.L.L.L.L.L.L.L.L.L.T.L.T.L.L.L.Y.T.T.Y.R.Y.`.`.`.`.`.`.`.`.`.`.",
"`.`.`.`.`.`.0 T k.B.0.8.8.#.t B #.8.8.w.B.A.S.B.t.z.Z.W.F.D.D.D.D.D.D.D.D.D.D.D.D.D.D.D.D.D.D.D.D.D.D.F.Y.T.v.`.`.`.`.`.`.`.`.`.",
"`.`.`.`.`.`.> m s.B.t.8.8.#.t t #.8.8.w.B.S.S.n.e.u.D.T.N.n.n.n.m.m.m.m.m.m.m.m.m.m.m.m.m.m.m.m.m.m.m.B.F.C.l.`.`.`.`.`.`.`.`.`.",
"`.`.`.`.`.`.O f d.B.t.8.8.#.t t #.8.8.w.n.S.S.n.0.w.N.A.y.e.e.w.0.w.w.0.w.w.0.w.w.w.w.w.w.0.w.w.0.w.0.p.N.D.`.`.`.`.`.`.`.`.`.`.",
"`.`.`.`.`.`.. s d.B.e.8.8.#.t t #.8.8.w.B.S.S.B.0.r.u.l.w.w.w.w.w.w.w.w.w.w.w.w.w.w.w.w.w.w.w.w.w.0.w.y.m.K.`.`.`.`.`.`.`.`.`.`.",
"`.`.`.`.`.`.. 3 a.B.t.8.8.#.t t +.8.8.w.B.S.S.n.w.*.{ X.j.B.B.B.m.m.m.m.B.m.m.B.m.B.m.m.B.m.m.B.m.B.B.m.`.`.`.`.`.`.`.`.`.`.`.`.",
"`.`.`.`.`.`.. s d.B.w.8.8.#.t t #.8.8.w.n.S.S.B.y.;.[ { 7.l.l.l.l.c.l.l.l.l.l.c.l.l.l.l.l.l.l.l.l.l.l.x.`.`.`.`.`.`.`.`.`.`.`.`.",
"`.`.`.`.`.`.. 7 d.B.w.8.8.#.t t #.8.8.w.B.S.V.V.B.z.2.&.{ _ _ _ _ _ _ _ _ _ _ _ _ _ _ _ _ _ _ _ _ _ ` ` `.`.`.`.`.`.`.`.`.`.`.`.",
"`.`.`.`.`.`.. s d.B.w.8.8.O.e r +.8.8.w.n.S.S.S.S.B.p.2.| ) ( ( ( ( ( ( ( ( ( ( ( ( ( ( ( ( ( ( ( ( i y `.`.`.`.`.`.`.`.`.`.`.`.",
"`.`.`.`.`.`.. s d.B.0.8.8.' 1 1 ' 9.8.w.n.S.S.V.S.V.B.n.c.7.2.$.$.*.$.*.*.*.$.$.*.$.$.*.$.*.$.*.*.] t q `.`.`.`.`.`.`.`.`.`.`.`.",
"`.`.`.`.`.`.. s d.B.w.8.8.' ; ; ' 9.8.w.n.S.S.S.S.V.S.S.S.B.y.w.w.w.w.w.0.w.w.w.w.w.w.w.w.w.w.w.i.=.M 0 `.`.`.`.`.`.`.`.`.`.`.`.",
"`.`.`.`.`.`.. s d.B.t.8.8.' ; ; ' 8.8.w.B.S.S.V.V.S.S.S.S.V.B.n.m.m.m.m.m.m.m.B.B.m.m.m.m.B.B.m.B.6.I 9 `.`.`.`.`.`.`.`.`.`.`.`.",
"`.`.`.`.`.`.. 7 d.B.w.8.8.' ; ; ' 8.8.w.n.S.S.V.V.V.V.V.V.S.S.S.S.K.S.K.S.K.S.K.S.S.K.S.S.S.S.K.K.k.T 9 `.`.`.`.`.`.`.`.`.`.`.`.",
"`.`.`.`.`.`.. s d.B.i.8.9.' ; ; ' 8.8.w.n.S.S.S.V.S.V.V.V.S.S.S.S.S.S.V.S.S.V.S.S.S.S.S.S.S.V.S.K.h.T 0 `.`.`.`.`.`.`.`.`.`.`.`.",
"`.`.`.`.`.`.. s d.B.w.9.8.' ; ; ' 8.8.w.n.S.S.V.V.V.V.V.V.V.V.V.S.V.V.V.V.V.V.V.V.V.V.V.V.S.V.S.K.h.I 0 `.`.`.`.`.`.`.`.`.`.`.`.",
"`.`.`.`.`.`.. s d.B.w.8.8.] ; ; ' q.8.w.n.S.S.V.V.V.V.V.V.V.S.V.V.V.V.S.V.V.V.V.V.V.V.V.V.V.V.S.K.h.I 0 `.`.`.`.`.`.`.`.`.`.`.`.",
"`.`.`.`.`.`.. 3 d.B.i.8.9.' $ ; ' 8.8.w.B.S.S.V.S.V.V.V.V.V.V.V.S.S.V.S.S.S.S.S.S.V.V.V.V.V.V.S.K.h.T 0 `.`.`.`.`.`.`.`.`.`.`.`.",
"`.`.`.`.`.`.. 3 d.B.i.8.8.' ; ; ' 8.8.w.n.S.S.S.V.V.V.V.V.V.S.S.S.S.K.K.S.S.S.V.V.V.V.V.V.V.V.S.K.k.T 0 `.`.`.`.`.`.`.`.`.`.`.`.",
"`.`.`.`.`.`.+ a ..4.r.9.q.' ; ; ' 8.8.w.n.S.S.V.V.V.V.S.S.V.S.S.B.n.m.B.B.m.n.B.V.S.V.V.V.V.V.S.K.h.N > `.`.`.`.`.`.`.`.`.`.`.`.",
"`.`.`.`.`.`.`.l a v #.q.9.' $ : ' 8.8.w.n.S.S.V.V.V.V.V.V.S.S.B.p.0.w.w.w.w.0.p.B.S.S.V.V.V.V.S.S.s.c O `.`.`.`.`.`.`.`.`.`.`.`.",
"`.`.`.`.`.`.`.`.= < ~ o.' M $ ; ' 8.8.w.B.S.S.V.V.V.V.V.V.V.B.y.<.O.#.+.' O.-.w.b.B.V.V.V.V.V.S.K.a.d   `.`.`.`.`.`.`.`.`.`.`.`.",
"`.`.`.`.`.`.`.`.`.j < , ; $ O : ' 9.8.w.B.S.S.V.V.S.V.S.S.B.p.1./ t t r 2 q +.q.q.y.B.S.S.V.V.K.K.s.s X `.`.`.`.`.`.`.`.`.`.`.`.",
"`.`.`.`.`.`.`.`.`.`.# . . . X : ' 8.8.w.B.S.S.V.V.V.V.S.H.n.1.' V b w 8 % < ~ +.-.w.n.S.S.V.V.V.K.s.f   `.`.`.`.`.`.`.`.`.`.`.`.",
"`.`.`.`.`.`.`.`.`.`.`.`.`.`.. , ' 8.8.w.n.K.S.V.V.V.V.S.K.h.Q V D P G `.`.j 4 q o.e.m.S.V.V.V.K.K.g.g `.`.`.`.`.`.`.`.`.`.`.`.`.",
"`.`.`.`.`.`.`.`.`.`.`.`.`.`.. ; ' 8.8.w.B.N.S.V.V.V.V.K.K.s.B 8 K `.`.`.`.`.X ; ' i.B.S.S.V.S.H.K.g.g `.`.`.`.`.`.`.`.`.`.`.`.`.",
"`.`.`.`.`.`.`.`.`.`.`.`.`.`.. , ' 9.8.w.B.S.S.V.V.V.V.K.K.d.7 % `.`.`.`.`.`.X ; ' t.m.K.V.V.V.K.K.g.f   `.`.`.`.`.`.`.`.`.`.`.`.",
"`.`.`.`.`.`.`.`.`.`.`.`.`.`.. ; ' 9.9.0.b.B.V.S.V.V.S.K.J.,.3   `.`.`.`.`.`.. , ' e.m.K.S.S.S.V.B.3.7 . `.`.`.`.`.`.`.`.`.`.`.`.",
"`.`.`.`.`.`.`.`.`.`.`.`.`.`.. , ' 9.8.q.r.y.B.K.S.S.S.B.p.@.2   `.`.`.`.`.`.. , o.i.B.K.S.S.S.B.p.@.2 . `.`.`.`.`.`.`.`.`.`.`.`.",
"`.`.`.`.`.`.`.`.`.`.`.`.`.`.+ 4 / +.-.8.8.q.b.B.V.H.B.z.=.~ : X `.`.`.`.`.`.`.: ~ =.z.B.H.K.B.z.<.~ 2 o `.`.`.`.`.`.`.`.`.`.`.`.",
"`.`.`.`.`.`.`.`.`.`.`.`.`.`.`.l 4 e #.8.9.q.e.p.B.J.p.%.e : `.`.`.`.`.`.`.`.`.`.; e <.p.J.J.p.<.e < h `.`.`.`.`.`.`.`.`.`.`.`.`.",
"`.`.`.`.`.`.`.`.`.`.`.`.`.`.`.`.= 2 / +.+.' o.@.3.3.@.Y < X `.`.`.`.`.`.`.`.`.`.`.: ~ @.3.3.@.^ < # `.`.`.`.`.`.`.`.`.`.`.`.`.`.",
"`.`.`.`.`.`.`.`.`.`.`.`.`.`.`.`.`.z 4 , , 2 , 2 s s 2 2 `.`.`.`.`.`.`.`.`.`.`.`.`.`.2 6 s 3 2 2 z `.`.`.`.`.`.`.`.`.`.`.`.`.`.`.",
"`.`.`.`.`.`.`.`.`.`.`.`.`.`.`.`.`.`.# . . . . . . . . `.`.`.`.`.`.`.`.`.`.`.`.`.`.`.`.X X X . o `.`.`.`.`.`.`.`.`.`.`.`.`.`.`.`.",
"`.`.`.`.`.`.`.`.`.`.`.`.`.`.`.`.`.`.`.`.`.`.`.`.`.`.`.`.`.`.`.`.`.`.`.`.`.`.`.`.`.`.`.`.`.`.`.`.`.`.`.`.`.`.`.`.`.`.`.`.`.`.`.`.",
"`.`.`.`.`.`.`.`.`.`.`.`.`.`.`.`.`.`.`.`.`.`.`.`.`.`.`.`.`.`.`.`.`.`.`.`.`.`.`.`.`.`.`.`.`.`.`.`.`.`.`.`.`.`.`.`.`.`.`.`.`.`.`.`.",
"`.`.`.`.`.`.`.`.`.`.`.`.`.`.`.`.`.`.`.`.`.`.`.`.`.`.`.`.`.`.`.`.`.`.`.`.`.`.`.`.`.`.`.`.`.`.`.`.`.`.`.`.`.`.`.`.`.`.`.`.`.`.`.`.",
"`.`.`.`.`.`.`.`.`.`.`.`.`.`.`.`.`.`.`.`.`.`.`.`.`.`.`.`.`.`.`.`.`.`.`.`.`.`.`.`.`.`.`.`.`.`.`.`.`.`.`.`.`.`.`.`.`.`.`.`.`.`.`.`."
};
