/* XPM */
static char *result[] = {
/* columns rows colors chars-per-pixel */
"64 64 165 2 ",
"   c #030201",
".  c #0A0703",
"X  c #0E0800",
"o  c #180F03",
"O  c #1E1508",
"+  c #121312",
"@  c #2B1900",
"#  c #2E1C01",
"$  c #33260F",
"%  c #262118",
"&  c #101E27",
"*  c #14232D",
"=  c #1B272F",
"-  c #1B2C38",
";  c #262D2E",
":  c #343228",
">  c #212C31",
",  c #2F3431",
"<  c #492E08",
"1  c #523A15",
"2  c #503A18",
"3  c #423E2E",
"4  c #764A0C",
"5  c #45402F",
"6  c #6B5024",
"7  c #1C3545",
"8  c #243744",
"9  c #253846",
"0  c #283946",
"q  c #2D3D45",
"w  c #233B4C",
"e  c #2C3B49",
"r  c #2E3B4A",
"t  c #2A3C48",
"y  c #2B3D4A",
"u  c #2C3D4B",
"i  c #2E3E4D",
"p  c #2F3F4E",
"a  c #303B4A",
"s  c #313C4B",
"d  c #3B3E4D",
"f  c #403F4E",
"g  c #2E404F",
"h  c #3A4647",
"j  c #31404B",
"k  c #3B4749",
"l  c #274356",
"z  c #2E4351",
"x  c #324554",
"c  c #324655",
"v  c #344856",
"b  c #3A4A55",
"n  c #334958",
"m  c #354958",
"M  c #384D5C",
"N  c #3F515D",
"B  c #2C5068",
"V  c #2E5068",
"C  c #315B76",
"Z  c #4A5454",
"A  c #48565D",
"S  c #535C5C",
"D  c #706F59",
"F  c #74725E",
"G  c #474E60",
"H  c #4B4E61",
"J  c #524F63",
"K  c #435463",
"L  c #445663",
"P  c #455465",
"I  c #4D596B",
"U  c #565264",
"Y  c #555E64",
"T  c #505C6F",
"R  c #59586D",
"E  c #5C586D",
"W  c #595D6C",
"Q  c #585F6D",
"!  c #4C5D70",
"~  c #595E72",
"^  c #60596E",
"/  c #62596F",
"(  c #73586B",
")  c #635D71",
"_  c #625D73",
"`  c #685C70",
"'  c #5A6566",
"]  c #5F696D",
"[  c #5F6A6D",
"{  c #4D6778",
"}  c #506370",
"|  c #576270",
" . c #576372",
".. c #556276",
"X. c #5A6579",
"o. c #5C667A",
"O. c #59697D",
"+. c #63646B",
"@. c #63656C",
"#. c #60686B",
"$. c #60686C",
"%. c #62686F",
"&. c #7B7963",
"*. c #626A71",
"=. c #61667B",
"-. c #69667A",
";. c #606A7F",
":. c #776074",
">. c #814C00",
",. c #8B5303",
"<. c #88580F",
"1. c #975D09",
"2. c #925F12",
"3. c #9F640E",
"4. c #825C6E",
"5. c #807C68",
"6. c #807C69",
"7. c #807D6A",
"8. c #807E6A",
"9. c #816377",
"0. c #83667A",
"q. c #8F6579",
"w. c #94677B",
"e. c #9E697D",
"r. c #A36A7E",
"t. c #356280",
"y. c #386785",
"u. c #3B6B8B",
"i. c #3D7193",
"p. c #3F7497",
"a. c #576E81",
"s. c #5A6C80",
"d. c #577083",
"f. c #577183",
"g. c #5D7687",
"h. c #5C798C",
"j. c #41799D",
"k. c #617185",
"l. c #61788B",
"z. c #647A8F",
"x. c #69788D",
"c. c #6A798E",
"v. c #497FA1",
"b. c #6A8397",
"n. c #6F8297",
"m. c #698599",
"M. c #698699",
"N. c #6C869B",
"B. c #598AA8",
"V. c #6F8DA2",
"C. c #618FAC",
"Z. c #718DA0",
"A. c #778FA5",
"S. c #7191A6",
"D. c #7A94AA",
"F. c #729BB4",
"G. c #7F9DB3",
"H. c #7AA0B8",
"J. c #82A2B8",
"K. c #8AACBF",
"L. c #92B1C3",
"P. c #A2BCCB",
"I. c #ABC2CE",
"U. c #BBCDD6",
"Y. c #C3D3DA",
/* pixels */
"j.j.j.j.j.j.j.j.j.j.j.j.j.j.j.j.j.j.j.j.j.j.j.j.j.j.j.j.j.j.j.j.j.j.j.j.j.j.j.j.j.j.j.j.j.j.j.j.j.j.j.j.j.j.j.j.j.j.j.j.j.j.j.j.",
"j.j.j.j.j.j.j.j.j.j.j.j.j.j.j.j.j.j.j.j.j.j.j.j.j.j.j.j.j.j.j.j.j.j.j.j.j.j.j.j.j.j.j.j.j.j.j.j.j.j.j.j.j.j.j.j.j.j.j.j.j.j.j.j.",
"j.j.j.j.j.j.j.j.j.j.j.j.j.j.j.j.j.j.j.j.j.j.j.j.j.j.j.j.j.j.j.j.j.j.j.j.j.j.j.j.j.j.j.j.j.j.j.j.j.j.j.j.j.j.j.j.j.j.j.j.j.j.j.j.",
"j.v.B.B.v.j.j.v.B.C.C.C.C.B.v.v.B.B.v.v.B.C.C.C.C.C.C.B.v.v.B.C.C.B.v.j.j.j.j.j.j.v.B.C.C.C.C.C.C.C.C.B.v.j.j.v.B.C.C.C.C.C.C.C.",
"j.B.K.K.B.j.j.B.K.P.P.P.P.K.B.B.K.K.B.B.K.P.P.P.P.P.P.K.B.B.K.P.P.K.B.j.j.j.j.j.j.B.K.P.P.P.P.P.P.P.P.K.B.j.j.B.K.P.P.P.P.P.P.P.",
"j.C.P.P.C.j.j.B.K.P.P.I.U.P.C.C.P.I.H.H.I.U.I.I.U.Y.Y.I.H.F.L.P.P.L.F.B.v.v.B.C.C.H.I.U.I.I.U.Y.Y.Y.Y.I.H.C.C.H.I.U.I.I.U.Y.Y.Y.",
"j.C.P.P.C.j.j.v.B.C.C.H.I.P.C.C.P.U.I.I.U.I.H.H.I.Y.Y.U.I.L.F.C.C.F.L.K.B.B.K.P.P.I.U.I.H.H.I.Y.Y.Y.Y.U.I.P.P.I.U.I.H.H.I.Y.Y.Y.",
"j.C.P.P.C.j.j.j.j.j.j.C.P.P.C.C.P.Y.Y.Y.Y.P.C.B.K.I.U.U.I.K.B.j.j.C.P.P.C.C.P.U.I.I.U.P.C.B.K.I.U.Y.Y.U.I.I.U.Y.Y.P.C.B.K.I.U.Y.",
"j.C.P.P.C.j.j.j.j.j.j.C.P.P.C.C.P.Y.Y.Y.Y.P.C.v.B.H.I.I.H.B.v.j.j.C.P.P.C.C.P.I.H.H.I.P.C.v.B.H.I.Y.Y.I.H.H.I.Y.Y.P.C.v.B.H.I.Y.",
"C.F.L.L.F.B.v.v.B.C.C.H.I.P.C.B.K.P.P.I.U.P.C.v.B.H.I.P.C.v.B.C.C.H.I.P.C.C.P.I.H.H.I.P.C.v.B.H.I.Y.Y.P.C.B.K.I.U.P.C.v.B.H.I.Y.",
"P.L.F.F.L.K.B.B.K.P.P.I.U.P.C.v.B.C.C.H.I.P.C.B.K.I.U.P.C.B.K.P.P.I.U.P.C.C.P.U.I.I.U.P.C.B.K.I.U.Y.Y.P.C.v.B.H.I.P.C.B.K.I.U.Y.",
"P.K.B.B.K.K.B.B.K.P.P.P.P.K.B.j.j.j.j.B.K.K.B.B.K.P.P.K.B.B.K.P.P.P.P.K.B.B.K.P.P.P.P.K.B.B.K.P.P.P.P.K.B.j.j.B.K.K.B.B.K.P.P.P.",
"C.B.v.v.B.B.v.v.B.C.C.C.C.B.v.j.j.j.j.v.B.B.v.v.B.C.C.B.v.v.B.C.C.C.C.B.v.v.B.C.C.C.C.B.v.v.B.C.C.C.C.B.v.j.j.v.B.B.v.v.B.C.C.C.",
"j.j.j.j.j.j.j.j.j.j.j.j.j.j.j.j.j.p.u.y.y.y.y.y.y.y.y.y.y.y.y.y.y.y.y.y.y.y.y.y.y.y.y.y.y.u.p.j.j.j.j.j.j.j.j.j.j.j.j.j.j.j.j.j.",
"j.j.j.j.j.j.j.j.j.j.j.j.j.j.j.j.j.u.V l l l l l l l l l l l l l l l l l l l l l l l l l l V u.j.j.j.j.j.j.j.j.j.j.j.j.j.j.j.j.j.",
"j.j.j.j.j.j.j.j.j.j.j.j.j.j.j.j.j.y.l 9 c M M M M M M M M M M M M M M M M M M M M M M c 9 l y.j.j.j.j.j.j.j.j.j.j.j.j.j.j.j.j.j.",
"j.j.j.j.j.j.j.j.j.j.j.j.j.j.j.j.j.y.l c f.M.M.M.M.M.M.M.M.M.M.M.M.M.M.M.M.M.M.M.M.M.M.f.c l y.j.j.j.j.j.j.j.j.j.j.j.j.j.j.j.j.j.",
"j.j.j.j.j.j.j.j.j.j.j.j.j.i.t.C C B w v g.Z.Z.Z.Z.Z.Z.Z.Z.Z.Z.Z.Z.Z.Z.Z.Z.Z.Z.Z.Z.Z.Z.g.v w B C C t.i.j.j.j.j.j.j.j.j.j.j.j.j.j.",
"j.j.j.j.j.j.j.j.j.j.j.j.j.t.7 & & * - y L } } } } } } } } } } } } } } } } } } } } } } L y - * & & 7 t.j.j.j.j.j.j.j.j.j.j.j.j.j.",
"j.j.j.j.j.j.j.j.j.j.j.j.j.C & X @ $ ; q Z S A A S S A A S S A A S S A A S S A A S S A b 0 = + .   & C j.j.j.j.j.j.j.j.j.j.j.j.j.",
"j.j.j.j.j.j.j.j.j.j.j.j.j.C & @ >.<.3 h D &.' ' &.&.' ' &.&.' ' &.&.' ' &.&.' ' &.&.' N t > % O . & C j.j.j.j.j.j.j.j.j.j.j.j.j.",
"j.j.j.j.j.j.j.j.j.j.j.j.j.C & # ,.2.5 k F 8.[ [ 8.8.[ ] 6.5.#.#.5.5.#.$.7.8.[ [ 8.8.[ K y , 2 < o & C j.j.j.j.j.j.j.j.j.j.j.j.j.",
"j.j.j.j.j.j.j.j.j.j.j.j.j.C & o < 2 , j Y *. . .*.*. .| @.+.W W +.+.W Q %.*. . .*.*. .P u 5 2.,.# & C j.j.j.j.j.j.j.j.j.j.j.j.j.",
"j.j.j.j.j.j.j.j.j.j.j.j.j.C & o < 2 , g ! s.s.s.s.O...~ ) ` ` ` ` ` ` ) ~ ..O.s.s.s.s.! g 5 2.,.# & C j.j.j.j.j.j.j.j.j.j.j.j.j.",
"j.j.j.j.j.j.j.j.j.j.j.j.j.C & # ,.2.5 c d.m.m.m.m.z.X.) 9.q.q.q.q.q.q.9.) X.z.m.m.m.m.d.c , 2 < o & C j.j.j.j.j.j.j.j.j.j.j.j.j.",
"j.j.j.j.j.j.j.j.j.j.j.j.j.C & # ,.2.5 n h.S.S.V.N.c.-.:.w.r.r.r.r.r.r.w.:.-.c.N.V.S.S.h.n , 2 < o & C j.j.j.j.j.j.j.j.j.j.j.j.j.",
"j.j.j.j.j.j.j.j.j.j.j.j.j.C & o < 2 , n h.S.S.N.k.-.0.w.e.r.r.r.r.r.r.e.w.0.-.k.N.S.S.h.n 5 2.,.# & C j.j.j.j.j.j.j.j.j.j.j.j.j.",
"j.j.j.j.j.j.j.j.j.j.j.j.j.C & o < 2 , n h.S.S.b.o.` q.r.r.r.r.r.r.r.r.r.r.q.` o.b.S.S.h.n 5 2.,.# & C j.j.j.j.j.j.j.j.j.j.j.j.j.",
"j.j.j.j.j.j.j.j.j.j.j.j.j.C & # ,.2.5 n h.S.S.b.o.` q.r.r.r.r.r.r.r.r.r.r.q.` o.b.S.S.h.n , 2 < o & C j.j.j.j.j.j.j.j.j.j.j.j.j.",
"j.j.j.j.j.j.j.j.j.j.j.j.j.C & # ,.2.5 n h.S.S.b.o.` q.r.r.r.r.r.r.r.r.r.r.q.` o.b.S.S.h.n , 2 < o & C j.j.j.j.j.j.j.j.j.j.j.j.j.",
"j.j.j.j.j.j.j.j.j.j.j.j.j.C & o < 2 , n h.S.S.b.o.` q.r.r.r.r.r.r.r.r.r.r.q.` o.b.S.S.h.n 5 2.,.# & C j.j.j.j.j.j.j.j.j.j.j.j.j.",
"j.j.j.j.j.j.j.j.j.j.j.j.j.C & o < 2 , z { h.h.a.I U ( 4.4.4.4.4.4.4.4.4.4.( U I a.h.h.{ z 5 2.,.# & C j.j.j.j.j.j.j.j.j.j.j.j.j.",
"j.j.j.j.j.j.j.j.j.j.j.j.j.C & # ,.2.5 8 z n n x i s d f f f f f f f f f f d s i x n n z 8 , 2 < o & C j.j.j.j.j.j.j.j.j.j.j.j.j.",
"j.j.j.j.j.j.j.j.j.j.j.j.j.C & # ,.2.5 9 c M M m p r a a r e e e e e e r a a r p m M M c 9 , 2 < o & C j.j.j.j.j.j.j.j.j.j.j.j.j.",
"j.j.j.j.j.j.j.j.j.j.j.j.j.C & o < 2 , c f.M.M.l.T H J J H G G G G G G H J J H T l.M.M.f.c 5 2.,.# & C j.j.j.j.j.j.j.j.j.j.j.j.j.",
"j.j.j.j.j.j.j.j.j.j.j.j.j.C & o < 2 , M M.J.J.D.x.=._ ^ E R R R R R R E ^ _ =.x.D.J.J.M.M 5 2.,.# & C j.j.j.j.j.j.j.j.j.j.j.j.j.",
"j.j.j.j.j.j.j.j.j.j.j.j.j.C & # ,.2.5 M M.J.J.G.D.n.=.E ^ / / / / / / ^ E =.n.D.G.J.J.M.M , 2 < o & C j.j.j.j.j.j.j.j.j.j.j.j.j.",
"j.j.j.j.j.j.j.j.j.j.j.j.j.C & # ,.2.5 M M.J.J.J.J.D.x.=._ / / / / / / _ =.x.D.J.J.J.J.M.M , 2 < o & C j.j.j.j.j.j.j.j.j.j.j.j.j.",
"j.j.j.j.j.j.j.j.j.j.j.j.j.C & o < 2 , M M.J.J.J.J.G.D.n.=.R R R R R R =.n.D.G.J.J.J.J.M.M 5 2.,.# & C j.j.j.j.j.j.j.j.j.j.j.j.j.",
"j.j.j.j.j.j.j.j.j.j.j.j.j.C & o < 2 , M M.J.J.J.J.J.J.D.x.;.;.;.;.;.;.x.D.J.J.J.J.J.J.M.M 5 2.,.# & C j.j.j.j.j.j.j.j.j.j.j.j.j.",
"j.j.j.j.j.j.j.j.j.j.j.j.j.C & # ,.2.5 M M.J.J.J.J.J.J.G.D.A.A.A.A.A.A.D.G.J.J.J.J.J.J.M.M , 2 < o & C j.j.j.j.j.j.j.j.j.j.j.j.j.",
"j.j.j.j.j.j.j.j.j.j.j.j.j.C & # ,.2.5 c f.M.M.M.M.M.M.M.M.M.M.M.M.M.M.M.M.M.M.M.M.M.M.f.c , 2 < o & C j.j.j.j.j.j.j.j.j.j.j.j.j.",
"j.j.j.j.j.j.j.j.j.j.j.j.j.C & o < 2 , 9 c M M M M M M M M M M M M M M M M M M M M M M c 9 5 2.,.# & C j.j.j.j.j.j.j.j.j.j.j.j.j.",
"j.j.j.j.j.j.j.j.j.j.j.j.j.C & o < 1 : , 5 5 , , 5 5 , , 5 5 , , 5 5 , , 5 5 , , 5 5 , , 5 6 3.,.# & C j.j.j.j.j.j.j.j.j.j.j.j.j.",
"j.j.j.j.j.j.j.j.j.j.j.j.j.C & # ,.1.1 2 2.2.2 2 2.2.2 2 2.2.2 2 2.2.2 2 2.2.2 2 2.2.2 2 2.3.4 < o & C j.j.j.j.j.j.j.j.j.j.j.j.j.",
"j.j.j.j.j.j.j.j.j.j.j.j.j.C & @ >.,.< < ,.,.< < ,.,.< < ,.,.< < ,.,.< < ,.,.< < ,.,.< < ,.,.< O . & C j.j.j.j.j.j.j.j.j.j.j.j.j.",
"j.j.j.j.j.j.j.j.j.j.j.j.j.C & X @ # o o # # o o # # o o # # o o # # o o # # o o # # o o # # o .   & C j.j.j.j.j.j.j.j.j.j.j.j.j.",
"j.j.j.j.j.j.j.j.j.j.j.j.j.t.7 & & & & & & & & & & & & & & & & & & & & & & & & & & & & & & & & & & 7 t.j.j.j.j.j.j.j.j.j.j.j.j.j.",
"j.j.j.j.j.j.j.j.j.j.j.j.j.i.t.C C C C C C C C C C C C C C C C C C C C C C C C C C C C C C C C C C t.i.j.j.j.j.j.j.j.j.j.j.j.j.j.",
"j.j.j.j.j.j.j.j.j.j.j.j.j.j.j.j.j.j.j.j.j.j.j.j.j.j.j.j.j.j.j.j.j.j.j.j.j.j.j.j.j.j.j.j.j.j.j.j.j.j.j.j.j.j.j.j.j.j.j.j.j.j.j.j.",
"j.j.j.j.j.j.j.j.j.j.j.j.j.j.j.j.j.j.j.j.j.j.j.j.j.j.j.j.j.j.j.j.j.j.j.j.j.j.j.j.j.j.j.j.j.j.j.j.j.j.j.j.j.j.j.j.j.j.j.j.j.j.j.j.",
"j.j.j.j.j.j.j.j.j.j.j.j.j.j.j.j.j.j.j.j.j.j.j.j.j.j.j.j.j.j.j.j.j.j.j.j.j.j.j.j.j.j.j.j.j.j.j.j.j.j.j.j.j.j.j.j.j.j.j.j.j.j.j.j.",
"j.j.j.j.j.j.j.j.j.j.j.j.j.j.j.j.j.j.j.j.j.j.j.j.j.j.j.j.j.j.j.j.j.j.j.j.j.j.j.j.j.j.j.j.j.j.j.j.j.j.j.j.j.j.j.j.j.j.j.j.j.j.j.j.",
"C.C.C.B.v.v.B.B.v.j.j.v.B.C.C.C.C.B.v.v.B.C.C.C.C.B.v.v.B.C.C.C.C.B.v.v.B.C.C.B.v.v.B.B.v.j.j.j.j.v.B.C.C.C.C.B.v.v.B.B.v.v.B.C.",
"P.P.P.K.B.B.K.K.B.j.j.B.K.P.P.P.P.K.B.B.K.P.P.P.P.K.B.B.K.P.P.P.P.K.B.B.K.P.P.K.B.B.K.K.B.j.j.j.j.B.K.P.P.P.P.K.B.B.K.K.B.B.K.P.",
"Y.U.I.K.B.C.P.I.H.B.v.C.P.Y.Y.U.I.K.B.C.P.U.I.I.U.P.C.C.P.U.I.P.P.K.B.C.P.U.I.K.B.C.P.I.H.C.C.B.v.C.P.U.I.P.P.K.B.B.K.L.F.F.L.P.",
"Y.I.H.B.v.C.P.U.I.K.B.C.P.Y.Y.I.H.B.v.C.P.I.H.H.I.P.C.C.P.I.H.C.C.B.v.C.P.I.H.B.v.C.P.U.I.P.P.K.B.C.P.I.H.C.C.B.v.v.B.F.L.L.F.C.",
"Y.I.H.B.v.C.P.Y.Y.I.H.H.I.Y.Y.I.H.B.v.C.P.I.H.H.I.P.C.C.P.P.C.j.j.v.B.H.I.I.H.B.v.C.P.Y.Y.Y.Y.P.C.C.P.P.C.j.j.j.j.j.j.C.P.P.C.j.",
"Y.U.I.K.B.C.P.Y.Y.U.I.I.U.Y.Y.U.I.K.B.C.P.U.I.I.U.P.C.C.P.P.C.j.j.B.K.I.U.U.I.K.B.C.P.Y.Y.Y.Y.P.C.C.P.P.C.j.j.j.j.j.j.C.P.P.C.j.",
"Y.Y.Y.I.H.H.I.U.I.P.P.I.U.Y.Y.Y.Y.I.H.H.I.U.I.P.P.K.B.B.K.L.F.C.C.F.L.I.U.Y.Y.I.H.H.I.U.I.I.U.P.C.C.P.I.H.C.C.B.v.j.j.C.P.P.C.j.",
"Y.Y.Y.U.I.I.U.I.H.C.C.H.I.Y.Y.Y.Y.U.I.I.U.I.H.C.C.B.v.v.B.F.L.P.P.L.F.H.I.Y.Y.U.I.I.U.I.H.H.I.P.C.C.P.U.I.P.P.K.B.j.j.C.P.P.C.j.",
"P.P.P.P.P.P.P.K.B.j.j.B.K.P.P.P.P.P.P.P.P.K.B.j.j.j.j.j.j.B.K.P.P.K.B.B.K.P.P.P.P.P.P.K.B.B.K.K.B.B.K.P.P.P.P.K.B.j.j.B.K.K.B.j.",
"C.C.C.C.C.C.C.B.v.j.j.v.B.C.C.C.C.C.C.C.C.B.v.j.j.j.j.j.j.v.B.C.C.B.v.v.B.C.C.C.C.C.C.B.v.v.B.B.v.v.B.C.C.C.C.B.v.j.j.v.B.B.v.j.",
"j.j.j.j.j.j.j.j.j.j.j.j.j.j.j.j.j.j.j.j.j.j.j.j.j.j.j.j.j.j.j.j.j.j.j.j.j.j.j.j.j.j.j.j.j.j.j.j.j.j.j.j.j.j.j.j.j.j.j.j.j.j.j.j."
};
