/* XPM */
static char *result[] = {
/* columns rows colors chars-per-pixel */
"64 64 198 2 ",
"   c #050505",
".  c #090705",
"X  c #0B0907",
"o  c #0D0B09",
"O  c #120D0A",
"+  c #1C0B0B",
"@  c #120D07",
"#  c #16110B",
"$  c #1B140B",
"%  c #1F180E",
"&  c #1A1814",
"*  c #2B0E0E",
"=  c #231B0E",
"-  c #2B1E0E",
";  c #20160B",
":  c #2B0F10",
">  c #251D11",
",  c #291F10",
"<  c #241618",
"1  c #281819",
"2  c #351515",
"3  c #3B1413",
"4  c #3A1717",
"5  c #37110F",
"6  c #31210F",
"7  c #2D2212",
"8  c #322412",
"9  c #372813",
"0  c #3B2913",
"q  c #3A2A16",
"w  c #251E21",
"e  c #1F2226",
"r  c #252325",
"t  c #2C2D2B",
"y  c #282727",
"u  c #2F302F",
"i  c #3B3328",
"p  c #242B31",
"a  c #2E2E31",
"s  c #2E3134",
"d  c #2B343C",
"f  c #323333",
"g  c #353A3E",
"h  c #38393A",
"j  c #312F31",
"k  c #441A1C",
"l  c #4C1B1C",
"z  c #471614",
"x  c #531A19",
"c  c #661D19",
"v  c #422D14",
"b  c #4B3216",
"n  c #463118",
"m  c #523616",
"M  c #553919",
"N  c #5A3C1A",
"B  c #553817",
"V  c #7D221E",
"C  c #74201D",
"Z  c #441D21",
"A  c #5E2124",
"S  c #483A25",
"D  c #513F26",
"F  c #413B32",
"G  c #432020",
"H  c #652426",
"J  c #6E2729",
"K  c #692527",
"L  c #702729",
"P  c #71282A",
"I  c #63411B",
"U  c #6C481E",
"Y  c #734C1F",
"T  c #56462E",
"R  c #4D4333",
"E  c #504736",
"W  c #754E20",
"Q  c #7D5221",
"!  c #7B5F35",
"~  c #2A3542",
"^  c #393E45",
"/  c #2E3E53",
"(  c #3D4248",
")  c #374656",
"_  c #3E5369",
"`  c #3B4F66",
"'  c #444443",
"]  c #42464D",
"[  c #484B4B",
"{  c #464A52",
"}  c #454D56",
"|  c #4B545D",
" . c #525554",
".. c #575955",
"X. c #534F4C",
"o. c #645E4F",
"O. c #6A6359",
"+. c #445568",
"@. c #565B63",
"#. c #415976",
"$. c #455E7C",
"%. c #495F72",
"&. c #5A6164",
"*. c #5A616B",
"=. c #47617E",
"-. c #48627F",
";. c #55687A",
":. c #656A6C",
">. c #656B73",
",. c #6A6F78",
"<. c #6D7276",
"1. c #6C727B",
"2. c #74787B",
"3. c #78756A",
"4. c #882521",
"5. c #942823",
"6. c #9C2B25",
"7. c #902722",
"8. c #A42C26",
"9. c #AB2E27",
"0. c #AD2F28",
"q. c #825623",
"w. c #8C5C25",
"e. c #855926",
"r. c #8B5F2D",
"t. c #996528",
"y. c #A86F2B",
"u. c #AD712C",
"i. c #BC7B2F",
"p. c #B5772D",
"a. c #BD7C30",
"s. c #C17F30",
"d. c #C07C2D",
"f. c #907657",
"g. c #A57E41",
"h. c #8E7F62",
"j. c #CD8633",
"k. c #C68232",
"l. c #D48A35",
"z. c #D58B35",
"x. c #DD9136",
"c. c #E79738",
"v. c #EC9A39",
"b. c #E09237",
"n. c #F39E3B",
"m. c #F7A13C",
"M. c #F8A13C",
"N. c #AC814E",
"B. c #948D74",
"V. c #CC9E54",
"C. c #C0944E",
"Z. c #D3A255",
"A. c #4A6583",
"S. c #4D6986",
"D. c #4E6A89",
"F. c #476180",
"G. c #516D8C",
"H. c #556F85",
"J. c #53708E",
"K. c #567086",
"L. c #557392",
"P. c #597795",
"I. c #597896",
"U. c #5D7D9B",
"Y. c #757B84",
"T. c #607E9E",
"R. c #617FA0",
"E. c #5F819F",
"W. c #7D838C",
"Q. c #61819F",
"!. c #6484A4",
"~. c #6588A6",
"^. c #6889A6",
"/. c #678AA9",
"(. c #6A8DAB",
"). c #6887A8",
"_. c #6D90AF",
"`. c #6F93B2",
"'. c #7196B4",
"]. c #7399B7",
"[. c #759BB9",
"{. c #838A93",
"}. c #878F98",
"|. c #8C939D",
" X c #929AA3",
".X c #8F98A1",
"XX c #9CA5AF",
"oX c #9EA7B1",
"OX c #A8B1BB",
"+X c #A6AFB9",
"@X c #ADB7C1",
"#X c #B2BBC6",
"$X c #B7C1CC",
"%X c #BAC4CF",
"&X c #BCC6D2",
"*X c #BEC8D3",
"=X c #C0CAD5",
"-X c None",
/* pixels */
"-X-X-X-X-X-X-X-X-X-X-X-X-X-X-X-X-X-X-X-X-X-X-X-X-X-X-X-X-X-X-X-X-X-X-X-X-X-X-X-X-X-X-X-X-X-X-X-X-X-X-X-X-X-X-X-X-X-X-X-X-X-X-X-X",
"-X-X-X-X-X-X-X-X-X-X-X-X-X-X-X-X-X-X-X-X-X-X-X-X-X-X-X-X-X-X-X-X-X-X-X-X-X-X-X-X-X-X-X-X-X-X-X-X-X-X-X-X-X-X-X-X-X-X-X-X-X-X-X-X",
"-X-X-X-X-X-X-X-X-X-X-X-X-X-X-X-X-X-X-X-X-X-X-X-X-X-X-X-X-X-X-X-X-X-X-X-X-X-X-X-X-X-X-X-X-X-X-X#.-X-X-X-X-X-X-X-X-X-X-X-X-X-X-X-X",
"-X-X-X-X-X-X-X-X-X-X-X-X-X-X-X-X-X-X-X-X-X-X-X-X-X-X-X-X-X-X-X-X-X-X-X-X-X-X-X-X-X-X-X-X-X-X-X$.G.P.D.#.-X-X-X-X-X-X-X-X-X-X-X-X",
"-X-X-X-X-X-X-X-X-X-X-X-X-X-X-X-X-X-X-X-X-X-X-X-X-X-X-X-X-X-X-X-X-X-X-X-X-X-X-X-X-X-X-X-X-X-XA.E.D.T.L.G.F.-X-X-X-X-X-X-X-X-X-X-X",
"-X-X-X-X-X-X-X-X-X-X-X-X-X-X-X-X-X-X-X-X-X-X-X-X-X-X-X-X-X-X-X-X-X-X-X-X-X-X-X-X-X-X-X-X-X-XD.`.~.D.A.R.R.A.-X-X-X-X-X-X-X-X-X-X",
"-X-X-X-X-X-X-X-X-X-X-X-X-X-X-X-X-X-X-X-X-X-X-X-X-X-X-X-X-X-X-X-X-X-X-X-X-X-X-X-X-X-X-X-X-X-XL.[.[.U.F.!.).R.G.-X-X-X-X-X-X-X-X-X",
"-X-X-X-X-X-X-X-X-X-X-X-X-X-X-X-X-X-X-X-X-X-X-X-X-X-X-X-X-X-X-X-X-X-X-X-X-X-X-X-X-X-X-X-X-X-XR.[.[.(.$.G.).).!.G.$.-X-X-X-X-X-X-X",
"-X-X-X-X-X-X-X-X-X-X-X-X-X-X-X-X-X-X-X-X-X-X-X-X-X-X-X-X-X-X-X-X-X-X-X-X-X-X-X-X-X-X-X-X-X$./.[.[.E.L.L.G.).).!.L.$.-X-X-X-X-X-X",
"-X-X-X-X-X-X-X-X-X-X-X-X-X-X-X-X-X-X-X-X-X-X-X-X-X-X-X-X-X-X-X-X-X-X-X-X-X-X-X-X-X-X-X-X-XA.`.[.[.I.!.'.J.J.).).).P.$.-X-X-X-X-X",
"-X-X-X-X-X-X-X-X-X-X-X-X-X-X-X-X-X-X-X-X-X-X-X-X-X-X-X-X-X-X-X-X-X-X-X-X-X-X-X-X-X-X-X-X-XL.].].[.L.(.].'.G.P.).).).T.A.-X-X-X-X",
"-X-X-X-X-X-X-X-X-X-X-X-X-X-X-X-X-X-X-X-X-X-X-X-X-X-X-X-X-X-X-X-X-X-X-X-X-X-X-X-X-X-X-X-X-XU.[.[.'.J.'.[.[.(.A.D.G.L.I.P.A.-X-X-X",
"-X-X-X-X-X-X-X-X-X-X-X-X-X-X-X-X-X-X-X-X-X-X-X-X-X-X-X-X-X-X-X-X-X-X-X-X-X-X-X-X-X-X-X-X-X~.[.[._.J.'.[.[.~.L.`.Q.T.J.D.F.#.-X-X",
"-X-X-X-X-X-X-X-X-X-X-X-X-X-X-X-X-X-X-X-X-X-X-X-X-X-X-X-X-X-X-X-X-X-X-X-X-X-X-X-X-X-X-X-X-.(.[.[.~.P.[.[.[.U.Q.[.[.[.[.'.(.T.A.-X",
"-X-X-X-X-X-X-X-X-X-X-X-X-X-X-X-X-X-X-X-X-X-X-X-X-X-X-X-X-X-X-X-X-X-X-X-X-X-X-X-X-X-X-X-XD.'.[.[.U.U.[.].].P._.[.[.[.[.[.[.'.G.-X",
"-X-X-X-X-X-X-X-X-X-X-X-X-X-X-X-X-X-X-X-X-X-X-X-X-X-X-X-X-X-X-X-X-X-X-X-X-X-X-X-X-X-X-X-XL.[.[.[.L.!.[.[.'.L.'.[.[.[.[.[.[.(.-.-X",
"-X-X-X-X-X-X-X-X-X-X-X-X-X-X-X-X-X-X-X-X-X-X-X-X-X-X-X-X-X-X-X-X-X-X-X-X-X-X-X-X-X-X-X-XE.[.].].J._.[.[./.L.[.[.[.[.[.[.[.E.-X-X",
"-X-X-X-X-X-X-X-X-X-X-X-X-X-X-X-X-X-X-X-X-X-X-X-X-X-X-X-X-X-X-X-X-X-X-X-X-X-X-X-X-X-X-X=./.[.[.`.G.`.].[.U.E.[.[.[.[.[.[.[.I.-X-X",
"-X-X-X-X-X-X-X-X-X-X-X-X-X-X-X-X-X-X-X-X-X-X-X-X-X-X-X-X-X-X-X-X-X-X-X-X-X-X-X-X-X-X-XS.`.[.[.(.L.].[.].J./.[.[.[.[.[.[.].D.-X-X",
"-X-X-X-X-X-X-X-X-X-X-X-X-X-X-X-X-X-X-X-X-X-X-X-X-X-X-X-X-XO O -X-X-X-X-X-X-X-X-X-X-X-X_ S.(.[.E.I.[.].`.G.].[.[.[.[.[.[.(.A.-X-X",
"-X-X-X-X-X-X-X-X-X-X-X-X-X-X-X-X-X  8 7 = 6 Q % o . * x c 4.V c x 5 +   6 Q q.6 % # u  .# _ [.E.R.[.[.~.L.[.[.[.[.[.[.[.!.-X-X-X",
"-X-X-X-X-X-X-X-X-X-X-X-X-X-X-X-X-Xo @ $ 8 n q.$ x 4.8.0.9.0.9.0.0.8.6.C z m p.N 7 - h h % p _.L./.[.[.U.E.[.[.[.[.[.[.[.P.-X-X-X",
"-X-X-X-X-X-X-X-X-X-X-X-X-X-X-X-X$ Q t.I # # 3 4.9.0.9.9.9.9.9.9.9.9.0.0.8.V 3 $ & > d ) ..( S.S.`.[.[.G./.[.[.[.[.[.[.[.G.-X-X-X",
"-X-X-X-X-X-X-X-X-X-X-X-X-X-X-X-X@ 8 q 7 s 3 5.9.9.9.9.9.9.9.9.9.9.9.9.9.0.0.7.: @.oX| ( | ( ) S./.[.`.D.].[.[.[.].[.[.'.A.-X-X-X",
"-X-X-X-X-X-X-X-X-X-X-X-X-X-X-X-X> 8 7 & w 4.0.0.9.9.9.9.9.9.9.9.9.9.9.9.9.9.0.V ' #XY.t ..[ p S.L.[.~.L.[.[.[.[.[.[.[.^.$.-X-X-X",
"-X-X-X-X-X-X-X-X-X-X-X-X-X-X-X. $ , % & 4 8.0.0.9.9.9.9.9.9.9.9.9.9.9.9.9.9.9.8.Z XX Xt ' [ y ` D._.U.Q.[.[.[.[.[.[.[.I.-X-X-X-X",
"-X-X-X-X-X-X-X-X-X-X-X-X-X-X-Xv Q Q m e x 9.9.9.9.9.9.9.9.9.9.9.9.9.9.9.9.9.9.9.l .X#Xf n T q d S.Q.J._.[.[.[.[.[.[.].G.-X-X-X-X",
"-X-X-X-X-X-X-X-X-X-X-X-X-X-X-Xt.n.n.e.) x 9.9.9.9.9.9.9.9.9.9.9.9.9.9.9.9.9.9.8.2 .X&X .N.Z.V.T =.S.D.'.[.[.[.[.[.[.'.S.-X-X-X-X",
"-X-X-X-X-X-X-X-X-X-X-X-X-X-X. v B m i >.+ 5.9.9.9.9.9.9.9.9.9.9.9.9.9.9.9.9.9.V O  X*X1.D ! ! i ) -.J.].[.[.[.[.[.[.(.-.-X-X-X-X",
"-X-X-X-X-X-X-X-X-X-X-X-X-X-X# 7 - % ( 1.+ z 8.0.9.9.9.9.9.9.9.9.9.9.9.9.9.9.8.3 < .X=X.X& u f t p =.J.[.[.[.[.[.[.[.Q.-X-X-X-X-X",
"-X-X-X-X-X-X-X-X-X-X-X-X-X. , 9 9 ; :.1.k 2 3 5.9.9.9.9.9.9.9.9.9.9.9.9.9.8.x 5 Z }.*XOXu X. . .y ) S.'.[.[.[.[.[.[.L.-X-X-X-X-X",
"-X-X-X-X-X-X-X-X-X-X-X-X-X. = , 7 & |.2.l J k * x 5.9.0.0.9.0.9.9.0.9.9.4.3 2 K v W.*X$X[ f E ( s ` J.~.[.[.[.[.[.'.D.-X-X-X-X-X",
"-X-X-X-X-X-X-X-X-X-X-X-X-X9 B B b t +XY.l P L A 2 * z C 5.6.6.6.5.V c z * k J L 4 W.*X&X>.7 D D h _ T.L.[.[.[.[.[._.=.-X-X-X-X-X",
"-X-X-X-X-X-X-X-X-X-X-X-X# u.v.m.d.X.#X1.l P J L L H k 2 * * : : * * 4 l H L L P k W.*X*X.XT Z.Z.h.~ K.G._.[.[.[.[.Q.-X-X-X-X-X-X",
"-X-X-X-X-X-X-X-X-X-X-X-X9 j.c.v.t.,.=XY.2 J L L L L L J H A A A H K P L L L L L k W.&X&XOXR C.V.3.o.} E.I.[.[.[.[.P.-X-X-X-X-X-X",
"-X-X-X-X-X-X-X-X-X-X-X-X@ v b b 2 |.&X{.p l L J J L J J J J L L J J L L L L L H < W.&X%X#X] q R ) i p ~.H.'.[.[.'.J.-X-X-X-X-X-X",
"-X-X-X-X-X-X-X-X-X-X-XX = 7 , = a @X#X{.@.w 3 J L J J J J J P J J J L L L L H : g }.%X%X*X>.y ] %.&.g H.I.Q.[.[._.=.-X-X-X-X-X-X",
"-X-X-X-X-X-X-X-X-X-X-XO 8 9 9 > :.&X@XY.Y.@.a : x J P P L J J J L J P P A k < ( >.W.$X&X*X}.t | ;.<. .) ^.J.[.[.!.-X-X-X-X-X-X-X",
"-X-X-X-X-X-X-X-X-X-X-X= 9 9 9 < |.=XOX1.>.,.>.] r : 4 l H H K K K A l 2 < s @.1.<.W.$X%X%X+Xd ` <.<.:.s Q.K._.[.L.-X-X-X-X-X-X-X",
"-X-X-X-X-X-X-X-X-X-X  # % % % t @X=XoX1.Y.>.Y.Y.>.@.] s r 1 1 < 1 r s ] *.1.1.1.<.Y.@X*X*X%X} ) @.&.&.u =.Q.P.'.D.-X-X-X-X-X-X-X",
"-X-X-X-X-X-X-X-X-X-Xv Q Y Y b t Y.{.>.] ] ] ] ] ] ] { { ( ( g g ^ ] { { { { { { { } Y.W.W.W.*.) s R E R g ^.G.^.A.-X-X-X-X-X-X-X",
"-X-X-X-X-X-X-X-X-X-Xt.M.n.x.M $ $ N t.w.8 $ = > $ I q.Q - # % = # b Q Q 8 $ $ % # b q.W M # w d ) :.3.B.R J.P.G.-X-X-X-X-X-X-X-X",
"-X-X-X-X-X-X-X-X-X6 j.n.b.M , 9 > a.n.v.v 7 9 q = p.M.v.m 7 9 9 = w.M.n.U , 9 9 7 Y n.n.l.9 9 6 = r.N.f.O._ A.#.-X-X-X-X-X-X-X-X",
"-X-X-X-X-X-X-X-X-Xm j.j.Y = 9 8 v b.n.j.- 9 8 9 = k.m.v.m 7 9 9 - Q n.n.W , 9 9 7 m v.n.c.b 7 9 7 8 p.v.l.i -X-X-X-X-X-X-X-X-X-X",
"-X-X-X-X-X-X-X-X-X$ , ; = 8 q > W n.n.y., 9 9 8 9 l.n.c.b 6 9 9 = W n.n.q., 9 9 9 9 l.n.n.U , 9 9 $ $ n b # -X-X-X-X-X-X-X-X-X-X",
"-X-X-X-X-X-X-X-X@ 7 = o 8 9 9 = u.n.n.q., q 9 8 0 x.n.c.m 6 9 9 , U n.n.w., 9 9 9 = p.n.n.t.= 9 9 , 0 9 $ > X -X-X-X-X-X-X-X-X-X",
"-X-X-X-X-X-X-X-X# , @ % 9 9 9 8 l.n.v.M 7 9 9 7 b c.m.v.m 7 9 9 , I v.n.t., 9 9 9 - e.n.n.s.- 9 9 7 b i.9 > # -X-X-X-X-X-X-X-X-X",
"-X-X-X-X-X-X-X-X$ b M = q 9 , M n.n.x.9 8 9 q 7 N v.m.v.M 8 9 9 7 N n.m.u., 9 9 9 7 N v.n.b.v 9 9 9 8 l.j.v @ -X-X-X-X-X-X-X-X-X",
"-X-X-X-X-X-X-X  O e.v = , , % I i.i.t.; - , 7 = m i.i.p.v , 7 7 , v k.z.t.= 7 8 8 7 8 s.z.l.M , 7 8 ; t.x.y.;   -X-X-X-X-X-X-X-X",
"-X-X-X-X-X-X-X-X. # . o . . . @ $ $ @ . . . .   o # $ $ o o   o X . = 6 = . o o o X o - 8 6 # . o X . O - 6 @   -X-X-X-X-X-X-X-X",
"-X-X-X-X-X-X-X-X-X-X-X-X-X-X-X-X-X-X-X-X-X-X-X-X-X-X-X-X-X-X-X-X-X-X-X-X-X-X-X-X-X-X-X-X-X-X-X-X-X-X-X-X-X-X-X-X-X-X-X-X-X-X-X-X",
"-X-X-X-X-X-X-X-X-X-X-X-X-X-X-X-X-X-X-X-X-X-X-X-X-X-X-X-X-X-X-X-X-X-X-X-X-X-X-X-X-X-X-X-X-X-X-X-X-X-X-X-X-X-X-X-X-X-X-X-X-X-X-X-X",
"-X-X-X-X-X-X-X-X-X-X-X-X-X-X-X-X-X-X-X-X-X-X-X-X-X-X-X-X-X-X-X-X-X-X-X-X-X-X-X-X-X-X-X-X-X-X-X-X-X-X-X-X-X-X-X-X-X-X-X-X-X-X-X-X",
"-X-X-X-X-X-X-X-X-X-X-X-X-X-X-X-X-X-X-X-X-X-X-X-X-X-X-X-X-X-X-X-X-X-X-X-X-X-X-X-X-X-X-X-X-X-X-X-X-X-X-X-X-X-X-X-X-X-X-X-X-X-X-X-X",
"-X-X-X-X-X-X-X-X-X-X-X-X-X-X-X-X-X-X-X-X-X-X-X-X-X-X-X-X-X-X-X-X-X-X-X-X-X-X-X-X-X-X-X-X-X-X-X-X-X-X-X-X-X-X-X-X-X-X-X-X-X-X-X-X",
"-X-X-X-X-X-X-X-X-X-X-X-X-X-X-X-X-X-X-X-X-X-X-X-X-X-X-X-X-X-X-X-X-X-X-X-X-X-X-X-X-X-X-X-X-X-X-X-X-X-X-X-X-X-X-X-X-X-X-X-X-X-X-X-X",
"-X-X-X-X-X-X-X-X-X-X-X-X-X-X-X-X-X-X-X-X-X-X-X-X-X-X-X-X-X-X-X-X-X-X-X-X-X-X-X-X-X-X-X-X-X-X-X-X-X-X-X-X-X-X-X-X-X-X-X-X-X-X-X-X",
"-X-X-X-X-X-X-X-X-X-X-X-X-X-X-X-X-X-X-X-X-X-X-X-X-X-X-X-X-X-X-X-X-X-X-X-X-X-X-X-X-X-X-X-X-X-X-X-X-X-X-X-X-X-X-X-X-X-X-X-X-X-X-X-X",
"-X-X-X-X-X-X-X-X-X-X-X-X-X-X-X-X-X-X-X-X-X-X-X-X-X-X-X-X-X-X-X-X-X-X-X-X-X-X-X-X-X-X-X-X-X-X-X-X-X-X-X-X-X-X-X-X-X-X-X-X-X-X-X-X",
"-X-X-X-X-X-X-X-X-X-X-X-X-X-X-X-X-X-X-X-X-X-X-X-X-X-X-X-X-X-X-X-X-X-X-X-X-X-X-X-X-X-X-X-X-X-X-X-X-X-X-X-X-X-X-X-X-X-X-X-X-X-X-X-X",
"-X-X-X-X-X-X-X-X-X-X-X-X-X-X-X-X-X-X-X-X-X-X-X-X-X-X-X-X-X-X-X-X-X-X-X-X-X-X-X-X-X-X-X-X-X-X-X-X-X-X-X-X-X-X-X-X-X-X-X-X-X-X-X-X",
"-X-X-X-X-X-X-X-X-X-X-X-X-X-X-X-X-X-X-X-X-X-X-X-X-X-X-X-X-X-X-X-X-X-X-X-X-X-X-X-X-X-X-X-X-X-X-X-X-X-X-X-X-X-X-X-X-X-X-X-X-X-X-X-X",
"-X-X-X-X-X-X-X-X-X-X-X-X-X-X-X-X-X-X-X-X-X-X-X-X-X-X-X-X-X-X-X-X-X-X-X-X-X-X-X-X-X-X-X-X-X-X-X-X-X-X-X-X-X-X-X-X-X-X-X-X-X-X-X-X",
"-X-X-X-X-X-X-X-X-X-X-X-X-X-X-X-X-X-X-X-X-X-X-X-X-X-X-X-X-X-X-X-X-X-X-X-X-X-X-X-X-X-X-X-X-X-X-X-X-X-X-X-X-X-X-X-X-X-X-X-X-X-X-X-X"
};
