/* XPM */
static char *result[] = {
/* columns rows colors chars-per-pixel */
"64 64 174 2 ",
"   c #030303",
".  c #0D0A06",
"X  c #0D0B09",
"o  c #080605",
"O  c #170F07",
"+  c #120D08",
"@  c #16110A",
"#  c #1B140C",
"$  c #191107",
"%  c #1E1A16",
"&  c #2A0C09",
"*  c #370F0D",
"=  c #20170C",
"-  c #231A0E",
";  c #2B1D0D",
":  c #311F0C",
">  c #261C11",
",  c #2A1E11",
"<  c #2B1210",
"1  c #3D1310",
"2  c #3E1B1D",
"3  c #34220F",
"4  c #3A260F",
"5  c #2C2114",
"6  c #2B2219",
"7  c #272018",
"8  c #332515",
"9  c #392611",
"0  c #3D2811",
"q  c #391F22",
"w  c #282623",
"e  c #2B2C2C",
"r  c #252320",
"t  c #3C2325",
"y  c #372A2E",
"u  c #39292C",
"i  c #232C34",
"p  c #392F33",
"a  c #2E3236",
"s  c #2A343F",
"d  c #393434",
"f  c #3C363A",
"g  c #38393E",
"h  c #40110F",
"j  c #4E1512",
"k  c #451C1D",
"l  c #4D1A1B",
"z  c #441A17",
"x  c #5A1714",
"c  c #531A1B",
"v  c #5D1A19",
"b  c #541816",
"n  c #641A16",
"m  c #651C19",
"M  c #6B1C19",
"N  c #731E1A",
"B  c #422C12",
"V  c #492F12",
"C  c #4E3214",
"Z  c #43311B",
"A  c #553715",
"S  c #573816",
"D  c #5C3C17",
"F  c #78221E",
"G  c #591F21",
"H  c #561D20",
"J  c #492527",
"K  c #482629",
"L  c #5E2123",
"P  c #41372A",
"I  c #4D2E31",
"U  c #443D35",
"Y  c #632325",
"T  c #6A2427",
"R  c #6F272A",
"E  c #70272A",
"W  c #71282B",
"Q  c #674219",
"!  c #754B1C",
"~  c #7E511E",
"^  c #574229",
"/  c #4C443A",
"(  c #584632",
")  c #704B21",
"_  c #64492B",
"`  c #293746",
"'  c #3E3C40",
"]  c #333A43",
"[  c #453E43",
"{  c #34404E",
"}  c #364658",
"|  c #334B61",
" . c #434243",
".. c #484748",
"X. c #524F4B",
"o. c #5C5144",
"O. c #494E53",
"+. c #4E5156",
"@. c #54565A",
"#. c #6A5C4B",
"$. c #4D5B6A",
"%. c #575B63",
"&. c #595D65",
"*. c #555E6B",
"=. c #445D79",
"-. c #415B77",
";. c #5C626A",
":. c #5B6066",
">. c #54687B",
",. c #61656B",
"<. c #646A72",
"1. c #6D737B",
"2. c #67707A",
"3. c #71767C",
"4. c #84221E",
"5. c #8C2520",
"6. c #932721",
"7. c #9B2923",
"8. c #972822",
"9. c #A42B25",
"0. c #AB2D27",
"q. c #AD2E28",
"w. c #84541E",
"e. c #8C5A21",
"r. c #835929",
"t. c #925E22",
"y. c #966124",
"u. c #996225",
"i. c #95632A",
"p. c #99662D",
"a. c #A46926",
"s. c #AB6E28",
"d. c #A96C27",
"f. c #B3722A",
"g. c #BB782C",
"h. c #C47E2E",
"j. c #8C6941",
"k. c #C7802F",
"l. c #CD8431",
"z. c #C68132",
"x. c #D38732",
"c. c #E39236",
"v. c #EB9737",
"b. c #EC9738",
"n. c #EE9938",
"m. c #5F758D",
"M. c #62778C",
"N. c #757A80",
"B. c #657A92",
"V. c #7B818A",
"C. c #7B8087",
"Z. c #6D8299",
"A. c #72879D",
"S. c #858A8F",
"D. c #868C93",
"F. c #888F96",
"G. c #8C949C",
"H. c #9098A0",
"J. c #9BA4AD",
"K. c #96A0AA",
"L. c #9FA9B3",
"P. c #A2AAB4",
"I. c #A7B0BB",
"U. c #A9B2BD",
"Y. c #AFB8C3",
"T. c #B4BEC9",
"R. c #B2BCC6",
"E. c #B7C1CC",
"W. c #BAC4CF",
"Q. c #BCC6D1",
"!. c #BEC8D3",
"~. c #D1D8DF",
"^. c #D4DAE1",
"/. c None",
/* pixels */
"/./././././././././././././././././././././././././././././././././././././././././././././././././././././././././././././././.",
"/./././././././././././././././././././././././././././././././././././././././././././././././././././././././././././././././.",
"/./././././././././././././././././././././././././././././././././././././././././././././././././././././././././././././././.",
"/./././././././././././././././././././././././././././././././././././././././././././././././././././././././././././././././.",
"/./././././././././././././././././././././././././././././././././././././././././././././././././././././././././././././././.",
"/./././././././././././././././././././././././././././././././././././././././././././././././././././././././././././././././.",
"/./././././././././././././././././././././././././././././././././././././././././././././././././././././././././././././././.",
"/./././././././././././././././././././././././././././././././././././././././././././././././././././././././././././././././.",
"/./././././././././././././././././././././././././././././././././././././././././././././././././././././././././././././././.",
"/./././././././././././././././././././././././././././././././././././././././././././././././././././././././././././././././.",
"/./././././././././././././././././././././././././././././././././././././././././././././././././././././././././././././././.",
"/./././././././././././././././././././././././././././././././././././././././././././././././././././././././././././././././.",
"/./././././././././././././././././././././././././././././././././././././././././././././././././././././././././././././././.",
"/./././././././././././././././././././././././././././././././././././././././././././././././././././././././././././././././.",
"/./././././././././././././././././././././././././././././././././././././././././././././././././././././././././././././././.",
"/./././././././././././././././././././././././././././././././././././././././././././././././././././././././././././././././.",
"/./././././././././././././././././././././././././././././././././././././././././././././././././././././././././././././././.",
"/./././././././././././././././././././././././././././././././././././././././././././././././././././././././././././././././.",
"/./././././././././././././././././././././././././././././././././././././././././././././././././././././././././././././././.",
"/./././././././././././././././././././././././././././././././././././././././././././././././././././././././././././././././.",
"/./././././././././././././././././././././././././././././././././././././././././././././././././././././././././././././././.",
"/./././././././././././././././././././././././././././././././././././././././././././././././././././././././././././././././.",
"/./././././././././././././././././././././././././././././././././././././././././././././././././././././././././././././././.",
"/./././././././././././././././././././././././././././././././././././././././././././././././././././././././././././././././.",
"/./././././././././././././././././././././././././././././././././././././././././././././././././././././././././././././././.",
"/./././././././././././././././.-././././././././././././././././././.^.~./././././././././././.=./././././././././././././././.",
"/./././././././././././././././././././././././././././.} } } } *.%.$.$.>.M.Z.A.Z.B.B.B.M./././.=./././././././././././././././.",
"/./././././././././././././././././././././././././.h j x n M N E N N n x j h & /./././././././././././././././././././././././.",
"/./././././././././././././././././././././.1 m 4.6.9.9.0.0.0.q.q.0.0.0.0.9.9.8.4.N j /././././././././././././././././././././.",
"/././././././././././././././././././././.j 7.q.q.0.0.0.0.0.0.0.0.0.0.0.0.0.0.0.0.q.0.4.< /./././.{ /./././././././././././././.",
"/./././././././././././././.` ` /././././.1 4.9.q.0.0.0.0.0.0.0.0.0.0.0.0.0.0.0.q.q.9.4.& # - : p.p.( ; + /././././././././././.",
"/./././././././././././.= 4 ` 6 O # = 3 w.z c v F 4.8.9.9.0.0.0.0.0.0.0.0.9.7.8.4.N b z < ; ; # Q ^ a 5 6 + /./././././././././.",
"/./././././././././././.~ l.#.B w .. ...o.k W Y G c l c c v m M M M M m v c l l l H Y R q O.;.N.&.> ] 7 - $ /./././././././././.",
"/././././././././././.. B ^ ..Z G.T.T.T.H.J E R R E R R R Y Y Y L G G Y Y T R R W W R R I I.Q.Q.T. .U _ t.a.C /././././././././.",
"/./././././././././.  @ # e i O.W.Q.T.Q.L.K E R R R R R R R E E E E E E E R R R R R R R K L.Q.W.Q.D.( j.f.u.C o /./././././././.",
"/./././././././././.S e.y.#.P D.Q.W.Q.Q.L.K E E R R E R R R E E E E E E R R R R R R R R K L.Q.W.Q.Y.' a 5 5 5 @ /./././././././.",
"/././././././././.O ! w.r.X.X.T.Q.W.W.Q.U.[ k G T E W W W R W E R R R R E E E E E E T z [ Y.W.W.W.Q.1.i 7 ; ; = . /././././././.",
"/./././././././.. - , - 6 ` G.Q.W.W.W.W.U.2.+.f t q k H H G G Y T T T T Y Y G l k 2 q ' 1.R.Q.Q.W.Q.P.] r.d.d.f.Q /././././././.",
"/././././././.  O , ; 9 d M.Q.Q.Q.Q.Q.Q.U.N.1.1.<.;.@.O.[ ' f d u u u u y f g ..O.%.<.1.V.E.Q.Q.Q.Q.Q.;.( ! Q D B + /./././././.",
"/././././././.V e.s.f.t./ 2.D.F.D.F.H.H.V.@.%.%.&.&.%.%.&.%.&.&.%.%.&.&.&.&.&.,.;.;.&.&.;.G.G.D.C.3.2.X.e # > 7 8 - /./././././.",
"/./././././.3 h.c.d.A ; 5 , # > , , 6 6 > % , , 7 7 , ) p.y.y.p.Z 6 6 6 6 6 , r.p.p.p.t.Z 7 7 , , , - S z.y.C ; , 5 # /././././.",
"/./././././.~ a.C - , 8 8 > > 8 8 8 8 8 = , 8 8 8 8 8 g.n.v.v.c.S 5 8 8 8 8 , d.n.b.b.n.y.5 9 8 8 8 8 ; f.b.c.s.D ; - /././././.",
"/././././.@ 0 - ; 8 8 8 , # 8 8 8 8 8 8 % 8 8 8 8 5 9 x.b.v.v.c.A 8 8 8 8 8 ; r.n.b.b.b.x.0 8 8 8 8 8 , C z.l.h.g.w.3 o /./././.",
"/././././.. @ - % - > > O # > = > > , = $ , , , , , B h.l.l.l.h.B > , , > > = V d.d.p.t.e.3 @ # @ + + + + 3 9 3 ; /././././././.",
"/././././././././././././././././././././././././.X $ 0 0 0 0 9 + X /./././././././././././././././././././././././././././././.",
"/./././././././././././././././././././././././././././././././././././././././././././././././././././././././././././././././.",
"/./././././././././././././././././././././././././././././././././././././././././././././././././././././././././././././././.",
"/./././././././././././././././././././././././././././././././././././././././././././././././././././././././././././././././.",
"/./././././././././././././././././././././././././././././././././././././././././././././././././././././././././././././././.",
"/./././././././././././././././././././././././././././././././././././././././././././././././././././././././././././././././.",
"/./././././././././././././././././././././././././././././././././././././././././././././././././././././././././././././././.",
"/./././././././././././././././././././././././././././././././././././././././././././././././././././././././././././././././.",
"/./././././././././././././././././././././././././././././././././././././././././././././././././././././././././././././././.",
"/./././././././././././././././././././././././././././././././././././././././././././././././././././././././././././././././.",
"/./././././././././././././././././././././././././././././././././././././././././././././././././././././././././././././././.",
"/./././././././././././././././././././././././././././././././././././././././././././././././././././././././././././././././.",
"/./././././././././././././././././././././././././././././././././././././././././././././././././././././././././././././././.",
"/./././././././././././././././././././././././././././././././././././././././././././././././././././././././././././././././.",
"/./././././././././././././././././././././././././././././././././././././././././././././././././././././././././././././././.",
"/./././././././././././././././././././././././././././././././././././././././././././././././././././././././././././././././.",
"/./././././././././././././././././././././././././././././././././././././././././././././././././././././././././././././././.",
"/./././././././././././././././././././././././././././././././././././././././././././././././././././././././././././././././.",
"/./././././././././././././././././././././././././././././././././././././././././././././././././././././././././././././././.",
"/./././././././././././././././././././././././././././././././././././././././././././././././././././././././././././././././."
};
