/* XPM */
static char *result[] = {
/* columns rows colors chars-per-pixel */
"64 64 100 2 ",
"   c #83A2AA",
".  c #85A4AC",
"X  c #779299",
"o  c #5D7176",
"O  c #576A6F",
"+  c #596C71",
"@  c #586B70",
"#  c #6B838A",
"$  c #82A1A9",
"%  c #84A3AB",
"&  c #84A3AC",
"*  c #77939A",
"=  c #6B848A",
"-  c #63787E",
";  c #61767B",
":  c #61767C",
">  c #677E84",
",  c #728C93",
"<  c #7F9DA4",
"1  c #84A4AC",
"2  c #7C99A1",
"3  c #667D83",
"4  c #6E868C",
"5  c #708990",
"6  c #6F898F",
"7  c #70898F",
"8  c #667D82",
"9  c #60757A",
"0  c #748F96",
"q  c #81A0A8",
"w  c #647B80",
"e  c #6D868C",
"r  c #7B989F",
"t  c #7E9BA3",
"y  c #7D9AA2",
"u  c #7D9BA2",
"i  c #7E9BA2",
"p  c #738E94",
"a  c #677E83",
"s  c #647A80",
"d  c #6E888E",
"f  c #60767B",
"g  c #7A979E",
"h  c #819FA7",
"j  c #7E9CA3",
"k  c #82A0A8",
"l  c #83A3AB",
"z  c #809EA6",
"x  c #7E9CA4",
"c  c #7F9DA5",
"v  c #647A7F",
"b  c #63797E",
"n  c #6E878D",
"m  c #83A1A9",
"M  c #78939A",
"N  c #759097",
"B  c #809EA5",
"V  c #5F7479",
"C  c #738D94",
"Z  c #79959C",
"A  c #7C99A0",
"S  c #769198",
"D  c #718B91",
"F  c #7A969D",
"G  c #718B92",
"H  c #7F9CA4",
"J  c #6F888E",
"K  c #5C7075",
"L  c #6B8389",
"P  c #708A90",
"I  c #79959D",
"U  c #769298",
"Y  c #728C92",
"T  c #81A0A7",
"R  c #748E95",
"E  c #7A969E",
"W  c #85A4AD",
"Q  c #5E7278",
"!  c #82A1A8",
"~  c #759198",
"^  c #85A5AD",
"/  c #698086",
"(  c #748F95",
")  c #759096",
"_  c #5D7277",
"`  c #78949B",
"'  c #698186",
"]  c #708A91",
"[  c #657C81",
"{  c #7C9AA1",
"}  c #6A8187",
"|  c #79969D",
" . c #6C848A",
".. c #687F85",
"X. c #6A8288",
"o. c #657B81",
"O. c #5B6F74",
"+. c #5C6F75",
"@. c #718A91",
"#. c white",
/* pixels */
"      . X o O + + + + + + + + + + + + + + + + + + + + + + + + + + + + + + + + + + + + + + + + + + + + + + + + @ @ # $ %         ",
"  & $ * = - ; : : : : : : : : : : : : : : : : : : : : : : : : : : : : : : : : : : : : : : : : : : : : : : : : : : > , < 1       ",
"  $ 2 3 ; 4 5 6 6 6 6 6 6 6 6 6 6 6 6 6 6 6 6 6 6 6 6 6 6 6 6 6 6 6 6 6 6 6 6 6 6 6 6 6 6 6 6 6 6 6 6 6 6 6 6 7 7 8 9 0 q       ",
". * 3 w e r t y y u t u y y u t u y y i i y y u t u y y u t u u t u y y u t u y y u t u y y u t u y y i i y y u u p a s d q 1   ",
"X = f e g   1 % % h j k % l z x $ %   c c   % $ x z l % k j h $ x z l % k j h % % h j k % l z x $ %   c c   % % 1 j p v s 0 x   ",
"o b n r $ $       g , y % m M p c 1 q N N q 1 c p M m % y , r B p M m % y , g l l g , y % m M p c 1 q N N q %   m $ c p 3 V C % ",
"O 3 g $ z Z u     Z 5 A & $ S D < 1 h p p h 1 < D S $ & A 5 F c G S $ & A 5 Z l l Z 5 A & $ S D < 1 h p p h & h Z 2 m H J K 5 % ",
"@ L $ . 2 P Z l l I P 2 & $ U Y < 1 T R R T 1 < Y U $ & 2 P E c Y U $ & 2 P I l l I P 2 & $ U Y < 1 T R R T 1 < G U $ W S Q P % ",
"@ L $ . 2 P Z l l I P 2 & $ U Y < 1 T R R T 1 < Y U $ & 2 P E c Y U $ & 2 P I l l I P 2 & $ U Y < 1 T R R T 1 < G U $ W S Q P % ",
"@ L ! . 2 P I l l I P 2 & $ U Y < 1 T R R T 1 < Y U $ & 2 P E c Y U $ & 2 P I l l I P 2 & $ U Y < 1 T R R T 1 < Y U $ . ~ Q P % ",
"@ L ! . 2 P I l l I P 2 & $ U Y < 1 T R R T 1 < Y U $ & 2 P E c Y U $ & 2 P I l l I P 2 & $ U Y < 1 T R R T 1 < Y U $ . ~ Q P % ",
"@ L ! . 2 P I l l I P 2 & $ U Y < 1 T R R T 1 < Y U $ & 2 P E c Y U $ & 2 P I l l I P 2 & $ U Y < 1 T R R T 1 < Y U $ . ~ Q P % ",
"@ L ! . 2 P I l l I P 2 & $ U Y < 1 T R R T 1 < Y U $ & 2 P E c Y U $ & 2 P I l l I P 2 & $ U Y < 1 T R R T 1 < Y U $ . ~ Q P % ",
"@ L ! . 2 P I l l I P 2 & $ U Y < 1 T R R T 1 < Y U $ & 2 P E c Y U $ & 2 P I l l I P 2 & $ U Y < 1 T R R T 1 < Y U $ . ~ Q P % ",
"@ L ! . 2 P I l l I P 2 & $ U Y < 1 T R R T 1 < Y U $ & 2 P E c Y U $ & 2 P I l l I P 2 & $ U Y < 1 T R R T 1 < Y U $ . ~ Q P % ",
"@ L ! . 2 P I l l I P 2 & $ U Y < 1 T R R T 1 < Y U $ & 2 P E c Y U $ & 2 P I l l I P 2 & $ U Y < 1 T R R T 1 < Y U $ . ~ Q P % ",
"@ L ! . 2 P I l l I P 2 & $ U Y < 1 T R R T 1 < Y U $ & 2 P E c Y U $ & 2 P I l l I P 2 & $ U Y < 1 T R R T 1 < Y U $ . ~ Q P % ",
"@ L ! . 2 P I l l I P 2 & $ U Y < 1 T R R T 1 < Y U $ & 2 P E c Y U $ & 2 P I l l I P 2 & $ U Y < 1 T R R T 1 < Y U $ . ~ Q P % ",
"@ L ! . 2 P I l l I P 2 & $ U Y < 1 T R R T 1 < Y U $ & 2 P E c Y U $ & 2 P I l l I P 2 & $ U Y < 1 T R R T 1 < Y U $ . ~ Q P % ",
"@ L ! . 2 P I l l I P 2 & $ U Y < 1 T R R T 1 < Y U $ & 2 P E c Y U $ & 2 P I l l I P 2 & $ U Y < 1 T R R T 1 < Y U $ . ~ Q P % ",
"@ L ! . 2 P I l l I P 2 & $ U Y < 1 T R R T 1 < Y U $ & 2 P E c Y U $ & 2 P I l l I P 2 & $ U Y < 1 T R R T 1 < Y U $ . ~ Q P % ",
"@ L ! . 2 P I l l I P 2 & $ U Y < 1 T R R T 1 < Y U $ & 2 P E c Y U $ & 2 P I l l I P 2 & $ U Y < 1 T R R T 1 < Y U $ . ~ Q P % ",
"@ L ! . 2 P I l l I P 2 & $ U Y < 1 T R R T 1 < Y U $ & 2 P E c Y U $ & 2 P I l l I P 2 & $ U Y < 1 T R R T 1 < Y U $ . ~ Q P % ",
"@ L ! . 2 P I l l I P 2 & $ U Y < 1 T R R T 1 < Y U $ & 2 P E c Y U $ & 2 P I l l I P 2 & $ U Y < 1 T R R T 1 < Y U $ . ~ Q P % ",
"@ L ! . 2 P I l l I P 2 & $ U Y < 1 T R R T 1 < Y U $ & 2 P E c Y U $ & 2 P I l l I P 2 & $ U Y < 1 T R R T 1 < Y U $ . ~ Q P % ",
"@ L ! . 2 P I l l I P 2 & $ U Y < 1 T R R T 1 < Y U $ & 2 P E c Y U $ & 2 P I l l I P 2 & $ U Y < 1 T R R T 1 < Y U $ . ~ Q P % ",
"@ L ! . 2 P I l l I P 2 & $ U Y < 1 T R R T 1 < Y U $ & 2 P E c Y U $ & 2 P I l l I P 2 & $ U Y < 1 T R R T 1 < Y U $ . ~ Q P % ",
"@ L ! . 2 P I l l I P 2 & $ U Y < 1 T R R T 1 < Y U $ & 2 P E c Y U $ & 2 P I l l I P 2 & $ U Y < 1 T R R T 1 < Y U $ . ~ Q P % ",
"@ L ! . 2 P I l l I P 2 & $ U Y < 1 T R R T 1 < Y U $ & 2 P E c Y U $ & 2 P I l l I P 2 & $ U Y < 1 T R R T 1 < Y U $ . ~ Q P % ",
"@ L ! . 2 P I l l I P 2 & $ U Y < 1 T R R T 1 < Y U $ & 2 P E c Y U $ & 2 P I l l I P 2 & $ U Y < 1 T R R T 1 < Y U $ . ~ Q P % ",
"@ L ! . 2 P I l l I P 2 & $ U Y < 1 T R R T 1 < Y U $ & 2 P E c Y U $ & 2 P I l l I P 2 & $ U Y < 1 T R R T 1 < Y U $ . ~ Q P % ",
"@ L ! . 2 P I l l I P 2 & $ U Y < 1 T R R T 1 < Y U $ & 2 P E c Y U $ & 2 P I l l I P 2 & $ U Y < 1 T R R T 1 < Y U $ . ~ Q P % ",
"@ L ! . 2 P I l l I P 2 & $ U Y < 1 T R R T 1 < Y U $ & 2 P E c Y U $ & 2 P I l l I P 2 & $ U Y < 1 T R R T 1 < Y U $ . ~ Q P % ",
"@ L ! . 2 P I l l I P 2 & $ U Y < 1 T R R T 1 < Y U $ & 2 P E c Y U $ & 2 P I l l I P 2 & $ U Y < 1 T R R T 1 < Y U $ . ~ Q P % ",
"@ L ! . 2 P I l l I P 2 & $ U Y < 1 T R R T 1 < Y U $ & 2 P E c Y U $ & 2 P I l l I P 2 & $ U Y < 1 T R R T 1 < Y U $ . ~ Q P % ",
"@ L ! . 2 P I l l I P 2 & $ U Y < 1 T R R T 1 < Y U $ & 2 P E c Y U $ & 2 P I l l I P 2 & $ U Y < 1 T R R T 1 < Y U $ . ~ Q P % ",
"@ L ! . 2 P I l l I P 2 & $ U Y < 1 T R R T 1 < Y U $ & 2 P E c Y U $ & 2 P I l l I P 2 & $ U Y < 1 T R R T 1 < Y U $ . ~ Q P % ",
"@ L ! . 2 P I l l I P 2 & $ U Y < 1 T R R T 1 < Y U $ & 2 P E c Y U $ & 2 P I l l I P 2 & $ U Y < 1 T R R T 1 < Y U $ . ~ Q P % ",
"@ L ! . 2 P I l l I P 2 & $ U Y < 1 T R R T 1 < Y U $ & 2 P E c Y U $ & 2 P I l l I P 2 & $ U Y < 1 T R R T 1 < Y U $ . ~ Q P % ",
"@ L ! . 2 P I l l I P 2 & $ U Y < 1 T R R T 1 < Y U $ & 2 P E c Y U $ & 2 P I l l I P 2 & $ U Y < 1 T R R T 1 < Y U $ . ~ Q P % ",
"@ L ! . 2 P I l l I P 2 & $ U Y < 1 T R R T 1 < Y U $ & 2 P E c Y U $ & 2 P I l l I P 2 & $ U Y < 1 T R R T 1 < Y U $ . ~ Q P % ",
"@ L ! . 2 P I l l I P 2 & $ U Y < 1 T R R T 1 < Y U $ & 2 P E c Y U $ & 2 P I l l I P 2 & $ U Y < 1 T R R T 1 < Y U $ . ~ Q P % ",
"@ L ! . 2 P I l l I P 2 & $ U Y < 1 T R R T 1 < Y U $ & 2 P E c Y U $ & 2 P I l l I P 2 & $ U Y < 1 T R R T 1 < Y U $ . ~ Q P % ",
"@ L ! . 2 P I l l I P 2 & $ U Y < 1 T R R T 1 < Y U $ & 2 P E c Y U $ & 2 P I l l I P 2 & $ U Y < 1 T R R T 1 < Y U $ . ~ Q P % ",
"@ L ! . 2 P I l l I P 2 & $ U Y < 1 T R R T 1 < Y U $ & 2 P E c Y U $ & 2 P I l l I P 2 & $ U Y < 1 T R R T 1 < Y U $ . ~ Q P % ",
"@ L ! . 2 P I l l I P 2 & $ U Y < 1 T R R T 1 < Y U $ & 2 P E c Y U $ & 2 P I l l I P 2 & $ U Y < 1 T R R T 1 < Y U $ . ~ Q P % ",
"@ L ! . 2 P I l l I P 2 & $ U Y < 1 T R R T 1 < Y U $ & 2 P E c Y U $ & 2 P I l l I P 2 & $ U Y < 1 T R R T 1 < Y U $ . ~ Q P % ",
"@ L ! . 2 P I l l I P 2 & $ U Y < 1 T R R T 1 < Y U $ & 2 P E c Y U $ & 2 P I l l I P 2 & $ U Y < 1 T R R T 1 < Y U $ . ~ Q P % ",
"@ L ! . 2 P I l l I P 2 & $ U Y < 1 T R R T 1 < Y U $ & 2 P E c Y U $ & 2 P I l l I P 2 & $ U Y < 1 T R R T 1 < Y U $ . ~ Q P % ",
"@ L ! . 2 P I l l I P 2 & $ U Y < 1 T R R T 1 < Y U $ & 2 P E c Y U $ & 2 P I l l I P 2 & $ U Y < 1 T R R T 1 < Y U $ . ~ Q P % ",
"@ L ! . 2 P I l l I P 2 & $ U Y < 1 T R R T 1 < Y U $ & 2 P E c Y U $ & 2 P I l l I P 2 & $ U Y < 1 T R R T 1 < Y U $ . ~ Q P % ",
"@ L ! . 2 P I l l I P 2 & $ U Y < 1 T R R T 1 < Y U $ & 2 P E c Y U $ & 2 P I l l I P 2 & $ U Y < 1 T R R T 1 < Y U $ . ~ Q P % ",
"@ L ! . 2 P I l l I P 2 & $ U Y < 1 T R R T 1 < Y U $ & 2 P E c Y U $ & 2 P I l l I P 2 & $ U Y < 1 T R R T 1 < Y U $ . ~ Q P % ",
"@ L ! . 2 P I l l I P 2 & $ U Y < 1 T R R T 1 < Y U $ & 2 P E c Y U $ & 2 P I l l I P 2 & $ U Y < 1 T R R T 1 < Y U $ . ~ Q P % ",
"@ L m . A 5 Z l l I P 2 & $ U Y < 1 T R R T 1 < Y U $ & 2 P E c Y U $ & 2 P I l l I P 2 & $ U Y < 1 T R R T 1 < D S m ^ S Q P % ",
"@ / H   t ( r l l Z P 2 & $ U G < 1 h R R h 1 < G U $ & 2 P F c Y U $ & 2 P Z l l Z P 2 & $ U G < 1 h R R h 1 B ) Z $ $ C _ P % ",
"@ - C < $ B T     Z P 2 & $ U G < 1 h R R h 1 < G U $ & 2 P F c Y U $ & 2 P Z l l Z P 2 & $ U G < 1 h R R h % $ z q k ` ' K ] % ",
"= > [ C j % 1 % % j Z z 1   { F q 1 m r r m 1 q F {   1 z Z H q F {   1 z Z j % % j Z z 1   { F q 1 m r r m % % 1 h Z } s L |   ",
"$ , 9 a p c k T T h h h T T h h h T T h h T T h h h T T h h h h h h T T h h h T T h h h T T h h h T T h h T T q q Z  .f ..H %   ",
"% < 0 s s C S N N N N N N N N N N N N N N N N N N N N N N N N N N N N N N N N N N N N N N N N N N N N N N N N N N X.f n r m %   ",
"  1 q d w 8 8 8 8 8 8 8 8 8 8 8 8 8 8 8 8 8 8 8 8 8 8 8 8 8 8 8 8 8 8 8 8 8 8 8 8 8 8 8 8 8 8 8 8 8 8 8 8 8 8 8 8 o...r W       ",
"      q 0 V O.K K K K K K K K K K K K K K K K K K K K K K K K K K K K K K K K K K K K K K K K K K K K K K K K +.+.# H m         ",
"      1 x C ] D D D D D D D D D D D D D D D D D D D D D D D D D D D D D D D D D D D D D D D D D D D D D D D D @.@.| % %         ",
"          % % % % % % % % % % % % % % % % % % % % % % % % % % % % % % % % % % % % % % % % % % % % % % % % % % % %               "
};
